<?xml version="1.0" encoding="utf-8"?>
<!-- Generator: Adobe Illustrator 25.1.0, SVG Export Plug-In . SVG Version: 6.00 Build 0)  -->
<svg version="1.1" xmlns="http://www.w3.org/2000/svg" xmlns:xlink="http://www.w3.org/1999/xlink" x="0px" y="0px"
	 viewBox="0 0 523.8 885.7" style="enable-background:new 0 0 523.8 885.7;" xml:space="preserve">
<style type="text/css">
	.st0{opacity:0.44;fill:#9712C8;}
	.st1{fill:#FFF6F0;}
	.st2{fill:#FFBDAE;}
	.st3{filter:url(#Adobe_OpacityMaskFilter);}
	.st4{filter:url(#Adobe_OpacityMaskFilter_1_);}
	.st5{mask:url(#SVGID_1_);fill:url(#SVGID_2_);}
	.st6{fill:url(#SVGID_3_);}
	.st7{filter:url(#Adobe_OpacityMaskFilter_2_);}
	.st8{filter:url(#Adobe_OpacityMaskFilter_3_);}
	.st9{mask:url(#SVGID_4_);fill:url(#SVGID_5_);}
	.st10{fill:url(#SVGID_6_);}
	.st11{fill:#EB404B;}
	.st12{fill:#FFFFFF;}
	.st13{fill:#B35E57;}
	.st14{fill:#A84D4D;}
	.st15{fill:#DC9187;}
	.st16{fill:#F2F5FD;}
	.st17{fill:#1A1A1A;}
	.st18{fill:#C2CADD;}
	.st19{fill:#080600;}
	.st20{fill:#BBBDBF;}
	.st21{fill:#D0D2D3;}
	.st22{fill:#A6A8AB;}
	.st23{fill:#F8A54B;}
	.st24{fill:#F4741E;}
	.st25{opacity:0.25;fill:#444142;}
	.st26{opacity:0.25;fill:#3D3438;}
	.st27{fill:#841918;}
</style>
<g id="BG">
</g>
<g id="Layer_1">
	<g>
		<ellipse class="st0" cx="279.5" cy="837.5" rx="218.3" ry="48.2"/>
		<g>
			<g>
				<path class="st1" d="M462.9,434.1c-0.4-0.3-0.8-0.5-1.2-0.8c-2.5-1.4-5.3-2-8.1-2.6c-4-0.8-7.9-2-11.9-1.9c-1,0-1.7-0.5-2-1.3
					c-0.8-0.2-1.5-0.5-2.2-1.1c-2.1-1.8-3-4.7-3.6-7.3c-0.2-0.8-0.3-1.6-0.5-2.5c-0.4-0.3-0.7-0.7-0.9-1.2
					c-3.4-8.9-6.4-17.9-11-26.2c-0.6-1.2-0.1-2.3,0.7-2.9c-12.7-24.7-26.4-48.9-42.2-71.5c-20.8-29.6-45.9-51.4-80.5-63.1
					c-15.3-5.2-32.1-10.9-48.7-10.2c-0.3,0.3-0.6,0.6-1.1,0.7c-4.1,1.2-8.2,2.1-12.3,3.4c-8.9,5.8-17.7,11.9-26.8,17.5
					c-8.7,8.1-16.9,16.7-24.6,25.8c-0.7,0.9-1.7,0.9-2.4,0.5c-15.1,19.6-28,41.3-39.4,62.9c0.9-3.9,1.5-7.7,2-11.6
					c-1.2,2.4-2.4,4.8-3.6,7.2c-0.3,0.7-1,1-1.7,1c0,0,0,0,0,0.1c-3.7,9.9-9.6,19.4-14.8,28.2c-2,3.4-4.1,6.9-6.2,10.4
					c-2.7,7.5-6.3,14.6-9.1,22.1c-2,5.3-1.8,12.8-6.4,16.7c-4,3.3-10.5,2.8-15.3,3.1c-2.7,0.2-5.1,0.7-7.1,1.7
					c-4.7,5.1-8.6,10.6-10.1,17c-1,0.4-1.7,1.2-1.7,2.4c0.7,16.7,5.6,35.1,16.8,48c4.8,5.5,10,7.1,17,9.4c3.4,1.1,8.4,3,12,3.1
					c3.4,0.1,11.9,0.7,15.2,1c8.2,0.9,7.7,12.9,12.6,19c5.6,7,12,13.1,19.1,18.6c9.2,7.1,22.9,15.4,35.6,17.4
					c6.9,4.6,14.2,7.3,22.7,9c4.1,2.2,8.2,4,12.6,5c0.8,0.2,1.4,0.1,2.1,0c0,0,0.1,0,0.1,0c0.8-0.2,1.6-0.7,2.1-1.4
					c1.2,0.5,2.4,1.2,3.5,2c1.2,0.1,2.3,0.2,3.5,0.4c0.6-0.7,1.6-1,2.6-0.3c0.3,0.2,0.7,0.4,1,0.7c3.9,0.4,7.8,0.9,11.6,2
					c2.2,0.7,4.6,2.3,7,4c0.1,0,0.2,0.1,0.3,0.2c1.2,0.8,2.5,1.5,3.7,2.3c2.5,1.3,5.1,2.1,7.7,1.2c1.8-0.6,3-2.6,4.3-3.9
					c1.9-2,4.1-3.4,6.7-4.6c6-2.6,12.9-3.5,19.4-4.1c0.6-0.1,1.1,0.1,1.4,0.4c1.3-0.5,2.5-1.1,3.8-1.8c26.2-14.8,48.5-20.1,71-37.8
					c4.4-3.5,8.5-7.9,11.6-12.6c4-6,6.1-13,13-15.8c27.3-3.5,55.1-14.2,61.1-44.6C473.2,456.8,473,441.1,462.9,434.1z"/>
				<path class="st1" d="M467.6,533.6c4.7-5.3,8.6-12.4,4.5-18.1c-1.4-1.9-3.4-2.4-5.6-1.5c-0.6,0.3-3.8,2.5-6.6,4.3
					c0-0.2,0-0.5-0.1-0.7c0-0.3-0.1-0.5-0.2-0.7c1.5-5.6,3.8-10.5-1.3-16.1c-1.3-1.4-4.1-1.5-5.4,0c-2.9,3.5-5.6,7.1-8.3,10.8
					c-1.8-0.2-3.8,0-5.8,0.8c-3.1,1.3-4.4,3.4-6.5,5.7c-4.2,4.7-10,8.4-15.3,12.2c-2-1.2-5.2-0.7-5.6,2.1c-0.1,0.4-0.1,0.7-0.2,1.1
					c0.4,0.4,0.7,0.9,0.6,1.6c-0.8,9.3-1.8,18.5-1.7,27.8c0.1,4.4,0.3,8.9,1.5,13.2c0.5,1.8,1.1,3.6,1.7,5.4
					c0.3-0.1,0.6-0.3,0.8-0.5c11.4-9.5,19.8-22.1,31.1-31.5c0.3-0.2,0.5-0.5,0.7-0.8c2.1,0,4.2-0.6,6.2-1.7
					c4.3-2.2,11.1-4.9,14.3-8.5c1-1.1,1.8-2.9,1.2-4.5C467.7,533.9,467.7,533.8,467.6,533.6z"/>
				<path class="st1" d="M205.7,672.5c-5.1,3.6-12.8,6.4-19.2,4.6c0,3.4-0.6,6.9-0.6,10.3c0,4.7,2,9.5,6.2,11.9
					c3.6,2.1,8.5,2.1,12.5,1.2c4.2-0.9,8-3.2,10.5-6.8c3-4.3,3.3-9.8,5.5-14.5c0.7-1.5,1.7-2.9,2.1-4.5c0.5-2-0.3-4.1-1.5-5.8
					c-1.2-1.8-2.9-3-5-3.7c-1.3-0.4-2.9-1-4,0c-1.3,1.1-2,2.9-3,4.2C208.2,670.6,207,671.6,205.7,672.5z"/>
				<path class="st2" d="M114.5,469.3c-2.8-6.8-8.8-13.8-15.8-16c-3.8-3.1-8.2-4.3-12.8-1c-11.5,8.2,3.4,24,10.7,29.1
					c4.2,3,9.9,6.1,15,3.1C117.1,481.3,116.6,474.3,114.5,469.3z"/>
				<path class="st2" d="M459.4,466.1c0,0-0.1-0.1-0.1-0.1c-4.7-5-11.9-1.1-16,2.7c-4.4,4.2-6.8,10.1-6.9,16.2c0,2,1.5,4.4,3.6,4.8
					c9.1,1.6,17.6-5.3,21.6-13.2C463.4,472.9,462.8,468.1,459.4,466.1z"/>
				<path class="st2" d="M428.3,414.4c-1.4-1.1-2.7-2.2-4-3.3c5.6-0.6,8.4-8.6,2.7-12.8c-14-10.2-26.1-22.2-36.8-35.8
					c-3.9-5-11.1-0.4-11.5,4.7c-0.3,5.5-1.2,10.7-2.9,15.9c-0.5,1.7-4,12.6-6.1,13.3c-1,0.4-11.1-6.8-12.8-7.6
					c-3.8-1.8-7.8-3.4-11.9-4.5c-17.1-4.7-34.2-0.3-50.3,5.9c-1.2-2.3-2.3-4.6-3.5-6.9c-1.8-3.7-6.2-3.8-9.1-1.8
					c-8.1-14.5-14.3-29.9-18-46.3c-5.1-22.6-5-45.9-5.2-68.9c0-6.2-8.9-9-11.9-3.2c-20.3,38.1-22.3,79.9-24.5,121.9
					c-13.1-9.7-12.7-32.5-13-47.1c-0.3-19.4,1.6-39.7,6.1-58.6c1.3-5.5-6.7-7.7-8.5-2.3c-0.4,1.3-0.8,2.6-1.2,3.9
					c-1.5-0.3-3,0.2-3.9,1.8c-17.7,33.7-39.6,66.2-64.6,94.9c-3.3,3.7-1.4,10.2,2.9,11.4c-5.6,7.1-12.1,13.4-19.6,19.2
					c-4.5,3.5,0,10.1,4.7,9.6c-2.4,15.5-5.5,28.9-0.1,45.2c0.9,2.7,5.3,2.4,5.2-0.7c-0.5-15.5-2.7-35.6,5-49.7
					c0.4-0.8,0.6-1.6,0.6-2.5c9.2-8.1,16.9-17.5,23.4-28.1c1.7-2.7,0.7-5.7-1.3-7.5c16.4-19.1,29.8-39.9,40.3-62.6
					c-2.1,14-2.5,28.2-1,42.8c2,18.9,7.8,39.5,28.4,44.9c3.6,1,7.2-1.8,7.2-5.5c0.6-32.8,2.9-67,13.4-98.3
					c2.1,36.6,9.3,71.6,30.7,103.4c2.1,3.1,6.1,3.8,8.9,2.3c1.7,3.1,5.5,3.4,8.5,2.2c13.2-5.7,28.8-11,43.2-7.9
					c6.1,1.3,11.9,3.8,17.3,7c4,2.4,7.9,6.3,12.5,7.4c12.1,2.8,18.7-13.3,21.8-27.2c3.9,4.3,7.9,8.4,12.1,12.3
					c-4.1,1.6-4.3,7.6-1.7,10.5c6.2,7,12.8,13.2,21,17.8C426.7,426.7,433.5,418.7,428.3,414.4z"/>
				<path class="st2" d="M279.3,452c4.2-6.7,1.7-12.3-6.2-14.1c-8.1-1.8-17.7,2-17.3,11.7c0.2,5.7,5.7,6.8,10.3,7
					c3.5,0.1,7.2-0.4,10.2-2.2C277.5,454,278.6,453.1,279.3,452z"/>
				<path class="st2" d="M408.4,488.3c-18,52.3-79.2,83.7-131.1,88.2c-30.2,2.6-61.2-6-87.4-20.4c-26.4-14.5-53.1-35.3-57.1-67.7
					c-0.5-4.1-6.6-4.4-6.6,0c0.4,33.4,25.5,57.7,53.2,71.4c27,13.3,54.3,23.8,84.6,23.9c0.4,1.8,2.2,3.5,4.4,2.9
					c0.9-0.2,2.2,1.2,2.9,1.7c1.5,1,3.2,1.6,5,1.5c3.9-0.2,6-2.8,6.8-6.1c0.1-0.4,0.1-0.8,0.1-1.2c28.7-3.4,56.6-12.8,81-28.1
					c23.8-14.9,45.8-36.2,49.6-65.3C414.1,485.9,409.3,485.6,408.4,488.3z"/>
				<path class="st2" d="M439.5,544.3c-3.8,0.6-7.8,3.3-11.6,3.5c-8.3,0.4-11-6.8-12.4-13.6c-0.5-2.3-4.3-1.8-4.1,0.6
					c0.4,4.1,0.8,8.2,2.2,11.8c-1.4,0.7-2.5,2-2.4,3.8c0.2,8.4,0.2,16.9-0.2,25.3c-0.1,2.7,4,4.8,5.8,2.4
					c8-10.2,17.4-18.8,25.9-28.4C444.9,547.2,442.6,543.8,439.5,544.3z"/>
				<path class="st2" d="M461.6,537.7c0.2,0.5,0.2,0.5,0,0.1c-0.1-0.2-0.1-0.3-0.3-0.5c-0.2-0.3-0.6-0.6-0.9-0.8
					c-0.6-0.4-1.2-0.7-1.8-1c-1.2-0.6-2.1-1.4-3-2.4c-0.1-0.2-0.3-0.2-0.5-0.4c-0.4-2.4-2.2-4.4-4.5-5.2c0.5-1.2,0-2.7-1.6-3.2
					c-2.4-0.7-4.7-0.6-6.9-1.8c-3.3-1.7-6.2,3.2-2.9,5c1,0.5,2.1,1.1,3.3,1.5c-0.3,0.3-0.6,0.6-0.8,1c-0.8,1.9-1.1,3.8-0.4,5.9
					c0.7,2,2.1,3.6,4,4.4c2.8,1.2,6,0.3,8-1.8c0.8,0.7,1.8,1.3,2.8,1.8c1,0.4,1.9,0.7,2.9,0.6c0.5,0,1-0.1,1.4-0.3
					c0.3-0.1,0.5-0.2,0.7-0.4c0.4-0.5,0.4-0.6,0.1-0.1C462.1,539.7,462.3,538.4,461.6,537.7z"/>
				<path class="st2" d="M221.8,673.8c-2-2.9-4.3-5.2-7.1-7.3c-2.7-1.9-5.6,2.6-3.1,4.4c0.6,0.8,1.2,1.5,1.8,2.2
					c0.7,2.7-1,7-1.9,8.8c-1.6,2.9-4.4,6-7.7,7.1c-7.7,2.6-14.2-3.9-13.3-11.4c0.4-3.2-4.6-3.6-5.4-0.7c-2,7.1,0.6,14.3,5.8,18.3
					c0,0.7,0.4,1.4,1.3,1.9c2.3,1.1,5.2,2.2,7.9,2.3c0.3,0.9,1.1,1.5,2.2,1.4c2.9-0.3,5.6-1,8.2-2.3c2.6-1.4,4-3.6,5.1-6.2
					c0.4-1-0.3-1.9-1.3-2.1c0.6-1,1.2-2.1,1.7-3.3c1.2-2.9,2-6,2.1-9.1C220.5,678.6,223.6,676.3,221.8,673.8z"/>
				<defs>
					<filter id="Adobe_OpacityMaskFilter" filterUnits="userSpaceOnUse" x="114.8" y="447.7" width="91.5" height="91.5">
						<feFlood  style="flood-color:white;flood-opacity:1" result="back"/>
						<feBlend  in="SourceGraphic" in2="back" mode="normal"/>
					</filter>
				</defs>
				<mask maskUnits="userSpaceOnUse" x="114.8" y="447.7" width="91.5" height="91.5" id="SVGID_1_">
					<g class="st3">
						<defs>
							<filter id="Adobe_OpacityMaskFilter_1_" filterUnits="userSpaceOnUse" x="114.8" y="447.7" width="91.5" height="91.5">
								<feFlood  style="flood-color:white;flood-opacity:1" result="back"/>
								<feBlend  in="SourceGraphic" in2="back" mode="normal"/>
							</filter>
						</defs>
						<mask maskUnits="userSpaceOnUse" x="114.8" y="447.7" width="91.5" height="91.5" id="SVGID_1_">
							<g class="st4">
							</g>
						</mask>
						<radialGradient id="SVGID_2_" cx="160.5651" cy="493.4457" r="45.7545" gradientUnits="userSpaceOnUse">
							<stop  offset="0" style="stop-color:#FFFFFF"/>
							<stop  offset="0.1273" style="stop-color:#FBFBFB"/>
							<stop  offset="0.2531" style="stop-color:#EFEFEF"/>
							<stop  offset="0.3783" style="stop-color:#DBDBDB"/>
							<stop  offset="0.5032" style="stop-color:#BFBFBF"/>
							<stop  offset="0.6281" style="stop-color:#9B9B9B"/>
							<stop  offset="0.7528" style="stop-color:#6F6F6F"/>
							<stop  offset="0.8764" style="stop-color:#3C3C3C"/>
							<stop  offset="0.9982" style="stop-color:#010101"/>
							<stop  offset="1" style="stop-color:#000000"/>
						</radialGradient>
						<path class="st5" d="M160.6,447.7c-25.3,0-45.8,20.5-45.8,45.8c0,5,0.8,9.8,2.3,14.3c2.1,0.6,4.3,0.9,6.4,1.4
							c2.1,0.5,4.4,1.2,6.2,2.4c1.6,1,2.7,2.7,3.8,4.2c2.5,3.5,4.6,7.4,6.4,11.4c2.7,3,5.4,5.9,8.5,8.5c0.6,0.5,0.9,1.3,0.9,2.1
							c3.6,0.9,7.3,1.4,11.2,1.4c25.3,0,45.8-20.5,45.8-45.8C206.3,468.2,185.8,447.7,160.6,447.7z"/>
					</g>
				</mask>
				<radialGradient id="SVGID_3_" cx="160.5651" cy="493.4457" r="45.7545" gradientUnits="userSpaceOnUse">
					<stop  offset="0" style="stop-color:#F9697C"/>
					<stop  offset="0.1705" style="stop-color:#F96D7F"/>
					<stop  offset="0.339" style="stop-color:#FA7989"/>
					<stop  offset="0.5067" style="stop-color:#FB8D99"/>
					<stop  offset="0.674" style="stop-color:#FCA8B0"/>
					<stop  offset="0.8393" style="stop-color:#FDCCCD"/>
					<stop  offset="1" style="stop-color:#FFF6F0"/>
				</radialGradient>
				<path class="st6" d="M160.6,447.7c-25.3,0-45.8,20.5-45.8,45.8c0,5,0.8,9.8,2.3,14.3c2.1,0.6,4.3,0.9,6.4,1.4
					c2.1,0.5,4.4,1.2,6.2,2.4c1.6,1,2.7,2.7,3.8,4.2c2.5,3.5,4.6,7.4,6.4,11.4c2.7,3,5.4,5.9,8.5,8.5c0.6,0.5,0.9,1.3,0.9,2.1
					c3.6,0.9,7.3,1.4,11.2,1.4c25.3,0,45.8-20.5,45.8-45.8C206.3,468.2,185.8,447.7,160.6,447.7z"/>
				<defs>
					<filter id="Adobe_OpacityMaskFilter_2_" filterUnits="userSpaceOnUse" x="340.7" y="442.8" width="91.5" height="91.5">
						<feFlood  style="flood-color:white;flood-opacity:1" result="back"/>
						<feBlend  in="SourceGraphic" in2="back" mode="normal"/>
					</filter>
				</defs>
				<mask maskUnits="userSpaceOnUse" x="340.7" y="442.8" width="91.5" height="91.5" id="SVGID_4_">
					<g class="st7">
						<defs>
							<filter id="Adobe_OpacityMaskFilter_3_" filterUnits="userSpaceOnUse" x="340.7" y="442.8" width="91.5" height="91.5">
								<feFlood  style="flood-color:white;flood-opacity:1" result="back"/>
								<feBlend  in="SourceGraphic" in2="back" mode="normal"/>
							</filter>
						</defs>
						<mask maskUnits="userSpaceOnUse" x="340.7" y="442.8" width="91.5" height="91.5" id="SVGID_4_">
							<g class="st8">
							</g>
						</mask>
						<radialGradient id="SVGID_5_" cx="386.4165" cy="488.5781" r="45.7543" gradientUnits="userSpaceOnUse">
							<stop  offset="0" style="stop-color:#FFFFFF"/>
							<stop  offset="0.1273" style="stop-color:#FBFBFB"/>
							<stop  offset="0.2531" style="stop-color:#EFEFEF"/>
							<stop  offset="0.3783" style="stop-color:#DBDBDB"/>
							<stop  offset="0.5032" style="stop-color:#BFBFBF"/>
							<stop  offset="0.6281" style="stop-color:#9B9B9B"/>
							<stop  offset="0.7528" style="stop-color:#6F6F6F"/>
							<stop  offset="0.8764" style="stop-color:#3C3C3C"/>
							<stop  offset="0.9982" style="stop-color:#010101"/>
							<stop  offset="1" style="stop-color:#000000"/>
						</radialGradient>
						<path class="st9" d="M403.7,516.2c3.5-2.5,8.3-2.5,12.5-2.3c2.7,0.1,5.5,0.5,8.2,0.3c4.9-7.3,7.8-16.1,7.8-25.6
							c0-25.3-20.5-45.8-45.8-45.8s-45.8,20.5-45.8,45.8c0,25.3,20.5,45.8,45.8,45.8c1.4,0,2.9-0.1,4.3-0.2
							C396.5,529.4,397.5,520.6,403.7,516.2z"/>
					</g>
				</mask>
				<radialGradient id="SVGID_6_" cx="386.4165" cy="488.5781" r="45.7543" gradientUnits="userSpaceOnUse">
					<stop  offset="0" style="stop-color:#F9697C"/>
					<stop  offset="0.1705" style="stop-color:#F96D7F"/>
					<stop  offset="0.339" style="stop-color:#FA7989"/>
					<stop  offset="0.5067" style="stop-color:#FB8D99"/>
					<stop  offset="0.674" style="stop-color:#FCA8B0"/>
					<stop  offset="0.8393" style="stop-color:#FDCCCD"/>
					<stop  offset="1" style="stop-color:#FFF6F0"/>
				</radialGradient>
				<path class="st10" d="M403.7,516.2c3.5-2.5,8.3-2.5,12.5-2.3c2.7,0.1,5.5,0.5,8.2,0.3c4.9-7.3,7.8-16.1,7.8-25.6
					c0-25.3-20.5-45.8-45.8-45.8s-45.8,20.5-45.8,45.8c0,25.3,20.5,45.8,45.8,45.8c1.4,0,2.9-0.1,4.3-0.2
					C396.5,529.4,397.5,520.6,403.7,516.2z"/>
				<path class="st11" d="M162.1,490.8c-0.4-0.5-1.1-0.6-1.6-0.2c-2.3,1.7-4.3,3.7-6.1,6c-0.4,0.5-0.3,1.2,0.2,1.6
					c0.5,0.3,1.2,0.3,1.6-0.2c0.4-0.5,0.8-1.1,1.3-1.6c0.2-0.2,0.4-0.5,0.7-0.7c0.1-0.1,0.2-0.2,0.4-0.4c0,0,0,0,0,0c0,0,0,0,0,0
					c0.1-0.1,0.1-0.1,0.2-0.2c1-0.9,2-1.8,3.1-2.6C162.4,492,162.5,491.3,162.1,490.8z"/>
				<path class="st11" d="M171.6,488.2c-0.4-0.5-1.1-0.6-1.6-0.2c-1.9,1.4-3.9,2.8-5.8,4.2c-0.5,0.3-0.6,1.1-0.2,1.6
					c0.4,0.5,1.1,0.6,1.6,0.2c1.9-1.4,3.9-2.8,5.8-4.2C171.9,489.4,172,488.7,171.6,488.2z"/>
				<path class="st11" d="M388.5,481.6c-0.5-0.3-1.2-0.3-1.6,0.2c-1.1,1.4-2.1,2.8-3.2,4.2c-0.3,0.5-0.3,1.2,0.2,1.6
					c0.5,0.3,1.2,0.3,1.6-0.2c1.1-1.4,2.1-2.8,3.2-4.2C389.1,482.7,389,482,388.5,481.6z"/>
				<path class="st11" d="M392.7,482.1c-0.5-0.3-1.2-0.3-1.6,0.2c-1.1,1.6-2.1,3.2-3.2,4.7c-0.3,0.5-0.3,1.2,0.2,1.6
					c0.5,0.3,1.2,0.3,1.6-0.2c1.1-1.6,2.1-3.2,3.2-4.7C393.3,483.2,393.3,482.5,392.7,482.1z"/>
				<path class="st12" d="M240.6,428.6c-2.4-15.2-12.9-29.8-28.9-32.1c-14.8-2.1-24.9,5.7-29.9,17.3c-8.5,14.6-6.6,37.9,2.9,51.3
					c8.9,12.6,27,16.5,40.4,8.6C239.6,465.1,243,443.8,240.6,428.6z"/>
				<path class="st12" d="M368,417c-5.3-20.4-25.9-30.7-42.3-24.7c-5.2,0.8-10.4,3.4-15.1,8.3c-16.2,16.9-9.7,52.6,11.4,62.7
					C350.8,477.1,374.8,443,368,417z"/>
				<path class="st13" d="M473.2,501.4c-8.7-11-18.9-20.6-27.1-32.2c-3.4-4.8-6.6-9.9-9.7-15.2c-0.2-5.7-2.1-12-4.4-17.9
					c3.3,0.9,7.7-1.8,6.7-6.2c-0.3-1.5-0.7-2.9-1.1-4.4c0.7-1.2,1-2.6,0.4-4c-5.7-13.6-9.9-27.8-15.9-41.3c-0.7-1.6-1.8-2.3-3.1-2.4
					c-8.4-20.2-21-39.5-31.8-58c-6-10.3-11.7-20.9-19.4-30c-8.1-9.6-17.9-17.7-27.8-25.4c-34.1-26.6-78.8-40.4-114-9.1
					c-6.3,3.6-12.2,7.9-17.9,12.7c-0.6,0-1.3,0.2-1.9,0.8C161,313.7,124,364,105.9,426.1c-0.7,2.5,1.3,5.1,3.9,5.1
					c1.3,0,2.5,0.6,3.7,1c-6.5,14.9-15.4,28.5-25.8,41.4c-10.6,13.1-18,31.8-18.6,48.7c-0.1,2,3.1,2.5,3.6,0.5
					c2.5-10.7,5-20.7,11.1-30.1c5.9-8.9,13.9-15.6,20.7-23.7c0.3-0.1,0.6-0.3,0.8-0.5c12-9.7,30.8-35.4,21.4-51.8
					c0.2-0.9-2.6-7.1-2.5-7.9c8.4-6.3,11.7-12.3,21-19.7c3.6-2.8,3.6-12-0.5-10.6c-0.5,0.2-0.9,0.4-1.4,0.6c5.6-8,11.4-16,16.3-24.4
					c4.3-7.5,8.4-15,12.6-22.5c0.8,0.1,1.6-0.2,2.2-1c5-7.2,10.7-17,17-23c8.4-7.9,17.7-9.3,14.7,8c-4.9,27.9-5.6,57,15.2,79.5
					c3.1,3.3,7.6-0.3,6.9-4c-3.6-21.9-0.3-47.3,2.8-69.1c1.5-10.4,4.4-18.9,7.4-28.9c2.3-3.9,3.4-9.7,5.8-13.6
					c3.8-6.2,13.4-14.2,16.7-2.2c3.1,11.1,2.3,23.2,4.2,34.6c0.2,1.4,1.4,2.2,2.7,2.3c0.1,1.9,0.2,3.8,0.4,5.8
					c1.2,12.4,2.9,24.8,5.5,37.1c2.4,11.3,5.3,23,11.5,33c3.7,6,6.7,7,11.7,6.5c0,0.2,0,0.3,0,0.5c0.2,5.1,7.6,6.3,9,1.2
					c1.3-4.5,19.4-9.9,22.9-10.6c14-2.9,25.5,2.3,33.3,13.9c1.1,1.7,2.7,2.3,4.2,2.2c0.7,1,1.5,1.9,2.5,2.9c1.8,1.9,5.8,1.7,7-0.9
					c3.8-8.5,6.8-17.1,8.4-26.3c0.7-3.8,1.2-7.6,1.4-11.5c0.1-1.4-0.1-3.1-0.3-4.8c6.1,6.4,11.9,13.1,17.8,19.6
					c-2.3,0.5-3.7,3-2.6,5.6c1.7,3.9,3.9,7.6,6.4,11.1c-2.8,0.2-5.4,3.5-3.5,6.2c3.6,4.9,6.4,10.1,8.7,15.6c1,5.6,2.2,11.1,4,16.6
					c3.6,10.9,8.8,21.5,15.6,30.8c7.2,9.9,17.2,16.1,25.6,24.6c10,10.2,16,22.2,23.8,33.9c1,1.4,3.5,1,3.4-0.9
					C484.1,517.2,478.8,508.4,473.2,501.4z"/>
				<path class="st14" d="M178.9,311.5c-14.2,26.5-32.2,49.7-51.2,72.8c-2.1,2.6-0.3,5.7,2.3,5.9c-2.8,2.6-5.7,5.1-8.5,7.9
					c-2.4,2.4,0,6.8,3.4,5.8c1.1-0.3,2.1-0.7,3.1-1.2c-1.4,1.9-2.8,3.8-4.2,5.7c-2.3,3.2-5,6.1-6.4,9.8c-0.8,2.2,2.1,3.3,3.6,2.1
					c0.9-0.7,1.6-1.5,2.3-2.4c-0.8,1.6-1.6,3.1-2.4,4.8c-0.6,1.4,0,2.7,1,3.4c0,0,0,0,0,0c-0.2,20.4-19.8,30.1-27.6,46.9
					c-1.2,2.5,2.1,5.7,4.2,3.2c12.2-14.5,29.5-29.6,28.5-50.1c0-0.9-0.5-1.6-1.1-2c1.3-2.6,2.5-5.2,3.8-7.8c1-2.1-1.1-4.1-2.8-3.6
					c0.4-0.6,0.8-1.2,1.1-1.8c2.3-3.6,4.4-7.2,6.5-10.9c0.3-0.6,0.3-1.1,0.2-1.5c4.5-3.6,8.2-8.2,11.4-12.8c2-3-0.1-5.8-2.8-6.4
					c17.9-18.7,31.2-41.7,40.6-65.6C185,310.7,180.3,308.8,178.9,311.5z"/>
				<path class="st14" d="M238.1,271.1c-14.7,37.2-25.4,82.3-18.8,122.5c0.5,2.8,4.2,1.7,4.5-0.6c2.6-20.8,2.7-41.6,6.1-62.4
					c3.2-19.5,7.7-39.1,13.4-58.1C244.4,269.2,239.4,268,238.1,271.1z"/>
				<path class="st14" d="M283.8,365.8c-1.4-9.9-2.9-19.8-4.2-29.7c-3-22-5.7-44.3-6.1-66.5c-0.1-4.7-6.9-4.6-7.2,0
					c-1.5,22.9-0.8,45.2,2.3,68c1.4,10.4,3.1,20.7,5.3,30.9c2,9.9,3.2,20.5,8,29.4c1.4,2.6,4.8,1.1,5.1-1.4
					C288.1,386.5,285.2,375.9,283.8,365.8z"/>
				<path class="st14" d="M318.2,284.8c-1.9-4-9-1.1-7.2,3.1c12.8,30.7,16.7,62.9,22.7,95.2c1,5.4,9,3.8,9.2-1.2
					C344.5,348.1,332.2,314.9,318.2,284.8z"/>
				<path class="st14" d="M348.3,350.3c-0.8-3-5.7-2.5-5.5,0.7c0.6,10.1,1.2,20.2,2.4,30.2c0.6,4.9,7.9,5.2,7.8,0
					C352.9,370.7,351.1,360.3,348.3,350.3z"/>
				<path class="st14" d="M377.8,341.8c-3.6-15.3-9.2-30.9-19.7-42.9c-3.1-3.5-8,1.6-5.1,5.1c9.9,12.2,13,29.5,15.5,44.7
					c2.5,15.4,0.6,31.8,4.2,46.8c0.9,3.7,5.7,3,6.8,0C385.8,379.4,381.6,358,377.8,341.8z"/>
				<path class="st14" d="M426.5,389.2c-4.9-5.8-11.8-9.9-17.5-14.9c-5.8-5-11.3-10.4-16.5-16.1c-3.7-4-9.4,1.9-5.9,5.9
					c9.8,11.1,22.3,25.6,36.6,30.7C426.7,396.1,428.5,391.5,426.5,389.2z"/>
				<path class="st14" d="M425.7,405.6c-1.4-3.6-4.1-5.4-7.1-7.8c-2.9-2.3-5.5-4.8-8.1-7.4c-3.9-4.2-9.8,1.9-6.2,6.2
					c2.5,2.9,5.1,5.8,8.1,8.3c2.9,2.5,6.1,5.1,10.1,5C424.4,409.8,426.5,407.7,425.7,405.6z"/>
				<path class="st14" d="M424.9,426.7c-1.8-7.5-4.8-14.2-12-18c-4.8-2.5-9,4.5-4.3,7.3c6.6,4,6.9,16.6,8.5,23.3
					c1.7,7.1,3.2,14.2,7.8,20c1,1.2,3.1,0.5,3.4-0.9C430.8,448.5,427.3,436.5,424.9,426.7z"/>
				<path class="st14" d="M310.4,379.6c-0.9-6-1.9-11.9-2.8-17.9c-0.6-3.8-7.3-2.9-6.8,0.9c0.8,6,1.5,12,2.3,17.9
					c0.6,5,0.8,10.1,3,14.7c1.1,2.2,5,1.8,5.4-0.7C312.5,389.6,311.2,384.6,310.4,379.6z"/>
				<path class="st14" d="M318.1,382.5c-0.5-2-1-3.9-1.5-5.9c-0.4-1.7-2.3-2.7-4-2.3c-1.7,0.5-2.7,2.3-2.3,4c0.5,2,1,3.9,1.5,5.9
					c0.4,1.7,2.3,2.7,4,2.3C317.5,386,318.5,384.2,318.1,382.5z"/>
				<path class="st15" d="M223.2,274.2c-12.8,36.2-26,76.2-8,113.1c0.5,0.9,2.1,0.3,1.7-0.7c-13.7-37.3-2.7-75.4,8.9-111.6
					C226.3,273.3,223.8,272.6,223.2,274.2z"/>
				<path class="st15" d="M288.6,334.1c-3.7-24.9-6-50.1-7.6-75.3c-0.1-2.1-3.2-2.1-3.2,0c0,23.6,1.8,46.9,5.1,70.3
					c3.4,24.1,7,49.6,15.9,72.3c0.4,1,2.2,1,2-0.3C297.9,378.7,291.9,356.6,288.6,334.1z"/>
				<path class="st15" d="M344.7,283.6c-0.9-1.7-3.3-0.2-2.5,1.5c8.2,17.1,14.7,35.2,19,53.7c4.3,18.7,5,37.5,7.1,56.5
					c0.1,1.1,1.9,1.5,2,0.3C375.5,357.8,362.4,316.5,344.7,283.6z"/>
				<path class="st15" d="M286.8,296.4c-0.2-1.3-2.1-0.7-1.9,0.5c0.6,4.5,1.2,9.1,1.9,13.6c0.2,1.3,2.1,0.7,1.9-0.5
					C288,305.5,287.4,301,286.8,296.4z"/>
				<path class="st15" d="M292.8,303c-0.6-2.7-4.8-1.5-4.1,1.1c0.7,2.7,1.3,5.3,2.2,8c0.8,2.3,3.8,1.3,3.5-1
					C294,308.3,293.4,305.7,292.8,303z"/>
				<path class="st15" d="M346.7,298.4c-0.3-0.8-1.6-0.5-1.3,0.4c1.3,3.9,2.5,7.8,3.8,11.8c0.2,0.7,1.3,0.4,1.1-0.3
					C349.1,306.2,347.9,302.3,346.7,298.4z"/>
				<path class="st15" d="M340.9,299.5c-0.2-0.5-1-0.1-0.9,0.4c1.3,3.9,2.5,7.7,4.3,11.4c0.3,0.6,1.3,0.2,1.1-0.5
					C344.3,306.8,342.6,303.2,340.9,299.5z"/>
				<path class="st15" d="M189.5,291.5c-1.8,3.8-4,7.4-6.6,10.7c-0.9,1.2,1.1,2.7,2,1.6c2.9-3.2,5.3-6.8,7.3-10.7
					C193.3,291.3,190.4,289.6,189.5,291.5z"/>
				<path class="st15" d="M197,289.4c-1.7,2.8-3.3,5.5-4.8,8.4c-0.8,1.6,1.6,2.9,2.3,1.4c1.5-3,2.7-6.1,4-9.2
					C198.8,289.1,197.4,288.6,197,289.4z"/>
				<path class="st15" d="M220.7,293.7c-0.9,3.7-1.6,7.3-2.1,11.1c-0.2,1.7,2.4,1.8,2.9,0.4c1.2-3.4,2.1-6.9,2.9-10.4
					C225,292.3,221.3,291.3,220.7,293.7z"/>
				<path class="st16" d="M495.3,314.3c17.2-15.4,29.2-41.5,27.7-63.3c-1.7-23.8-16.7-52.1-38.7-63.1c6.9-9.2,6.7-25.3,6.6-35.5
					c-0.3-19.4-3.2-35.1-15.1-50.8c-9.6-12.7-20.4-24.1-35.3-30.5c-14.5-6.2-32.5-12.6-48-6.6c-0.1,0-0.2,0.1-0.2,0.1
					c-12.7-20.6-34.2-40.5-57-48.9c-25.7-9.4-54.4-16.3-81.7-12.9c-24.7,3.1-47.6,13.8-67.2,28.9c-10.4,8-20.2,16.6-29.1,26.2
					c-9,9.8-18.1,17.5-28.5,25.7c-41.9,7.8-79.3,28.3-98.6,67.9c-16,32.8-17,77.7,5.3,108c-20.6,17.1-35,40.8-31.7,68.6
					c2.7,22.3,19.2,44.8,42.2,48c-9.8,7.1-15.1,18.9-10.4,31.3c2.6,6.9,8.2,12.8,14.4,16.5c5.5,3.3,11.4,4.2,17.3,5.1
					c3.6,1.7,6.3,5.5,10.6,5c2.2-0.2,4.1-1.9,6-2.8c6.9-3.3,12.3-4.7,20-3.3c1.1,0.2,2.6-0.1,3.1-1.3c10.8-24.8,19.2-51.3,33.5-74.4
					c7.5-12,15.1-24.1,23.7-35.4c8.5-11.2,18.4-21.5,26.1-33.3c0.1-0.1,0.2-0.3,0.2-0.4c12.5-10.1,24-21.4,37.5-30.2
					c8.4-5.4,17.3-10,26.9-13.1c11.8-3.8,21.1-2.5,32.5,1.6c2,0.7,3.6-0.1,4.5-1.5c21.2,7.4,41.5,18.5,58.1,33.6
					c6.7,6.1,13.6,11.9,19.9,18.4c7.9,10.1,15.2,20.8,22,31.5c5.7,8.9,10.6,19.3,16.9,28.3c13.4,23.4,23.1,49.8,30.5,75.4
					c0.5,1.6,2,2.2,3.5,2c0.6-0.1,1.3-0.1,1.9-0.2c0.4,0.2,0.8,0.3,1.3,0.4c2.1,0.1,4.2,0.2,6.3,0.5c1.3,0.2,2.5-1.1,2.9-2.2
					c0.6-1.9,1.2-3.8,1.8-5.7c1.8-0.3,9.2,1.6,10.9,1.4c3.3-0.4,6.3-1.6,9.3-2.9c7.4-3.3,14.8-8.1,19.4-14.9c7-10.3,8-26.8-1.1-36
					c14.1-2.3,22.8-18.2,19.6-32.1C513.8,331.5,504.2,318,495.3,314.3z"/>
				<path class="st16" d="M200.9,706.1c-0.4-1.7-2.6-3.1-4.3-2.4c-0.3,0.1-0.6,0.2-0.9,0.3c0.2-0.2,0.4-0.4,0.6-0.6
					c0.5-0.7,0.2-1.4-0.5-1.7v-0.1c-0.6-0.2-1-0.3-1.5-0.3c-1.2-0.3-2.3-0.9-3.2-1.7c-0.1-0.5-0.2-0.9-0.4-1.4
					c-3.4-6.3-4-13-4.2-19.8c0.4-1.2,0.7-2.5,0.7-3.8c0-1.7-0.4-3-0.8-4.2c0-2.4-0.1-4.8-0.3-7.2c0.6-0.8,1-1.8,0.8-2.8
					c-1.6-7.5-4.9-14.4-7.3-21.6c-0.5-1.6-1.8-2.5-3.1-2.7c0.6-2.2-2.5-3.9-3.8-1.7c-8.3,14-15.7,32.8-6.2,47.6
					c4.3,6.7,9,21,17.4,24.8c-0.9,0.3-1.6,1-1.7,2.2c-0.3,3.3-1.6,7.8,1.5,10.1c2.9,2.1,7,4.3,10.6,4.6c1.2,0.1,2.1-0.9,2.5-1.9
					c0.2-0.6,0.9-3.5,2-3c1.8,0.7,3.6-1.1,3.6-2.8C202.3,712.6,201.8,709.4,200.9,706.1z"/>
				<path class="st16" d="M424.6,574.9c-0.3-2.2-3.3-2-4.3-0.6c-0.8,1.1-2.7,2.2-4,2.1c-1.2-0.1-0.1,1.3-1.4-1.7
					c-1.2-2.7-2.6-5.1-3.5-7.8c-1.2-11.3-0.5-22.7,2.3-33.9c0.5-2-1.4-4.5-3.7-3.7c-4.9,1.9-10,3.9-14.2,7.2c-2.9,2.3-5,6.5-7.8,9.2
					c-1.1-0.8-2.5-1.2-4-0.5c-31.5,13.7-61.8,28-95.2,36.4c-1.6-0.9-3.6-0.7-4.7,1.4c-0.9,1.7-4.6,9.1-6.4,9.3
					c-0.5,0.1-5.6-5.1-6.2-5.6c-3.3-2.5-6.2-4.6-10.3-5.7c-9.2-2.4-22.4-3.8-31.7-2.3c-7.2,1.2-21.5,6.7-25.4,13.4
					c-1.2,2.2-0.8,3.9-0.6,6.3c0.3,3.7,2.2,8.3,1.5,12c-0.9,4.9-6.2,10.1-10.9,11.9c-2.2-2.6-6.4,0.3-4.9,3.6
					c4.1,9.6,7.4,19.6,11.4,29.3c1.3,3.1,5.1,3.2,6.8,1.4c0.6,0.5,1,1.2,1.3,1.7c0.4,0.7,0.7,1.6,1.1,2.3c-1.3,1.5-0.5,4.6,1.8,4.3
					c1.5-0.2,3.1-0.3,4.6-0.1c7.8,5.5,1.9,15.3,5.2,23.6c1.2,3.2,3.5,5.8,5.1,8.8c1.9,3.6,2.6,7.5,4.4,11.1c-1.2,1.4-0.6,5.1,2,4.7
					c17.6-2.7,35.3-3.5,52.9-3.2c18.6,0.3,36.1,0,54.4,3.3c-0.2,0.9,0.9,5.7,0.6,6.5c-0.3,0.9,0.3,2.2,1.3,2.3
					c12.5,2,8.8-23.1,8.8-29.6c0-16.9-1.3-34.6-7.1-50.6c0.6-0.4-1-2.5-0.2-3.1c7.9-6.3,21.9-16.7,31.6-23.7
					c7.8-5.7,15.3-11.2,21.9-18.2C410.1,601,426.6,588.9,424.6,574.9z"/>
				<path class="st12" d="M314.6,486.2c-2.1-10.3-6.2-20.2-13.6-24.4c-5.9-3.3-14.2-0.7-20.3,0.3c-12.5,2.1-24.4,5.6-36.3,9.7
					c-3.7,1.3-3.1,5.9-0.2,6.9c-6.6,10.4-2.9,29.6,1.3,39.2c5.9,13.6,19.5,23.8,34.6,20.6c3.5,0,7-0.3,10.3-0.8
					c15-2.1,25.6-12,28.2-27.1C320.2,501.4,318.2,493.6,314.6,486.2z"/>
				<path class="st17" d="M338.3,713.8c-7-4.2-20.3-4.1-28.5-4.6c-12.8-0.8-25.7-0.4-38.4,0.1c-11.7,0.4-25.3-0.4-36.7,2.4
					c-1.8,0.5-2.9,0.9-4.3,1.9c-1.7,1.3-2.4,4.5-4,6c-7,6.7-17.3,4-22.3-3.1c-0.5-0.7-1.1-1-1.7-1.2c-1.2-1-3.7-0.8-4,1.1
					c-3.1,16.8-3,35.9,11,48c10.7,9.3,27,8.3,38.4,0.5c-0.1,0.3-0.3,0.7-0.6,1.1c0.2,2.7-2.3,7-3.2,9.7c-2.1,6.5-4.4,12.9-6.3,19.4
					c-1.5,5.1-5.2,14.3,0.9,17.4c8.3,4.3,14.3,1.1,21-2.8c8.2-4.8,17.4-6.1,25.6-0.4c5.6,3.9,7,10.3,12.3,14.4
					c1.8,1.4,4.6,0.5,5.2-1.3c1.3,0.1,2.7-0.4,3.4-1.7c11.2-19.9,14.9-42,22.4-63.3C331.1,749.8,349.5,720.6,338.3,713.8z"/>
				<path class="st18" d="M489,369.5c-0.1-6.6-1.4-13.1-4-19.2c-2.7-6.3-10.8-13.7-8.2-20.6c2.3-6,5.5-9.1,4.7-16.2
					c-0.9-7.2-5.1-13.4-9.1-19.2c-6.3-9-9.7-15.2-5.3-25.8c2.2-5.4,3.4-10.7,0.9-16.2c-6-13.2-25.8-15.2-29.9-29.3
					c-2.4-8.3,1.7-17.9,2.9-26.1c1.1-7.4,0.9-14.3-1.8-21.3c-4.4-11.5-14-20.3-25.8-23.7c-6.8-1.9-14-2.1-20.9-3
					c-10.8-1.4-17.5-5.6-23.2-14.9c-15-24.7-42.1-27.7-67.7-17c-8,3.3-15.5,8.2-24,10.2c-11.5,2.7-17.9-4-27.8-7.6
					c-13-4.6-27.3-0.9-38.7,6c-6.3,3.8-11.3,8.8-16.7,13.7c-9.4,8.6-17.3,9.1-29.5,7.7c-12.9-1.4-23.6,1.8-28.9,14.6
					c-6.8,16.4,0.5,40.2-22,46.2c-6.7,1.8-13.9-0.6-20.2,3.2c-4.3,2.5-7.2,7.2-8.6,11.9c-2.3,7.6-0.5,15.2,0.7,22.9
					c2.3,14.5-1.3,22.4-12.6,31.2c-13.4,10.4-0.5,24.4,2.9,36.7c1.7,6.2,1.7,12.1-3.3,16.9c-2.1,2-5.1,2.3-6.8,5
					c-3.2,5,0,9.9,2.4,14.4c6.6,11.9,5.5,23.5-0.4,35.6c-5.4,11-16.5,23.4-30,16c-3.1-1.7-6.8,2.6-3.9,5.1c0.3,0.3,0.7,0.5,1,0.8
					c-0.7,1.4-0.6,3.1,0.8,4.2c8.3,6.7,17.1,12.4,27.2,16.2c6.8,2.6,18.4,7.6,25.5,2.9c5.7-3.8,4.7-11,4.7-16.9
					c0.1-15-2-31.5,0.5-46.2c8.5-50.7,24.5-102.9,60-140.9c32.2-34.5,71.3-57.6,119.1-57.5c24.1,0.1,60.8,10.1,81.7,22.4
					c21.9,12.9,40.3,33.5,55.5,53.6c9.7,13,13.5,26.7,18.2,41.9c4.2,13.3,11.9,24.3,18.2,36.6c14.6,28.3,14.6,60.7,15.7,91.7
					c0.2,5.1,8.2,6.7,9.3,1.3c0.9-4.3,1.8-8.6,2.7-12.9c0.5-0.2,1-0.4,1.4-0.8C484.8,394.3,489.1,382.3,489,369.5z"/>
				<path class="st18" d="M417.7,577c-2.8,4.6-6.9,8.1-12.4,8.4c-5.9,0.3-11.6-3.8-12.1-10c-0.3-3.6-5.2-3.5-5.5,0
					c-0.5,4.8,0.9,9.1,3.6,12.3c-0.4,0.3-0.7,0.8-0.7,1.3l-0.3-0.4c-1.1-1.7-3.3-2-4.8-0.6c-12.6,11.6-36.6,30.9-54.1,19.5
					c-2.2-1.5-4.1,1.6-2.7,3.4c1.6,2,3.3,3.5,5.2,4.6c-0.9,1.6-0.8,3.8,0.5,5.4c3.7,4.4,5.6,7.9,7.3,13.4c0.9,2.7,4.1,3.5,6.1,1.6
					c14.4-13.4,29.8-25.5,45.8-36.8c1.6-1.1,2.1-3,1.2-4.6c3.9,2.1,9.4,2.1,13.4,0.9c7.6-2.1,12.1-8.1,15.3-15
					C425.4,576.5,420,573.2,417.7,577z"/>
				<path class="st18" d="M310.7,581.6c-8.1,11.9-19.2,20.1-34.2,20.3c-13.6,0.2-30-8-35.4-21.2c-1.2-3-5.8-2-5,1.4
					c9.3,39.2,65.5,35.9,79.4,1.5C316.6,580.7,312.3,579.3,310.7,581.6z"/>
				<path class="st18" d="M200.5,621.6c-4.6,5.2-6,10.6-6.3,17.4c-0.1,3.3,4.9,4,5.7,0.8c1.2-5,1.7-10.9,4-15.5
					C205,622.2,202.2,619.7,200.5,621.6z"/>
				<path class="st18" d="M199.7,706c-0.4-0.8-1.2-1.3-2-1.5c-0.7-0.9-1.8-1.4-2.9-1.5c-1.2-3.1-3.8-5.2-5.6-8.3
					c-3.2-5.6-3.6-12.5-1.1-18.3c1.4-3.3-2.8-6-5-2.9c-4.5,6.8-6.3,14.7-3.7,22.6c1.5,4.4,4.8,10.2,9.4,11.8
					c-0.1,0.1-0.1,0.1-0.2,0.2c-1.2,1.4-2.6,2.8-3.5,4.4c-2.1,3.8,0.8,7.9,5,7.8c1.8,0,3.3-0.9,4.6-2c0.2-0.2,0.4-0.4,0.6-0.5
					c0.5,0,2.1-0.3,2.4-0.5c2.1-1.2,2.7-3.2,2.7-5.2C200.6,710,200.6,707.9,199.7,706z"/>
				<path class="st18" d="M348.7,718.1c-0.4-1.4-1.7-2.3-3.1-2.3c-1.3,0-2.7,0.9-2.9,2.2c-0.1,0.5-0.1,0.9,0.1,1.4c0,0,0,0-0.1,0.1
					c-0.3,0.7-0.3,0.8-0.1,0.2c-0.3,0.8-0.5,1.9,0.3,2.6c0.4,0.3,0.7,0.6,1.2,0.7c0.5,0.1,1.1,0.1,1.6-0.1c0.7-0.2,1.4-0.6,1.9-1.1
					C348.7,720.9,349.1,719.4,348.7,718.1z"/>
				<path class="st16" d="M245.2,768.4c-4.7,0.3-9.1,1.7-13.9,1.7c-4.9,0-9.6-1.3-14.4-1.9c-0.8-0.8-1.6-1.7-2.5-2.7
					c-2.4-3-7.1,0.8-5.2,4c4.2,7.3,9,11.9,17.8,12.4c7.6,0.4,17.7-0.4,21.3-8.2C249.3,771.5,248.1,768.3,245.2,768.4z"/>
				<path class="st16" d="M283.5,809.2c-7.3-2.6-14.8-1.8-21.6,1.1c-6.6,2.1-13.1,5.2-19.5,4.5c-0.4-0.9-1.3-1.5-2.3-1.1
					c-1.8,0.6-2.9,1.5-3.6,2.5c-1.2,0.6-2,1.9-1.6,3.7c2.7,13.6,13.6,17.6,26.3,17.2c7.1-0.2,26.6,0.3,34-6c0.1-0.1,0.3-0.2,0.4-0.4
					c0.7-0.7,1.3-1.4,1.7-2.2C301.4,820.4,290,811.5,283.5,809.2z"/>
				<path class="st19" d="M265,601.5c-13.7,6.4-26,17-27.6,32.7c-2.1,21.9,0,52.6,2.6,74.3c0.5,4.3,8.3,2.6,8-1.9
					c-1.3-16.7-2.3-40.3-1.9-57.1c0.2-8.9-1.2-20.3,4.5-27.9c4.5-6,12.4-10.4,18-15.5C271.3,603.7,267.9,600.1,265,601.5z"/>
				<path class="st20" d="M205.1,595.8c-1.6-10.7-5.4-34.9-19-37.4c-8.7-1.6-18.7,3.6-26.7,6.2c-8.9,2.8-18.1,5-25.9,10.3
					c-1.2,0.8-1.6,1.9-1.6,2.9c-0.1,0.3-0.1,0.6-0.1,1c-0.1,15.4,4.1,36.2,16.3,47c5.8,5.1,11.7,5.6,19.1,6.2
					c4.6-1.4,8.1,0.5,10.5,5.6c0.9,2.5,1.9,5.1,2.8,7.6c1.9,5.1,3.8,10.1,5.5,15.2c0.6,1.8,2.6,3.4,4.6,2.6c4.2-1.6,8.2,0,9.2-6
					c1.1-6.7-6-16.6-8-22.5c-2.6-7.5-2.9-7.8,3.9-14.5c1.9-1.8,4-3.1,5.7-5.2C205.8,609.3,206.2,602.6,205.1,595.8z"/>
				<path class="st21" d="M189.6,560.4c-10.6-5.6-22.3-1.3-33.1,2.3c-10.6,3.5-19.7,8.9-26.4,17.9c-1.5,2,1.9,4.6,3.4,2.7
					c6.5-8,14.7-12.4,24.4-15.3c8.9-2.6,21-6.8,30-3.8C190.2,564.9,191.6,561.5,189.6,560.4z"/>
				<path class="st22" d="M194,581.1c0.6-5.8-4.4-11.8-11.1-11.9c-11.7-0.2-29.4,6.6-38.3,14.2c-5,4.3-4.8,12.7-0.8,17.3
					c2.6,6.1,3.8,12.7,11.2,14.9c8.5,2.5,19.3-0.4,27.1-3.9c6.4-2.9,12.5-7.4,13.5-14.8C196.3,592.2,195.7,586.3,194,581.1z"/>
				<path class="st23" d="M210.3,665c-0.2-0.9-0.4-1.7-0.7-2.6c-0.1-0.5-0.4-0.9-0.7-1.3c-0.7-1.7-2.6-2.7-4.5-2.3
					c-5.2,1.1-10,3.2-15.3,3.6c-4.6,0.3-5.4,6.2-2.3,8.1c-0.1,1.2,0.4,2.5,1.7,3.5c6.3,4.6,13.8,2.2,17.9-3.2c1.7,0.7,4-0.6,4.1-2.7
					C210.5,667,210.5,666.1,210.3,665z"/>
				<path class="st23" d="M229,711.1c0.3-4.7-2.7-10-4.7-14.1c-0.2-0.5-0.6-0.9-0.9-1.2c-0.7-1.5-1.3-2.9-1.9-4.1
					c-1.2-2.3-5.3-2.5-6.3,0c-2,4.6-10.5,6.2-14.6,8.2c-2.6,1.3-1.5,6,1.5,5.6c0.1,0,0.2,0,0.3,0c0.3,5.3,1.8,10.6,5,14.9
					c3.5,4.6,8.5,4.7,13.6,2.6c4.5-1.8,6.4-5.2,6.7-9.3C228.4,713.2,228.9,712.3,229,711.1z"/>
				<path class="st24" d="M193.6,666.1c-0.8-1.9-2.6-3.2-4.8-2.3c-2.1,0.9-2.6,3.1-1.7,5c0.9,1.9,1.5,4.1,3,5.6
					c1.9,1.9,5.4,0.5,5.3-2.2C195.5,670,194.4,668,193.6,666.1z"/>
				<path class="st24" d="M221.1,717.7c-1.6-0.8-2.8-1.3-4.6-1.3c-0.1,0-0.1,0-0.2,0c-2.8-3.6-5.3-6.9-6.8-11.3
					c0-0.1-0.1-0.3-0.2-0.4c-0.1-0.3-0.2-0.6-0.2-0.8c-0.3-2.3-3.3-2.8-4.2-1.2c-1.7,0.5-3,2.1-2.4,4.3c0.9,3.5,2.2,7.2,4.2,10.5
					c0.4,1.1,0.9,2.2,1.5,3.2c3,4.9,9.9,4.9,13.4,0.6C222.5,720.2,222.6,718.4,221.1,717.7z"/>
				<path class="st25" d="M263.6,734.4c0-1.5-1.9-2.2-2.9-1.5c-1.2-2.2-5-2.5-6.1,0.6c-3.3,9.2-8.5,19.1-17.6,23.7
					c-9,4.6-20.1,1.8-29.8,2.1c-2.2,0.1-2.6,3.1-0.5,3.8c7.4,2.5,15,4.8,22.4,4.5c8.9,3.3,21.2-1,22.4-11.4c1.7-2.1,3.2-4.4,4.5-6.9
					c-2.2,7.2-4.8,14.3-6.8,21.4c-1.3,0.2-2.6,1-3.1,2.4c-4.1,10.9-6.1,22.6-9.6,33.7c-1,3.2,2.1,5.2,4.8,4.8c2.9-0.4,5.9-0.8,8.9-1
					c2.2-0.1,3.9-2.1,3.3-4.3C247,781.8,263.5,759,263.6,734.4z"/>
				<path class="st26" d="M339.3,715.7c-3.2-0.9-6.4-1.9-9.6-2.9c-1.7-0.6-3.1,0.5-3.7,1.9c-5.2-3-11.4-3.7-17.4-4.2
					c-25.8-2-52.4-1.3-77.9,2.5c-3.1,0.5-2.4,5.8,0.7,5.5c17.1-1.7,34.2-3.1,51.4-3.1c15.8,0.1,53.2-3,48.3,23.3
					c-0.5,2.5,3.3,4.6,4.5,1.9c2.5-5.7,4.4-12.5,3.1-18.1C342,722.3,343.1,716.8,339.3,715.7z"/>
				<g>
					<g>
						<g>
							<path class="st27" d="M170.7,673.8c-2.1,4.4-3.4,9.3-2.9,14.2c0.4,3.9,1.8,7.6,3.9,10.9c3.6,5.4,9.6,10.4,16.4,10.6
								c4.9,0.2,9.3-2,12.8-5.3c0.9-0.8,1.2-2.1,0.4-3.1c-0.7-0.9-2.2-1.3-3.1-0.4c-2.5,2.4-5.5,4.3-9,4.4c-2.6,0.1-5.3-0.9-7.4-2.3
								c-4.7-3.1-8.3-8-9.3-13.6c-0.8-4.7,0.3-9.3,2.4-13.5C176,673,171.9,671.2,170.7,673.8L170.7,673.8z"/>
							<path class="st27" d="M312.2,580.8c12.5-7.5,26.1-13.3,39.5-19c12.6-5.4,25.3-10.8,38.2-15.3c2.7-0.9,1-5.1-1.7-4.1
								c-21.6,7.6-42.9,16.7-63.5,26.8c-5.2,2.5-10.3,5.2-15.2,8.1C307,578.7,309.7,582.3,312.2,580.8L312.2,580.8z"/>
							<path class="st27" d="M416.1,581.8c3.8-3.6,7.3-7.5,10.8-11.4c4.3-4.7,8.6-9.4,12.9-14.1c1-1,1.9-2.1,2.9-3.1
								c0.4-0.4,0.8-0.9,1.2-1.3c0.2-0.2,0.3-0.3,0.5-0.5c0.1-0.1,0.6-0.6,0.2-0.2c0.9-0.8,1.2-2.1,0.4-3.1
								c-0.6-0.9-2.3-1.3-3.1-0.4c-8.2,8-15.6,17-23.5,25.4c-1,1.1-2,2.1-3,3.2c-0.4,0.4-0.9,0.9-1.3,1.3c-0.4,0.4-0.3,0.3-0.8,0.8
								c-0.9,0.8-1.2,2.1-0.4,3.1C413.7,582.3,415.3,582.6,416.1,581.8L416.1,581.8z"/>
							<path class="st27" d="M343.9,641.2c18.9-13.2,36.9-27.5,54.1-42.8c2.1-1.9-0.5-5.5-2.7-3.6c-17.2,15.3-35.3,29.6-54.1,42.8
								C338.9,639.3,341.6,642.8,343.9,641.2L343.9,641.2z"/>
							<path class="st27" d="M410.1,534.5c-0.4,8-0.5,16-0.3,24c0.1,4.1,0.3,8.1,0.5,12.2c0.2,3.1,0.3,6.3,1.1,9.4
								c1.2,4.3,4.3,9.3,9.5,8.4c5.6-1,5.9-9,5.2-13.3c-0.5-2.8-4.9-2.3-4.4,0.6c0.4,2,0.3,11.5-3.9,7.4c-2.9-2.9-2.7-8.3-3-12
								c-0.8-12-0.9-24-0.3-36C414.6,532.3,410.2,531.7,410.1,534.5L410.1,534.5z"/>
							<path class="st27" d="M388.6,542.9c-2.2,8.3-3.4,16.8-3.5,25.4c-0.1,8.1,0.8,17.2,4.9,24.3c4,7,13.3,7.3,20.3,5.4
								c6.9-1.8,12.4-6.6,14.6-13.4c0.9-2.7-3.2-4.5-4.1-1.8c-1.9,6-6.6,9.9-12.7,11.2c-3.2,0.7-7,0.9-10.2-0.1
								c-3.6-1.2-5-4.9-6.1-8.2c-4.4-13.4-2.3-28.8,1.1-42.2C393.7,540.8,389.3,540.2,388.6,542.9L388.6,542.9z"/>
							<path class="st27" d="M295.6,823c9.6,9,17.8-11.8,20.3-18c6.9-17.5,13.3-35.4,18.7-53.4c3.5-11.7,6.5-23.5,8.7-35.5
								c0.5-2.8-3.9-3.4-4.4-0.6c-3.5,19.2-9.1,37.9-15.6,56.3c-3.2,9.1-6.6,18.1-9.9,27.1c-1.6,4.4-3.3,8.9-5.5,13.1
								c-1.5,2.8-5.5,11.2-9.5,7.4C296.3,817.5,293.5,821.1,295.6,823L295.6,823z"/>
							<path class="st27" d="M258.5,732.5c-4.8,18.4-12.1,36.3-19.4,53.8c-1.8,4.3-3.5,8.6-4.7,13.1c-0.6,2.4-1.1,4.9-1.4,7.4
								c-0.2,1.8-0.6,4.1,0.1,5.8c1,2.6,3.9,3.2,6.4,3.4c4,0.3,8-0.2,12-0.1c2.8,0.1,3.5-4.3,0.6-4.4c-3.6-0.1-7.1,0.2-10.7,0.2
								c-1,0-3.2,0.2-4-0.6c-0.5-0.5,0-3.5,0.1-4.7c1.1-9,5.3-17.3,8.7-25.6c6.3-15.6,12.5-31.4,16.7-47.7
								C263.7,730.3,259.2,729.7,258.5,732.5L258.5,732.5z"/>
							<path class="st27" d="M196.2,717.6c-0.8,11-1.4,22.3,1.8,33c1.6,5.4,4.4,10.5,8.6,14.3c4.9,4.5,11.5,6.5,18,7.2
								c8.3,0.8,16.9,0,24.8-2.7c2.7-0.9,1-5.1-1.7-4.1c-6.4,2.2-13.5,3-20.2,2.6c-6.1-0.3-12.2-1.6-17.1-5.5
								c-8.2-6.6-10.1-18.1-10.5-28.1c-0.2-5.4,0.2-10.7,0.6-16.1C200.8,715.4,196.4,714.7,196.2,717.6L196.2,717.6z"/>
							<path class="st27" d="M208.1,767.8c1,8,7.2,16.2,15.6,17.4c3.8,0.5,7.9,0,11.6-0.9c3.6-0.9,7.1-2.1,10.2-4.1
								c2.4-1.6-0.3-5.1-2.7-3.6c-2.4,1.6-5.3,2.6-8.1,3.3c-3.1,0.8-6.4,1.3-9.7,1c-6.8-0.6-11.8-7.2-12.6-13.6
								C212.2,764.4,207.8,764.9,208.1,767.8L208.1,767.8z"/>
							<path class="st27" d="M247.8,819.4c7.9-3.2,14.8-9.6,23.5-10.5c7.4-0.7,15.2,2.6,19.8,8.4c2.3,2.8,5.5,8,2.9,11.5
								c-2.1,2.9-6.6,3.5-9.9,3.9c-10.1,1.2-20.6,1-30.7-0.2c-4.9-0.6-10-2-13.7-5.6c-1.6-1.6-3-3.8-3.2-6c-0.2-2.5,1.3-4.1,3.2-5.4
								c2.3-1.7-0.4-5.3-2.7-3.6c-3.7,2.7-5.8,6.6-4.6,11.2c1.3,4.7,4.8,8.3,9,10.6c5.1,2.8,11,3.4,16.7,3.7
								c6.7,0.4,13.4,0.7,20,0.3c8.3-0.4,23.3-2,20.9-14c-1.9-9.5-11-16.5-19.9-18.6c-5.2-1.2-10.6-0.7-15.5,1.2
								c-6.2,2.4-11.5,6.6-17.7,9C243.5,816.3,245.2,820.5,247.8,819.4L247.8,819.4z"/>
							<path class="st27" d="M393.4,544.2c1.8-3.5,5.1-6.1,8.5-7.9c1.9-1,3.9-1.8,6-2.4c1-0.3,2.1-0.5,3-1c0.8-0.4,1.6-1.2,2.6-1.3
								c-0.8-0.6-1.7-1.3-2.5-1.9c0.1,0.9,0.1,1.8-0.1,2.7c1.5,0.2,2.9,0.4,4.4,0.6c0.1-0.6,0.1-1.1,0.2-1.7
								c0.3-2.8-4.1-3.5-4.4-0.6c-0.1,0.6-0.1,1.1-0.2,1.7c-0.3,2.9,3.8,3.4,4.4,0.6c0.3-1.3,0.3-2.6,0.1-3.9
								c-0.2-1.2-1.3-2.1-2.5-1.9c-1.3,0.2-2.4,0.8-3.5,1.5c-0.9,0.6-2,0.8-3,1.1c-2.3,0.7-4.6,1.6-6.7,2.8c-4.3,2.4-8,5.6-10.3,10
								C388,545,392.1,546.7,393.4,544.2L393.4,544.2z"/>
							<path class="st27" d="M426.8,520.4c-2.3,1.3-4.5,2.6-6.8,4c-2.2,1.4-4.4,2.9-6.6,4.3c-1,0.6-1.2,2.2-0.4,3.1
								c0.8,1,2.1,1.1,3.1,0.4c2.2-1.4,4.4-2.9,6.6-4.3c2.2-1.4,4.5-2.7,6.8-4c1-0.6,1.1-2.3,0.4-3.1
								C429.1,519.9,427.9,519.8,426.8,520.4L426.8,520.4z"/>
							<path class="st27" d="M430.8,523c1.7-2.5,3.7-4.9,6.2-6.7c1.2-0.9,2.5-1.5,3.9-2c0.2-0.1,0.4-0.1,0.6-0.2
								c0.3-0.1,0.5,0,0.6,0c0.4,0,0.8,0.2,1.2,0.4c1.8,1.1,3.1,3.4,4,5.1c1.2,2.2,3,5.6,1,7.9c-1.9,2.1-5,1.2-6-1.3
								c-1-2.7-5.1-1-4.1,1.7c1.5,4.1,6,6.3,10.1,4.8c2-0.7,3.6-2.2,4.5-4.1c1-2.1,0.9-4.5,0.2-6.7c-1-3.4-3-7-5.5-9.5
								c-1.3-1.3-2.8-2.4-4.6-2.7c-1.9-0.4-3.8,0.3-5.4,1.1c-4.3,2-7.6,5.5-10.3,9.4c-0.7,1-0.6,2.3,0.4,3.1
								C428.6,524.1,430.1,524,430.8,523L430.8,523z"/>
							<path class="st27" d="M456.1,540.3c-1.8,2.6-3.9,5.9-7.3,6.4c-3.5,0.4-6.8-2.3-8.9-4.7c-0.8-0.9-2.1-1.2-3.1-0.4
								c-0.9,0.7-1.2,2.2-0.4,3.1c3.2,3.7,7.6,6.9,12.7,6.5c4.8-0.4,8-4.4,10.5-8.1c0.7-1,0.6-2.3-0.4-3.1
								C458.4,539.2,456.8,539.3,456.1,540.3L456.1,540.3z"/>
							<path class="st27" d="M445.6,512.2c1.9-2.6,3.9-5.1,6-7.6c0.8-0.9,1.6-1.9,2.7-2.4c0.5-0.3,1-0.4,1.5-0.4
								c0.2,0,0.7,0.1,0.9,0.2c0.8,0.5,1.3,1.9,1.6,2.9c0.4,1.3,0.6,2.7,0.7,4.1c0.1,2.8-0.3,5.6-0.8,8.4c-0.4,2.8,4,3.5,4.4,0.6
								c0.8-5.3,1.6-11.1-0.7-16.1c-0.6-1.2-1.3-2.5-2.4-3.3c-1.3-0.9-2.8-1.2-4.3-1.1c-2.9,0.2-5.1,2.2-6.9,4.2
								c-2.2,2.5-4.2,5.1-6.1,7.8C440.4,511.8,443.9,514.5,445.6,512.2L445.6,512.2z"/>
							<path class="st27" d="M346.5,714.9c-16.1-6-33.3-7.5-50.4-7.5c-22.1,0-44.4,0.3-66.4,2.5c-2.8,0.3-2.3,4.7,0.6,4.4
								c21.3-2.1,42.8-2.4,64.2-2.5c17-0.1,34.2,1.2,50.2,7.2C347.4,720,349.2,715.9,346.5,714.9L346.5,714.9z"/>
							<path class="st27" d="M326.5,609.2c14.4,25.9,21.7,56.3,22.7,85.8c0.3,8.2,0,16.5-1.1,24.6c-0.4,2.8,4,3.5,4.4,0.6
								c3.9-30.1-1.2-61.8-11.6-90.1c-2.9-7.8-6.3-15.4-10.3-22.6C329.2,605,325.1,606.7,326.5,609.2L326.5,609.2z"/>
							<path class="st27" d="M190.2,720.1c4.8-1,9.7-1.5,14.5-2.3c1.2-0.2,2.1-1.3,1.9-2.5c-0.1-1.2-1.3-2.1-2.5-1.9
								c-4.8,0.8-9.7,1.3-14.5,2.3c-1.2,0.2-2.1,1.2-1.9,2.5C187.9,719.3,189,720.4,190.2,720.1L190.2,720.1z"/>
							<path class="st27" d="M183,706.7c-0.5,2.8-1.5,5.4-1.9,8.2c-0.5,2.9-0.1,6.1,2.8,7.5c1,0.5,2.5-0.1,2.9-1.2
								c0.4-1.2,0-2.4-1.2-2.9c-0.4-0.2,0.4,0.3,0.1,0c-0.1-0.1-0.2-0.1-0.2-0.2c-0.2-0.1,0.4,0.4,0.1,0.1c-0.3-0.3,0.1-0.1,0,0.1
								c0,0-0.2-0.6-0.2-0.6c0.1,0,0.1,0.5,0,0.1c0-0.1,0-0.2,0-0.3c0-0.1,0-0.2,0-0.3c0-0.5,0,0,0,0c0,0,0-0.7,0-0.8
								c0.1-0.6,0.2-1.2,0.3-1.8c0.5-2.5,1.3-4.9,1.8-7.3c0.2-1.1-0.7-2.4-1.9-2.5C184.3,704.7,183.2,705.5,183,706.7L183,706.7z"/>
							<path class="st27" d="M264.2,586.8c1.9,1.2,3.8,2.4,5.7,3.6c1,0.6,1.9,1.2,2.9,1.8c1,0.7,2.1,1.4,3.3,1.6
								c2.6,0.4,4.1-1.6,5.6-3.2c1.5-1.7,3-3.4,4.6-5.1c0.8-0.9,0.5-2.4-0.4-3.1c-1-0.8-2.3-0.5-3.1,0.4c-1.2,1.4-2.5,2.7-3.7,4.1
								c-0.7,0.7-1.3,1.5-2,2.2c-0.1,0.1-0.3,0.4-0.5,0.4c0.4-0.2,0.1,0-0.2-0.2c-1.6-0.8-3-1.9-4.5-2.8c-1.6-1-3.3-2.1-4.9-3.1
								c-1-0.6-2.3-0.6-3.1,0.4C263.2,584.5,263.2,586.1,264.2,586.8L264.2,586.8z"/>
							<path class="st27" d="M238.3,584.8c10.1,22.7,41.2,26.5,59.9,12.3c5.3-4,9.3-9.3,11.5-15.6c1-2.7-3.1-4.5-4.1-1.8
								c-7.1,20-34.2,26.9-51.7,16.4c-5.1-3.1-9.1-7.7-11.6-13.1C241.2,580.5,237.1,582.2,238.3,584.8L238.3,584.8z"/>
							<path class="st27" d="M261.4,600.9c-4.3,3.3-8.7,6.7-13,10c-3.5,2.7-7.6,5.2-9.9,9.1c-2.4,4.1-2.1,8.9-2.1,13.5
								c-0.1,5.1-0.1,10.3-0.1,15.4c0,20.5,0.6,41.1,2.6,61.5c0.3,2.8,4.7,2.3,4.4-0.6c-1.9-19.1-2.6-38.2-2.6-57.4
								c0-5,0-10.1,0.1-15.1c0-4.4-0.7-9.8,1-14c1.7-4.2,6.7-6.9,10.1-9.6c4.1-3.1,8.1-6.2,12.2-9.3
								C266.3,602.7,263.7,599.1,261.4,600.9L261.4,600.9z"/>
							<path class="st27" d="M271.2,601.4c-6.9,4.3-13.3,9.8-19.4,15.1c-3.2,2.8-7.3,5.2-7.8,9.7c-0.6,6.2-0.5,12.4-0.6,18.6
								c-0.1,9.9,0,19.8,0.3,29.7c0.3,11.2,0.8,22.4,2,33.6c0.3,2.8,4.7,2.3,4.4-0.6c-2-19.1-2.3-38.5-2.3-57.8
								c0-6.9,0-13.8,0.5-20.7c0.1-0.9,0.1-1.8,0.2-2.7c0-0.3,0.1-0.6,0.1-1c0-0.5,0.1-0.2,0-0.1c-0.4,0.7,0.6-0.5,0.9-0.8
								c1.2-1.1,2.4-2.2,3.7-3.3c6.6-5.7,13.3-11.7,20.7-16.2C276.3,603.5,273.6,600,271.2,601.4L271.2,601.4z"/>
							<path class="st19" d="M266.3,617.7c-8.5,0-8.5,13.2,0,13.2C274.8,630.9,274.9,617.7,266.3,617.7z"/>
							<path class="st19" d="M293.2,616.9c-8.5,0-8.5,13.2,0,13.2C301.7,630.1,301.7,616.9,293.2,616.9z"/>
							<path class="st19" d="M266.8,642.4c-8.5,0-8.5,13.2,0,13.2C275.3,655.6,275.3,642.4,266.8,642.4z"/>
							<path class="st19" d="M293.6,641.5c-8.5,0-8.5,13.2,0,13.2C302.1,654.7,302.1,641.5,293.6,641.5z"/>
							<path class="st19" d="M266.8,668.8c-8.5,0-8.5,13.2,0,13.2C275.3,682,275.3,668.8,266.8,668.8z"/>
							<path class="st19" d="M293.6,667.9c-8.5,0-8.5,13.2,0,13.2C302.1,681.1,302.1,667.9,293.6,667.9z"/>
							<path class="st19" d="M266.8,689.9c-8.5,0-8.5,13.2,0,13.2C275.3,703.1,275.3,689.9,266.8,689.9z"/>
							<path class="st19" d="M293.6,689c-8.5,0-8.5,13.2,0,13.2C302.1,702.2,302.1,689,293.6,689z"/>
							<path class="st27" d="M189.6,679.3c5.9,0.2,11.3-2.5,16.7-4.6c2.5-1,5.1-2.1,7.1,0.3c1.8,2.3,2.7,5.4,2.8,8.2
								c0.4,5.5-2.6,11.1-7.5,13.6c-2.9,1.5-6,1.6-9.2,1.7c-2.8,0-5.7,0-7.5-2.5c-1.8-2.5-2.3-6.1-2.7-9.1c-0.5-3.8-0.3-7.7,1-11.3
								c0.9-2.7-3.2-4.5-4.1-1.8c-1.3,3.9-1.8,7.9-1.5,12.1c0.3,3.6,0.9,7.6,2.6,10.9c1.6,3.2,4.1,5.4,7.7,6
								c1.8,0.3,3.7,0.2,5.6,0.2c2.2,0,4.3-0.2,6.4-0.7c6.7-1.7,11.8-7.4,13.3-14.1c0.8-3.7,0.4-7.7-0.9-11.2
								c-1.2-3.3-3.4-6.7-7-7.6c-3.7-0.9-7.9,1.3-11.3,2.7c-3.4,1.4-7.2,3.1-11,2.9c-1.2,0-2.3,0.6-2.5,1.9
								C187.6,677.9,188.4,679.2,189.6,679.3L189.6,679.3z"/>
							<path class="st27" d="M182.5,721.6c4,2.7,8.8,3.9,13.6,3.5c1.2-0.1,2.1-1.3,1.9-2.5c-0.2-1.2-1.3-2-2.5-1.9
								c-0.5,0.1-1.1,0.1-1.6,0.1c0.5,0-0.2,0-0.2,0c-0.3,0-0.5,0-0.8,0c-1-0.1-1.9-0.2-2.9-0.5c-0.1,0-0.2,0-0.3-0.1
								c0.2,0.1,0.2,0.1,0,0c-0.3-0.1-0.5-0.2-0.8-0.3c-0.4-0.2-0.9-0.3-1.3-0.5c-0.4-0.2-0.9-0.4-1.3-0.6c-0.1,0-0.8-0.5-0.4-0.2
								c-0.2-0.1-0.5-0.3-0.7-0.4c-1-0.6-2.4-0.7-3.1,0.4C181.5,719.4,181.5,720.9,182.5,721.6L182.5,721.6z"/>
							<path class="st27" d="M341.1,725.7c1.7,0.1,3.3-0.1,4.9-0.6c1.4-0.4,2.8-1.2,4-2.1c0.9-0.7,1.2-2.2,0.4-3.1
								c-0.8-0.9-2.1-1.2-3.1-0.4c-0.4,0.3-0.8,0.6-1.2,0.8c0.2-0.1,0.3-0.2,0.5-0.3c-0.8,0.5-1.7,0.8-2.7,1.1
								c0.2,0,0.4-0.1,0.6-0.1c-1,0.3-2,0.4-3,0.4c0.2,0,0.4,0,0.6,0c-0.1,0-0.2,0-0.4,0c-0.6,0-1.1,0-1.6,0.4
								c-0.4,0.3-0.8,0.9-0.9,1.5C339.1,724.3,339.8,725.7,341.1,725.7L341.1,725.7z"/>
							<g>
								<path class="st27" d="M266.7,581c-8.8-0.4-17.7-2-26.4-3.7c-15.3-3-30.4-7.2-44.9-13c-2.7-1.1-4.4,3-1.8,4.1
									c14.6,5.8,29.8,10.1,45.2,13.2c8.9,1.8,18.1,3.4,27.2,3.8C268.9,585.5,269.5,581.1,266.7,581L266.7,581z"/>
								<path class="st27" d="M177.3,555.9c-12.9-7-25-16-33.7-28c-9.1-12.6-12.9-27.6-11.7-43c0.2-2.8-4.2-3.5-4.4-0.6
									c-1.3,16.3,2.6,32.3,12.1,45.7c9.1,12.9,22.1,22.5,35.9,30C178.1,561.3,179.8,557.2,177.3,555.9L177.3,555.9z"/>
								<path class="st27" d="M108.2,427.9c4.8-16.6,11.6-32.6,19.2-48.1c8.4-16.9,17.8-33.3,28.4-49c9.6-14.2,20.2-27.6,32-40.1
									c12.4-13.2,25.7-25.8,41-35.4c14.5-9.2,31.4-15.5,48.8-14.7c17.4,0.8,33.6,8.4,48,17.7c27.7,17.9,49.4,43.9,66.7,71.7
									c17.5,28.2,30.9,59,41,90.6c1.2,3.7,2.3,7.4,3.4,11.1c0.8,2.7,4.9,1,4.1-1.7c-9.4-32.4-22.3-63.9-39.2-93.2
									c-16.8-29.2-38.2-56.8-65.6-76.8c-13.5-9.9-28.9-18.6-45.4-22.2c-17.3-3.8-35.2-0.9-51.1,6.6c-16.5,7.7-30.8,19.4-43.8,32
									c-12.5,12.2-24.2,25.2-34.6,39.3c-11.3,15.3-21.3,31.5-30.4,48.2c-8.8,16.2-16.7,33-22.8,50.4c-1.4,3.9-2.6,7.8-3.8,11.8
									C103.4,428.9,107.5,430.6,108.2,427.9L108.2,427.9z"/>
								<path class="st27" d="M102.1,317.5c-4.4,14.7-7.5,29.7-9.7,44.8c-2.1,14.7-3.5,29.6-3,44.5c0.2,6.2,0.9,12.4,2.6,18.4
									c0.8,2.7,4.9,1,4.1-1.7c-3.2-11.3-2.7-23.9-2-35.4c0.9-15,3.1-29.9,6.1-44.7c1.7-8.1,3.6-16.2,6-24.1
									C107,316.6,103,314.8,102.1,317.5L102.1,317.5z"/>
								<path class="st27" d="M273.3,255.3c4.8,37.9,4.3,76.3,11.6,113.9c2,10.4,4.7,20.6,8.1,30.6c0.9,2.7,5,1,4.1-1.7
									c-12.2-35.9-13.4-74.2-16.3-111.7c-0.8-10.6-1.8-21.2-3.1-31.7C277.4,251.8,273,252.4,273.3,255.3L273.3,255.3z"/>
								<path class="st27" d="M340.5,276.7c16,32.7,28.3,67.5,28.7,104.2c0.1,10.7-0.8,21.4-2.6,32c-0.5,2.8,3.9,3.4,4.4,0.6
									c3.1-18.4,3.5-37.1,1-55.6c-2.4-18.1-7.4-35.7-14-52.7c-4-10.3-8.5-20.4-13.4-30.3C343.4,272.4,339.3,274.1,340.5,276.7
									L340.5,276.7z"/>
								<path class="st27" d="M379.1,373.6c1.3,9.9,0,20-3.9,29.2c-1.1,2.6,3,4.4,4.1,1.8c4.2-9.9,5.7-20.9,4.2-31.5
									C383.2,370.2,378.8,370.8,379.1,373.6L379.1,373.6z"/>
								<path class="st27" d="M219,271.5c-6.7,17.3-11.8,35.3-14.3,53.6c-2.2,16.1-2.4,32.8,1.9,48.5c2.1,7.7,5.5,15.1,10.3,21.5
									c1.7,2.3,5.3-0.4,3.6-2.7c-8.6-11.5-11.9-26-12.7-40.2c-0.9-16.7,1.8-33.5,5.8-49.7c2.5-10,5.8-19.8,9.5-29.4
									C224.1,270.6,220,268.8,219,271.5L219,271.5z"/>
								<path class="st27" d="M241.8,272.1c-11.2,29.7-15,62.2-16.9,93.7c-0.6,9.1-0.9,18.2-1,27.3c0,2.8,4.4,3.5,4.4,0.6
									c0.4-32,2.9-64.5,10.3-95.8c1.9-8.2,4.3-16.2,7.2-24.1C246.9,271.2,242.8,269.4,241.8,272.1L241.8,272.1z"/>
								<path class="st27" d="M112.2,302.3c12.7-46.5,46.5-87.4,88.2-111.2c20.9-12,44.4-19.5,68.5-20.6c24-1,47.9,3.9,69.5,14.4
									c25.1,12.2,46.3,31,64.5,52c1.9,2.2,5.4-0.5,3.6-2.7c-16.7-19.3-35.8-36.7-58.1-49.2c-21.5-12-45.7-18.8-70.4-19.1
									c-50.7-0.7-97.6,25.5-130.4,63c-18.3,21-32.4,45.8-39.8,72.7C107,304.5,111.4,305.1,112.2,302.3L112.2,302.3z"/>
								<path class="st27" d="M419.6,261.1c23.4,37.7,49,79.7,45.7,125.8c-1,14.6-5.2,28.6-12.1,41.5c-1.3,2.5,2.8,4.3,4.1,1.8
									c12.1-22.9,15.2-48.7,10.5-74.1c-4.4-23.8-14.5-46.1-26.3-67.1c-5.8-10.4-12.1-20.5-18.4-30.6
									C421.6,256,418.1,258.7,419.6,261.1L419.6,261.1z"/>
								<path class="st27" d="M154.2,173.7c6.6,11.9,16.1,21.8,27.9,28.7c1,0.6,2.5-0.2,2.9-1.2c0.5-1.2-0.1-2.3-1.2-2.9
									c-10.6-6.3-19.6-15.5-25.5-26.3c-0.6-1.1-1.7-1.7-2.9-1.2C154.4,171.2,153.6,172.6,154.2,173.7L154.2,173.7z"/>
								<path class="st27" d="M195.9,164.5c1.8,4.4,3.5,8.7,5.3,13.1c0.4,1.1,1.8,1.7,2.9,1.2c1.1-0.5,1.7-1.7,1.2-2.9
									c-1.8-4.4-3.5-8.7-5.3-13.1c-0.4-1.1-1.8-1.7-2.9-1.2C196,162.1,195.4,163.4,195.9,164.5L195.9,164.5z"/>
								<path class="st27" d="M343.7,149.7c0.1,11.1-1.6,22.2-5.1,32.7c-0.9,2.7,3.2,4.5,4.1,1.8c3.8-11.3,5.6-23.1,5.4-35
									C348.1,146.3,343.7,146.9,343.7,149.7L343.7,149.7z"/>
								<path class="st27" d="M105.2,244.2c7.4,5.5,15.2,10.5,23.3,14.9c1.1,0.6,2.5-0.1,2.9-1.2c0.5-1.2-0.1-2.4-1.2-2.9
									c-7.8-4.2-15.2-9-22.3-14.3C105.7,238.9,102.9,242.4,105.2,244.2L105.2,244.2z"/>
								<path class="st27" d="M110.4,266.4c2.9,0.1,5.9,0.2,8.8,0.3c0.6,0,1.1,0,1.6-0.4c0.4-0.3,0.8-0.9,0.9-1.5
									c0.1-1.1-0.6-2.5-1.9-2.5c-2.9-0.1-5.9-0.2-8.8-0.3c-0.6,0-1.1,0-1.6,0.4c-0.4,0.3-0.8,0.9-0.9,1.5
									C108.4,265,109.1,266.3,110.4,266.4L110.4,266.4z"/>
								<path class="st27" d="M424.7,223.6c0.4,3.2-0.9,6.2-2.9,8.9c-2.2,2.9-5,5.3-7.8,7.6c-2.2,1.8,0.4,5.4,2.7,3.6
									c6.3-5.1,13.4-11.8,12.4-20.6C428.7,220.2,424.3,220.8,424.7,223.6L424.7,223.6z"/>
								<path class="st27" d="M417.1,249.1c3.3-0.2,6.5-0.3,9.8-0.5c1.2-0.1,2.1-1.4,1.9-2.5c-0.2-1.3-1.2-2-2.5-1.9
									c-3.3,0.2-6.5,0.3-9.8,0.5c-1.2,0.1-2.1,1.4-1.9,2.5C414.8,248.4,415.8,249.1,417.1,249.1L417.1,249.1z"/>
								<path class="st27" d="M263.3,269.9c-0.4,40.6,4.8,81,15.3,120.2c0.7,2.8,4.9,1,4.1-1.7c-10.3-38.4-15.4-78.1-15-117.8
									C267.7,267.7,263.3,267,263.3,269.9L263.3,269.9z"/>
								<path class="st27" d="M218.3,410.1c-4.1-1.6-8.4-2-12.4-1.2c-0.5,0-0.9,0-1.4,0.1c-12.7,1.7-20.7,14.5-20.7,26.5
									c0,8.9,2.5,19.8,8.3,26.8c9,10.9,26.4,12.2,35.3,0.2C238.1,447.8,237.4,417.7,218.3,410.1z M198.4,434.5
									c-0.8,0.9-1.8,1.6-2.9,1.9c0,0,0,0,0,0c-0.4,0.3-0.9,0.4-1.4,0.4c-0.3,0-0.6-0.1-0.9-0.2c-0.3,0-0.5,0-0.8,0
									c-0.9-0.1-1.8-1-1.9-1.9c-0.1-0.8-0.1-1.6-0.1-2.4c-0.2-1-0.1-2,0.2-3c0.8-2.5,3.2-3.9,5.6-4.4c0.8-0.1,1.6,0.3,2.1,0.9
									c0.7,1,1.2,2.1,1.4,3.3C200.1,430.9,199.6,433,198.4,434.5z"/>
								<path class="st27" d="M361.6,426.6c-2.6-16.5-16-31.8-31.7-27.2c-28.8,8.4-20,69.1,15.6,58.5
									C358,454.3,363.7,440.1,361.6,426.6z M351.2,419.8c-0.2,0.5-0.7,0.8-1.1,1c-0.5,0.2-1,0.3-1.5,0.2c0,0,0,0-0.1,0
									c-0.3,0.1-0.5,0.2-0.8,0.2c-0.5,0.1-1.4-0.2-1.7-0.6c-0.4-0.4-0.7-0.8-1-1.3c-0.3-0.2-0.5-0.4-0.7-0.7
									c-0.8-0.9-1.2-2.1-1.4-3.3c0,0,0-0.1,0-0.1c-0.2-0.8-0.3-1.6-0.3-2.4c0-0.7,0.2-1.2,0.6-1.7c0.3-0.4,1.1-0.8,1.6-0.8
									c1,0.1,2.1,0.2,3,0.7c0,0,0,0,0,0c0.4,0.1,0.8,0.2,1.2,0.4c0.4,0.2,0.8,0.5,1.1,0.8c0.4,0.4,0.7,0.8,0.9,1.3
									c0.1,0.2,0.1,0.4,0.2,0.5c0.2,0.3,0.4,0.6,0.5,1c0.3,0.8,0.3,1.6,0.2,2.4C351.8,418.3,351.5,419,351.2,419.8z"/>
								<path class="st27" d="M311,406c10.4-19.9,40.1-17.4,48.7,2.3c1.9,4.4,9.8,1.2,7.9-3.3c-10.6-26-49.9-28.5-62.8-2.6
									C302.9,406.4,308.9,410,311,406L311,406z"/>
								<path class="st27" d="M180.8,422.7c1-12.3,9.5-21.2,21.5-23.7c9-1.9,21.3-0.4,25,9.4c2,5.4,10.8,3,8.7-2.4
									c-5.4-13.8-20.2-18.4-33.9-15.4c-15.9,3.5-27.1,15.8-28,32.1C173.7,427.1,180.4,427,180.8,422.7L180.8,422.7z"/>
								<path class="st27" d="M182.5,309.5c-12.9,30-32.4,56.9-56.9,78.5c-2.1,1.9,0.5,5.5,2.7,3.6c25.1-22.1,45.1-49.6,58.4-80.3
									C187.7,308.7,183.6,306.9,182.5,309.5L182.5,309.5z"/>
								<path class="st27" d="M143.7,386.8c-6.8,5.6-13.5,11.1-20.3,16.7c-2.2,1.8,0.5,5.4,2.7,3.6c6.8-5.6,13.5-11.1,20.3-16.7
									C148.5,388.5,145.9,385,143.7,386.8L143.7,386.8z"/>
								<path class="st27" d="M116.9,416.9c-4.5,18.7-15.5,34.5-26.6,49.8c-10.7,14.6-21.2,30.4-23.2,48.9c-1,9.8,0.4,19.8,5.3,28.4
									c1.4,2.5,5.5,0.8,4.1-1.7c-9.1-16.1-5.2-35.3,3-50.9c8.5-16.2,21.3-29.7,30.3-45.7c5-8.9,9.2-18.3,11.6-28.3
									C122,414.7,117.6,414.1,116.9,416.9L116.9,416.9z"/>
								<path class="st27" d="M124.2,431.7c-3.1,16.2-15.4,29.4-26.6,40.6c-5.5,5.5-10.8,11-15,17.6c-5.1,7.9-9,16.5-11.5,25.5
									c-2.6,9.5-5.1,20.7,1.6,29.1c1.8,2.2,5.4-0.4,3.6-2.7c-6-7.4-3-18.2-0.6-26.5c2.6-9,6.7-17.6,12.2-25.3
									c8.6-12.1,20.6-21.2,29.4-33.3c5.3-7.3,9.7-15.5,11.4-24.4C129.1,429.5,124.7,428.8,124.2,431.7L124.2,431.7z"/>
								<path class="st27" d="M437.8,478.5c-0.6,0.9-1.2,1.8-1.7,2.7c-0.1,0.3-0.2,0.6-0.2,0.9c0,0.3,0,0.6,0.1,0.9
									c0.1,0.3,0.3,0.5,0.5,0.7c0.2,0.2,0.4,0.4,0.7,0.5c0.2,0.1,0.4,0.1,0.6,0.2c0.4,0.1,0.8,0,1.2-0.1c0.2-0.1,0.3-0.2,0.5-0.3
									c0.3-0.2,0.5-0.5,0.7-0.9c0.1-0.1,0.1-0.2,0.2-0.4c-0.1,0.2-0.2,0.3-0.3,0.5c0.4-0.6,0.8-1.3,1.2-1.9
									c0.2-0.2,0.3-0.5,0.4-0.8c0.1-0.3,0.1-0.6,0.1-0.9c0-0.3-0.1-0.6-0.3-0.8c-0.1-0.3-0.3-0.5-0.5-0.7
									c-0.2-0.1-0.3-0.2-0.5-0.3c-0.4-0.2-0.8-0.2-1.2-0.2c-0.2,0-0.4,0.1-0.6,0.1C438.3,478,438,478.2,437.8,478.5L437.8,478.5z"
									/>
								<path class="st27" d="M451.2,464c-2.5,1.9-4.8,4.1-6.9,6.4c-0.4,0.4-0.5,1.1-0.5,1.7c0.1,0.5,0.4,1.1,0.8,1.5
									c0.5,0.3,1.1,0.6,1.7,0.5c0.6-0.1,1-0.4,1.5-0.8c0.6-0.6,1.2-1.2,1.8-1.8c-0.1,0.1-0.3,0.3-0.4,0.4c1.5-1.5,3.1-2.8,4.7-4.1
									c0.9-0.7,1.2-2.2,0.4-3.1C453.5,463.5,452.2,463.2,451.2,464L451.2,464z"/>
								<path class="st27" d="M387.5,365.9c11.9,13.2,24.8,25.4,38.5,36.7c2.2,1.8,5-1.7,2.8-3.5c-13.5-11-26.1-23-37.8-35.9
									C389.2,361.1,385.6,363.8,387.5,365.9L387.5,365.9z"/>
								<path class="st27" d="M404.3,402.6c6.4,7.7,16.5,11.8,26.5,10.7c2.8-0.3,2.3-4.7-0.6-4.4c-8.4,0.9-17-2.5-22.4-9
									C406,397.7,402.4,400.4,404.3,402.6L404.3,402.6z"/>
								<path class="st27" d="M422.8,421.9c4.1,1.2,8.3,2.1,12.6,2.4c1.2,0.1,2.4-0.6,2.5-1.9c0.1-1.1-0.7-2.4-1.9-2.5
									c-2-0.2-4-0.4-6-0.8c-1-0.2-2-0.4-2.9-0.6c-0.5-0.1-0.9-0.2-1.3-0.3c0,0-0.7-0.2-0.3-0.1c-0.3-0.1-0.6-0.2-0.9-0.3
									c-1.1-0.3-2.5-0.1-2.9,1.2C421.3,420,421.6,421.6,422.8,421.9L422.8,421.9z"/>
								<path class="st27" d="M304.4,395c-0.2-0.4-0.3-0.8-0.5-1.3c0,0.2,0.1,0.4,0.1,0.6c-0.2-0.7-0.3-1.4-0.3-2c0,0.2,0,0.4,0,0.6
									c0-0.7,0.1-1.3,0.3-1.9c-0.1,0.2-0.1,0.4-0.2,0.6c0.1-0.3,0.2-0.5,0.3-0.8c-0.8,0.4-1.6,0.9-2.4,1.3c0.1,0,0.1,0,0.2,0
									c-0.2-0.1-0.4-0.1-0.6-0.2c0.1,0,0.2,0.1,0.3,0.1c-0.2-0.1-0.3-0.2-0.5-0.3c0.1,0.1,0.2,0.1,0.3,0.2
									c-0.1-0.1-0.3-0.3-0.4-0.4c0.1,0.1,0.2,0.2,0.3,0.3c-0.1-0.2-0.2-0.3-0.3-0.5c0.1,0.3,0.2,0.5,0.3,0.8
									c0-0.2-0.1-0.4-0.1-0.6c0.3,1,0.3,2.1,0.8,3c0.7,1.2,1.7,2.1,3.1,2.5c2.4,0.7,5.2-0.3,6.3-2.7c0.5-1.1,0-2.5-1.2-2.9
									c-1.1-0.4-2.4,0-2.9,1.2c0,0.1-0.1,0.2-0.1,0.3c0.1-0.2,0.2-0.3,0.3-0.5c-0.1,0.2-0.2,0.3-0.4,0.5c0.1-0.1,0.3-0.3,0.4-0.4
									c-0.2,0.2-0.3,0.3-0.5,0.4c0.2-0.1,0.3-0.2,0.5-0.3c-0.2,0.1-0.5,0.2-0.8,0.3c0.2,0,0.4-0.1,0.6-0.1
									c-0.3,0.1-0.6,0.1-0.9,0.1c0.2,0,0.4,0,0.6,0c-0.3,0-0.7,0-1-0.1c0.2,0.1,0.4,0.1,0.6,0.2c-0.3-0.1-0.5-0.2-0.8-0.3
									c0.2,0.1,0.3,0.2,0.5,0.3c-0.2-0.1-0.4-0.3-0.5-0.4c0.1,0.1,0.3,0.3,0.4,0.4c-0.1-0.1-0.3-0.3-0.4-0.5
									c0.1,0.2,0.2,0.3,0.3,0.5c-0.1-0.3-0.2-0.5-0.3-0.8c0,0.2,0.1,0.4,0.1,0.6c-0.2-0.9-0.3-1.8-0.7-2.7
									c-0.5-1.3-1.5-2.2-2.9-2.4c-0.9-0.2-2,0.5-2.4,1.3c-1,2.5-1,5.3,0.1,7.8c0.5,1.1,1.8,1.7,2.9,1.2
									C304.3,397.4,305,396.1,304.4,395L304.4,395z"/>
								<path class="st27" d="M355.8,382.7c2.6,8.1,4.3,16.4,5.2,24.8c0.3,2.8,4.7,2.3,4.4-0.6c-0.9-8.8-2.8-17.5-5.5-25.9
									C359.1,378.3,355,380,355.8,382.7L355.8,382.7z"/>
								<path class="st27" d="M430.3,433.5c1.4,15.4,7,30.4,16.2,42.9c9.6,13.1,23.9,22.8,31.2,37.6c3.8,7.8,5.7,16.8,2.6,25.1
									c-1,2.7,3.1,4.5,4.1,1.8c5.5-14.9-1.8-30.4-11.4-41.8c-5.4-6.4-11.6-12.1-17.1-18.3c-5.6-6.3-10.4-13.2-13.9-20.8
									c-4-8.6-6.4-17.7-7.3-27.1C434.5,430,430.1,430.6,430.3,433.5L430.3,433.5z"/>
								<path class="st27" d="M411.8,429.8c2.3,15.9,8.6,31,18.8,43.6c10.6,13.1,25.4,22,36.3,34.8c7.1,8.3,12.8,18.6,12.6,29.8
									c-0.1,2.8,4.4,3.5,4.4,0.6c0.4-20-13.9-35-28-47.2c-11.6-10-22.9-19.7-30.3-33.3c-4.9-9-8-18.7-9.4-28.8
									C415.8,426.4,411.4,426.9,411.8,429.8L411.8,429.8z"/>
								<path class="st27" d="M74.7,430c-13.3-2.3-29.4-7.3-36.2-20.2c-5.1-9.8-3.9-25,7-30.2c2.1-1,1.5-3.7-0.5-4.3
									c-17.2-4.8-30.6-18.9-36.8-35.4c-6.7-17.9-3.8-37.7,5.4-54.1c5.4-9.6,12.8-17.8,21.7-24.3c0.7-0.5,1.2-1.8,0.7-2.6
									c-12-22.2-16.5-47.9-13-72.9c3.3-23.6,14-45.5,30.3-62.8c15.6-16.5,36-28.6,58.1-33.7c6.3-1.5,12.8-2.5,18.8-5.1
									c5.1-2.2,9.8-5.4,14-9.1c8.7-7.7,15.5-17.3,23.6-25.8C200.8,14.7,251.5-2,298.7,6.7c23.1,4.2,45,14.1,63.6,28.4
									c9.2,7,17.5,15.1,24.8,24.2c1.7,2.2,3.2,4.9,5.2,6.9c1.6,1.6,5,0.6,7.1,0.6c5.8-0.2,11.7,0.3,17.4,1.3
									c22.5,4,43.5,16.9,56.7,35.7c13.8,19.6,18.6,45,13.9,68.5c-1.2,5.8-3,11.5-5.4,16.9c-0.5,1.2,0.1,2.3,1.2,2.9
									c16,9.3,28,24.9,33.3,42.7c5.4,18,2.9,37.6-5.9,54.1c-5,9.4-12.1,17.7-20.7,24c-1.6,1.2-0.9,3.7,1,4
									c11.5,1.7,21.1,11.6,22.1,23.3c1,12-7.5,23.4-18.8,26.8c-1.7,0.5-1.7,2.8-0.5,3.8c9.5,8.3,8.7,23.3,2.5,33.3
									c-6.8,10.9-18.8,20-32.2,16.2c-2.7-0.8-4.5,3.3-1.8,4.1c15.7,4.4,29.9-5,37.9-18.1c7.3-12,7.5-29.1-3.6-38.9
									c-0.2,1.3-0.4,2.5-0.5,3.8c13.3-4,22.7-17.6,21.5-31.5c-1.2-13.6-12.5-25.1-25.9-27.1c0.3,1.3,0.7,2.7,1,4
									c16.1-12,27.1-30.2,30.3-50c3.2-19.6-1.9-39.8-13.3-56c-6.5-9.2-14.8-16.8-24.5-22.4c0.4,1,0.8,2,1.2,2.9
									c10.1-23.2,9.9-50.4,0-73.7c-9.8-22.8-29.1-40.4-52.2-49c-12.8-4.8-26.5-6.7-40.1-5.5c0.7,0.3,1.4,0.6,2.1,0.9
									c-20.6-29-51.6-49.9-86-58.8c-35.3-9.2-73.3-4.3-105.6,12.3c-16.2,8.3-30.9,19.5-43.1,33c-6.1,6.7-11.6,14-18.2,20.3
									c-7.2,6.8-15.2,10.9-24.9,13.2c-8.9,2.1-17.7,4.1-26.1,7.7c-7.8,3.3-15.3,7.4-22.3,12.2c-14,9.7-26.1,22.3-35,36.9
									c-19.5,32-22.6,72.6-8.9,107.5c1.7,4.4,3.8,8.7,6,12.9c0.2-0.9,0.5-1.7,0.7-2.6c-16.7,12.3-28.8,31-31.8,51.6
									c-2.9,19.4,3.3,39.4,16.7,53.7c7.4,7.9,16.5,13.6,26.9,16.5c-0.2-1.4-0.4-2.8-0.5-4.3c-12.8,6.1-15.5,22.8-10.1,34.8
									c6.9,15.3,24.9,21.5,40.2,24.1C76.9,434.9,77.5,430.4,74.7,430L74.7,430z"/>
								<path class="st27" d="M245.4,141.3c0.7,9.4,3.3,18.7,7.7,27.1c0.6,1.1,1.7,1.7,2.9,1.2c1-0.4,1.8-1.8,1.2-2.9
									c-4.3-8.1-6.8-16.9-7.4-26C249.6,137.8,245.2,138.4,245.4,141.3L245.4,141.3z"/>
								<path class="st27" d="M262.6,153.8c0.3,3.9,0.6,7.7,1,11.6c0.1,1.2,1.3,2.1,2.5,1.9c1.2-0.2,2-1.3,1.9-2.5
									c-0.3-3.9-0.6-7.7-1-11.6c-0.1-1.2-1.3-2.1-2.5-1.9C263.3,151.5,262.5,152.5,262.6,153.8L262.6,153.8z"/>
								<path class="st27" d="M267.7,585.6c18.6,0.3,36.6-3.2,54.4-8.3c2.7-0.8,1-4.9-1.7-4.1c-16.9,4.9-34.3,8.3-52,8
									C265.5,581.1,264.8,585.5,267.7,585.6L267.7,585.6z"/>
								<path class="st27" d="M364.4,556c15.2-7.3,28.2-17.9,36.7-32.5c7.4-12.8,10.8-27.3,13.6-41.7c0.5-2.8-3.9-3.4-4.4-0.6
									c-2.6,13.5-5.8,27.2-12.6,39.3c-7.9,14.2-20.5,24.4-35,31.4C360.1,553.1,361.8,557.3,364.4,556L364.4,556z"/>
								<path class="st27" d="M415.7,448.1c0,0.2,0,0.3,0,0.5c0,0.4,0-0.3,0,0c0,0.3,0,0.7-0.1,1c-0.1,0.8-0.2,1.6-0.4,2.4
									c-0.3,1.8-0.8,3.6-1.2,5.3c-0.8,3.6-1.6,7.4-1.1,11.1c0.3,2.8,4.7,2.3,4.4-0.6c-0.8-6.8,3.2-13.5,2.7-20.4
									c-0.1-1.2-1.4-2.1-2.5-1.9C416.4,445.7,415.6,446.9,415.7,448.1L415.7,448.1z"/>
								<path class="st27" d="M449.8,495.4c-12.5,10.1-27.7,15.4-43.7,16.3c-2.9,0.2-2.3,4.6,0.6,4.4c16.7-1,32.7-6.6,45.8-17.2
									C454.7,497.1,452.1,493.6,449.8,495.4L449.8,495.4z"/>
								<path class="st27" d="M433.6,437.8c9.3-9.5,24.8-4.6,31.8,5.2c9.5,13.3,2.3,31.3-6.4,42.9c-1.7,2.3,1.8,5,3.5,2.8
									c8.4-11.1,14.6-25.8,10.6-39.8c-3.2-11.2-13.8-20-25.5-20.7c-6.7-0.4-12.7,2-17.4,6.8C428.1,437.1,431.6,439.8,433.6,437.8
									L433.6,437.8z"/>
								<path class="st27" d="M208.2,275.8c-17.5,27.5-20.8,62.7-10,93.3c3.1,8.7,7.3,16.8,12.7,24.3c0.5,0.8,1.8,0.1,1.3-0.7
									c-17.9-26.6-22.9-60.8-13.7-91.5c2.6-8.7,6.3-16.9,11.1-24.6C210.1,275.7,208.7,274.9,208.2,275.8L208.2,275.8z"/>
								<path class="st27" d="M258.7,274.6c-3.6,35.4-7.6,73.5,6.3,107.3c0.3,0.7,1.4,0.4,1.1-0.3c-12.4-34.5-9.5-71.2-6-106.9
									C260.3,273.6,258.8,273.6,258.7,274.6L258.7,274.6z"/>
								<path class="st27" d="M120.2,414.9c-5.3,18.8-21.1,31.5-35.1,44c-13.1,11.7-27.2,26.3-28.6,44.8c0,0.6,1,0.8,1.1,0.1
									c5.9-39.4,53.5-51.7,63.9-88.6C121.7,414.4,120.4,414,120.2,414.9L120.2,414.9z"/>
								<path class="st27" d="M367.4,306.1c16.6,29.6,22,64.3,16.2,97.6c-0.2,1.2,1.6,1.7,1.8,0.5c6.7-33.6,0.4-69.3-16.6-98.9
									C368.3,304.4,366.9,305.2,367.4,306.1L367.4,306.1z"/>
								<path class="st27" d="M407.4,426.8c-1.6,14.5,1,29.6,6.9,42.9c2.8,6.3,6.7,11.9,11.7,16.7c5.1,4.9,11,8.8,16.7,12.8
									c0.9,0.7,1.8-0.9,0.9-1.5c-11.2-8.1-21.8-16-27.6-28.9c-5.8-13-8.4-27.7-7-42C409.1,425.8,407.5,425.8,407.4,426.8
									L407.4,426.8z"/>
								<path class="st27" d="M310,288.7c14.7,28.5,18.2,60.7,22,92.1c0.2,1.4,2.3,1.4,2.2,0c-3.4-31.7-7.6-64.3-22.6-93
									C311.1,286.7,309.5,287.6,310,288.7L310,288.7z"/>
								<path class="st27" d="M328,315.7c6.2,14,9,28.6,9.9,43.8c0.1,0.9,1.5,0.9,1.5,0c0.1-15.3-3.8-30.7-10-44.6
									C328.9,313.9,327.5,314.7,328,315.7L328,315.7z"/>
								<path class="st27" d="M308.3,367.9c9.6-12,25.5-22.9,40.3-12.2c3.8,2.7,8.5-3.4,5-6.5c-18.1-16-39.8-2.8-51.7,13.8
									C299.4,366.7,305.5,371.4,308.3,367.9L308.3,367.9z"/>
								<path class="st27" d="M176.8,369.2c12.3-14.7,31.5-13.5,45.3-1.5c2.9,2.5,8.4-0.9,5.7-4.4c-14.5-19.3-41.4-17.4-56.3,0.7
									C168.5,367.6,173.7,372.9,176.8,369.2L176.8,369.2z"/>
							</g>
							<path class="st27" d="M172.8,632.2c4.9,10.9,9.1,22.1,13.8,33.2c1.1,2.6,5.2,1,4.1-1.7c-4.7-11-8.9-22.2-13.8-33.2
								C175.8,627.9,171.7,629.5,172.8,632.2L172.8,632.2z"/>
							<path class="st27" d="M186.4,626.8c4.6,11.2,8.7,22.6,13,33.9c1,2.7,5.1,1,4.1-1.7c-4.3-11.3-8.4-22.7-13-33.9
								C189.4,622.5,185.3,624.1,186.4,626.8L186.4,626.8z"/>
							<path class="st27" d="M174.5,628.8c-7,2.9-14.6,3.4-21-1.1c-5.9-4.1-9.6-10.6-12.7-16.9c-2.5-5.2-4.8-10.5-6.5-16
								c-1.6-5.1-3.5-12-1.1-17.1c1.4-2.9,4.1-3.7,6.9-4.9c4.9-1.9,9.9-3.9,14.9-5.7c5.2-1.9,10.3-3.7,15.6-5.3
								c2.5-0.8,5-1.5,7.6-2.1c2.1-0.6,5.4-1.9,7.6-1.1c2.1,0.7,3.6,3.2,4.7,5c1.7,2.7,2.9,5.7,4.1,8.6c2,5.1,3.6,10.4,4.7,15.8
								c1.3,6.4,3.5,13.2,3,19.8c-0.7,8.3-7.4,12.6-14.7,15.2c-2.7,1-1,5.1,1.7,4.1c7.2-2.6,14.4-6.9,16.6-14.7
								c1.9-6.6,0.2-13.7-1.2-20.3c-1.3-6.2-2.7-12.3-4.7-18.3c-2.1-6.1-4.7-13.7-9.9-17.9c-3.3-2.7-7-2.1-10.8-1.1
								c-5.8,1.4-11.6,3.2-17.3,5.1c-5.9,2-11.7,4.1-17.5,6.4c-4.1,1.6-9.4,2.8-12.7,5.9c-4.7,4.5-4.4,11.9-3.2,17.8
								c1.4,6.9,4.1,13.5,7,19.9c3.5,7.6,7.5,15.4,14.4,20.6c7.9,6,17.4,5.9,26.3,2.3C178.8,631.9,177.1,627.7,174.5,628.8
								L174.5,628.8z"/>
							<path class="st27" d="M199,704.2c2.5,7.5,2.8,20.2,12.5,22.2c4.9,1,11.2-1.1,15.2-3.9c5.1-3.5,6.3-9,4.8-14.7
								c-2.1-7.8-7.4-14-10.7-21.2c-1.2-2.6-5.3-0.9-4.1,1.7c2.6,5.6,6.4,10.6,8.9,16.2c1.9,4.3,3.8,9.8-0.2,13.5
								c-2.9,2.7-8.3,4.5-12.3,4.2c-3.6-0.3-5.3-3.7-6.4-6.7c-1.5-4.2-2.1-8.6-3.5-12.9C202.3,699.8,198.2,701.5,199,704.2
								L199,704.2z"/>
							<path class="st27" d="M187,667.2c7.1-1.7,14-4.3,20.4-7.9c-1-0.4-1.9-0.8-2.9-1.2c1.8,4.1,3.3,8.2,4.6,12.5
								c0.3,1.2,1.9,1.6,2.9,1.2c1.2-0.5,1.6-1.7,1.2-2.9c-1.3-4.2-2.8-8.4-4.6-12.5c-0.4-1-1.8-1.8-2.9-1.2
								c-6.1,3.4-12.6,6-19.3,7.6c-1.2,0.3-2.1,1.2-1.9,2.5C184.6,666.4,185.8,667.5,187,667.2L187,667.2z"/>
							<path class="st27" d="M183.2,666.4c0.8,4.1,2.5,8,5.1,11.2c0.7,0.9,2.2,1.2,3.1,0.4c0.9-0.7,1.2-2.1,0.4-3.1
								c-0.6-0.7-1.1-1.5-1.6-2.3c-0.1-0.2-0.3-0.4-0.4-0.6c0.3,0.5-0.1-0.2-0.1-0.3c-0.2-0.4-0.4-0.8-0.6-1.2
								c-0.4-0.8-0.7-1.7-1-2.5c-0.1-0.2-0.1-0.4-0.2-0.7c0-0.1-0.1-0.2-0.1-0.3c0.1,0.3,0.1,0.3,0,0.1c-0.1-0.5-0.2-0.9-0.3-1.4
								c-0.2-1.1-1.3-2.1-2.5-1.9C184,664.1,183,665.2,183.2,666.4L183.2,666.4z"/>
							<path class="st27" d="M212.9,667.9c-0.6,0,0,0,0.1,0c0.1,0,0.2,0,0.4,0c0.3,0,0.7,0.1,1,0.2c0.3,0.1-0.4-0.1,0,0
								c0.1,0.1,0.3,0.1,0.4,0.2c0.3,0.1,0.6,0.3,0.9,0.4c0.2,0.1,0.1,0.1,0,0c0.1,0.1,0.3,0.2,0.4,0.3c0.2,0.2,0.5,0.4,0.7,0.6
								c0.3,0.3-0.1-0.2,0,0c0.1,0.1,0.2,0.2,0.3,0.3c0.2,0.3,0.4,0.5,0.6,0.8c0.2,0.3-0.2-0.5,0,0.1c0.1,0.1,0.1,0.3,0.2,0.4
								c0.1,0.1,0.1,0.3,0.2,0.4c0,0,0.2,0.5,0.1,0.3c-0.1-0.3,0,0.2,0.1,0.3c0,0.2,0.1,0.4,0.1,0.6c0,0.3,0.1,0.6,0.1,0.9
								c0-0.3,0-0.2,0,0.1c0,0.2,0,0.3,0,0.5c0,0.3-0.1,0.6-0.2,0.9c0.1-0.5,0,0.1-0.1,0.1c-0.1,0.1-0.1,0.3-0.2,0.4
								c-0.1,0.1-0.1,0.3-0.2,0.4c0,0.1-0.3,0.6-0.1,0.2c-0.6,1-0.7,2.4,0.4,3.1c0.9,0.6,2.5,0.7,3.1-0.4c2.1-3.4,2.2-7.5,0.2-10.9
								c-1.9-3.2-5.5-4.8-9.1-4.8c-1.2,0-2.1,1.4-1.9,2.5C210.6,667.3,211.7,667.9,212.9,667.9L212.9,667.9z"/>
							<g>
								<path class="st27" d="M147.7,586.5c2.1,6.2,4.3,12.5,6.4,18.7c0.4,1.1,1.8,1.7,2.9,1.2c1.2-0.5,1.6-1.8,1.2-2.9
									c-2.1-6.2-4.3-12.5-6.4-18.7c-0.4-1.1-1.8-1.7-2.9-1.2C147.7,584.1,147.3,585.4,147.7,586.5L147.7,586.5z"/>
								<path class="st27" d="M158.1,582.3c1.9,6.1,4.2,12.1,6.8,18c1.2,2.6,5.3,0.9,4.1-1.7c-2.6-5.9-4.9-11.9-6.8-18
									c-0.4-1.1-1.9-1.6-2.9-1.2C158.1,579.9,157.7,581.2,158.1,582.3L158.1,582.3z"/>
								<path class="st27" d="M169.3,579.2c2,6.1,3.8,12.2,5.6,18.4c0.3,1.2,1.9,1.6,2.9,1.2c1.2-0.5,1.6-1.7,1.2-2.9
									c-1.8-6.2-3.7-12.3-5.6-18.4c-0.4-1.1-1.9-1.6-2.9-1.2C169.3,576.8,168.9,578,169.3,579.2L169.3,579.2z"/>
								<path class="st27" d="M178.3,576.1c1.9,6.1,3.5,12.3,4.8,18.5c0.3,1.2,1.2,2.1,2.5,1.9c1.1-0.1,2.2-1.3,1.9-2.5
									c-1.4-6.6-3.2-13.2-5.1-19.6c-0.3-1.2-1.9-1.6-2.9-1.2C178.3,573.6,178,574.9,178.3,576.1L178.3,576.1z"/>
							</g>
							<path class="st27" d="M205.4,592.8c8.7-7.1,19-10.7,30.1-11.7c2.9-0.3,2.3-4.7-0.6-4.4c-11.8,1.1-23,5-32.2,12.6
								C200.5,591.1,203.2,594.6,205.4,592.8L205.4,592.8z"/>
							<path class="st27" d="M172,632.7c-6.4,7.7-8.8,18-10.4,27.6c-1.6,9.8-1,20.3,6.6,27.6c2.1,2,4.8-1.5,2.8-3.5
								c-6.8-6.6-6.2-16.9-4.6-25.4c1.5-8.3,3.6-16.9,9.1-23.5C177.3,633.3,173.8,630.5,172,632.7L172,632.7z"/>
							<path class="st27" d="M177.9,672.9c0.2-0.2,0.4-0.4,0.6-0.6c0.2-0.2-0.3,0.2,0,0c0.1-0.1,0.2-0.2,0.3-0.2
								c0.4-0.4,0.8-0.7,1.2-1.1c0.8-0.7,1.6-1.3,2.5-1.9c0.8-0.6,1.7-1.1,2.6-1.7c0.4-0.2-0.2,0.1,0.1,0c0.1-0.1,0.2-0.1,0.3-0.2
								c0.2-0.1,0.5-0.3,0.7-0.4c0.5-0.2,1-0.5,1.5-0.7c1.1-0.5,1.7-1.8,1.2-2.9c-0.5-1.1-1.8-1.7-2.9-1.2c-4.3,2-8.1,4.7-11.4,8.1
								c-0.8,0.8-0.5,2.5,0.4,3.1C175.8,674.1,177,673.8,177.9,672.9L177.9,672.9z"/>
							<path class="st27" d="M200.8,624.9c-2.9,9.7-4.3,19.7-4.1,29.8c0,1.2,1.4,2.1,2.5,1.9c1.3-0.2,1.9-1.3,1.9-2.5
								c-0.2-9.3,1.1-18.6,3.7-27.4c0.3-1.2,0-2.4-1.2-2.9C202.7,623.3,201.1,623.7,200.8,624.9L200.8,624.9z"/>
							<path class="st27" d="M460.6,521.3c2.4-1.1,5-2.3,7.6-3c-0.2,0.1,0.4-0.1,0.5-0.1c0.3,0,0.6-0.1,0.8-0.1c0.3,0,0.3,0,0.1,0
								c0.2,0,0.3,0,0.5,0c0.1,0,0.7,0.2,0.3,0.1c0.1,0.1,0.3,0.1,0.4,0.2c-0.2-0.1-0.1-0.1,0.1,0.1c0.4,0.4-0.2-0.3,0.2,0.2
								c0.1,0.2,0.2,0.2,0.1,0.1c0.1,0.1,0.1,0.3,0.2,0.4c0.1,0.1,0.1,0.3,0.1,0.4c0-0.2,0-0.2,0,0c0,0.3,0.1,0.5,0.1,0.8
								c0,0.1,0,0.3,0,0.4c0-0.2,0-0.2,0,0.1c-0.1,0.6-0.1,1.1-0.3,1.7c0.1-0.3-0.1,0.4-0.1,0.4c-0.1,0.3-0.2,0.6-0.4,0.9
								c-0.2,0.5-0.5,1-0.8,1.5c0.1-0.2-0.2,0.4-0.3,0.5c-0.2,0.2-0.3,0.5-0.5,0.7c-0.3,0.5-0.7,0.9-1.1,1.4c-0.8,1-1.7,1.9-2.5,2.8
								c-0.8,0.9-0.5,2.4,0.4,3.1c1,0.8,2.3,0.5,3.1-0.4c3.1-3.3,6.3-7,6.8-11.6c0.3-2.4-0.2-5-2.1-6.7c-2-1.8-4.7-1.6-7.1-1
								c-2.7,0.7-5.3,1.8-7.8,3c-1.1,0.5-1.7,1.8-1.2,2.9C458.2,521.2,459.5,521.8,460.6,521.3L460.6,521.3z"/>
							<path class="st27" d="M464.4,534.4c0,0.1,0.1,0.3,0.1,0.4c-0.1-0.4,0,0,0,0c0,0.2,0,0.9,0.1,0.4c0,0.3-0.1,0.5-0.1,0.8
								c0,0.1-0.1,0.4,0,0c0,0.1-0.1,0.3-0.1,0.4c-0.1,0.3-0.2,0.5-0.3,0.7c0.2-0.3-0.2,0.2-0.3,0.4c-0.1,0.1-0.6,0.6-0.3,0.4
								c-0.2,0.2-0.5,0.4-0.7,0.6c0,0-0.4,0.2-0.2,0.1c0.2-0.1-0.1,0.1-0.2,0.1c-0.3,0.1-0.6,0.3-0.9,0.3c0.3-0.1-0.1,0-0.1,0
								c-0.2,0-0.3,0.1-0.5,0.1c-0.3,0-0.8,0.1-0.9,0.1c-0.4,0-1.2-0.1-1.8-0.3c-0.3-0.1-0.1,0,0,0c-0.2,0-0.3-0.1-0.5-0.2
								c-0.4-0.1-0.8-0.3-1.1-0.5c-0.1-0.1-0.2-0.1-0.3-0.2c0,0-0.4-0.3-0.2-0.1c0.2,0.1-0.2-0.1-0.2-0.2c-0.1-0.1-0.2-0.2-0.4-0.3
								c-0.2-0.2-0.5-0.4-0.7-0.6c-0.2-0.2,0,0,0,0c-0.1-0.2-0.3-0.3-0.4-0.5c-0.2-0.3-0.4-0.7-0.5-1c0,0.2,0-0.8-0.1-0.5
								c0,0.3,0.2-0.8,0-0.3c0.1-0.2,0.2-0.5,0.3-0.7c0-0.1,0.2-0.3,0,0c0.1-0.1,0.1-0.2,0.2-0.3c0.1-0.1,0.2-0.2,0.3-0.3
								c0,0-0.2,0.2-0.1,0.1c0.2-0.2,0.5-0.4,0.7-0.6c0.3-0.2,0.1-0.1,0,0c0.1-0.1,0.2-0.1,0.4-0.2c0.2-0.1,0.5-0.2,0.8-0.3
								c0.1,0,0.4-0.1,0,0c0.1,0,0.3-0.1,0.4-0.1c0.3-0.1,0.6-0.1,0.9-0.1c0.3,0-0.1,0-0.1,0c0.2,0,0.5,0,0.7,0.1
								c0.3,0,0.8,0.2,0.9,0.2c0.4,0.1,1.3,0.5,1.9,0.8c0.6,0.3,1,0.6,1.6,1c0.6,0.5,1.3,1,1.9,1.5c0.9,0.8,2.4,0.6,3.1-0.4
								c0.8-1,0.6-2.4-0.4-3.1c-2.8-2.4-6.1-4.5-9.9-4.5c-3.1,0-6.5,2-7.6,5c-1.3,3.8,1,7.2,4.2,9.1c3.1,1.8,7.3,2.4,10.6,0.6
								c3.5-1.9,5.5-6,4-9.8c-0.4-1.1-1.8-1.7-2.9-1.2C464.5,531.9,464,533.2,464.4,534.4L464.4,534.4z"/>
						</g>
					</g>
					<g>
						<path class="st27" d="M250.3,473.7c9.2-2.2,18.4-4.3,27.6-6.5c4.6-1.1,9.2-2.2,13.8-3.2c1.8-0.4,5.2-1.9,6.9-1
							c1.5,0.8,2.9,3.1,3.9,4.4c9.7,12.1,18.2,27.6,13.9,43.5c-3.5,13.2-14.9,24.5-28.3,27.4c-13.6,3-28.1-2.8-37-13.2
							c-5.7-6.6-8.6-14.5-9.3-23.1c-0.4-5.1-0.1-10.2,0.3-15.3c0.3-2.9,0.1-10.2,3.8-11.2c2.7-0.7,2.2-5.1-0.6-4.4
							c-8.3,2.1-7.7,14-8,20.6c-0.5,9.3,0.2,19,4.5,27.5c7.1,13.9,22,23.9,37.7,24.3c15.9,0.5,30.6-9.2,37.9-23.2
							c8.5-16.2,3.7-34-6.1-48.5c-2.7-4-5.7-8.7-9.4-11.9c-2-1.7-4.1-1.9-6.6-1.4c-3,0.6-6,1.4-9,2.1c-12.2,2.9-24.4,5.7-36.6,8.6
							C247,470,247.5,474.4,250.3,473.7L250.3,473.7z"/>
						<path class="st27" d="M296.3,497.6c3.7-1.4,7.2-3.4,10.3-5.9c3-2.5,5.8-5.3,8.6-8c0.9-0.8,1.2-2.1,0.4-3.1
							c-0.7-0.9-2.2-1.3-3.1-0.4c-2.8,2.6-5.4,5.4-8.4,7.8c-2.9,2.4-6,4.1-9.5,5.5C291.9,494.5,293.6,498.6,296.3,497.6L296.3,497.6
							z"/>
					</g>
					<path class="st27" d="M82.2,493.1c5.2,6.6,11.7,12.3,19.3,15.9c8.4,4,17.8,5,27,3.8c2.8-0.4,2.3-4.8-0.6-4.4
						c-8.4,1.1-16.9,0.2-24.7-3.4c-7-3.3-12.8-8.4-17.5-14.4C84,488.1,80.4,490.8,82.2,493.1L82.2,493.1z"/>
					<path class="st27" d="M81.7,484.6c-4.3-7.2-7.5-15.1-8.9-23.4c-1.1-6.4-1.1-12.6,2.5-18.3c7.1-11.2,21.8-14.7,33.7-9.6
						c2.6,1.1,4.4-3,1.8-4.1c-13.6-5.8-30.7-1.9-38.9,10.9c-4.1,6.4-4.7,13.4-3.5,20.8c1.5,9.4,5,18.3,9.9,26.3
						C79.7,489.8,83.2,487.1,81.7,484.6L81.7,484.6z"/>
					<path class="st27" d="M108.8,462.9c3.4,4.2,5.6,9.2,6.4,14.5c0.2,1.2,1.3,2.1,2.5,1.9c1.2-0.2,2.1-1.3,1.9-2.5
						c-1-6.1-3.5-11.8-7.3-16.6c-0.8-0.9-2.1-1.2-3.1-0.4C108.3,460.5,108,461.9,108.8,462.9L108.8,462.9z"/>
					<path class="st27" d="M89,453.7c0.7-0.3,0.8-0.3,1.4-0.4c0.5-0.1,1-0.2,1.6-0.2c0.2,0,0.3,0,0.5,0c-0.2,0-0.2,0,0.1,0
						c0.2,0,0.5,0,0.7,0c0.6,0.1,1.1,0.1,1.7,0.3c0.3,0.1,0.5,0.1,0.8,0.2c0.3,0.1,0.3,0.1,0.1,0c0.1,0,0.3,0.1,0.4,0.1
						c0.5,0.2,1,0.4,1.5,0.6c0.5,0.2,1,0.4,1.5,0.7c0.3,0.1,0.6,0.3,0.8,0.4c0.1,0,0.8,0.4,0.5,0.3c1,0.6,2.4,0.7,3.1-0.4
						c0.6-0.9,0.7-2.5-0.4-3.1c-4.8-2.9-10.6-4.7-16.1-2.7c-1.1,0.4-1.7,1.8-1.2,2.9C86.7,453.6,87.9,454.1,89,453.7L89,453.7z"/>
					<path class="st27" d="M121.5,443c1.9,7.3,2.6,14.8,4.5,22c0.3,1.2,1.2,2.1,2.5,1.9c1.1-0.1,2.2-1.3,1.9-2.5
						c-1.9-7.3-2.6-14.8-4.5-22c-0.3-1.2-1.2-2.1-2.5-1.9C122.3,440.6,121.2,441.8,121.5,443L121.5,443z"/>
				</g>
			</g>
		</g>
	</g>
</g>
</svg>
