<?xml version="1.0" encoding="utf-8"?>
<!-- Generator: Adobe Illustrator 25.0.0, SVG Export Plug-In . SVG Version: 6.00 Build 0)  -->
<svg version="1.1" id="Layer_1" xmlns="http://www.w3.org/2000/svg" xmlns:xlink="http://www.w3.org/1999/xlink" x="0px" y="0px"
	 viewBox="0 0 301.8 213.3" style="enable-background:new 0 0 301.8 213.3;" xml:space="preserve">
<style type="text/css">
	.st0{opacity:0.18;clip-path:url(#SVGID_2_);fill:none;stroke:#D1B4E3;stroke-miterlimit:10;enable-background:new    ;}
	.st1{clip-path:url(#SVGID_4_);fill:#502B84;}
	
		.st2{clip-path:url(#SVGID_6_);fill:none;stroke:#FFFFFF;stroke-width:0.892;stroke-linecap:round;stroke-linejoin:round;stroke-miterlimit:10;}
	.st3{clip-path:url(#SVGID_8_);fill:none;}
	.st4{display:none;clip-path:url(#SVGID_10_);fill:#EBDEF3;fill-opacity:0;}
	.st5{clip-path:url(#SVGID_12_);fill:#FFFFFF;}
	.st6{clip-path:url(#SVGID_14_);}
	.st7{opacity:0.76;fill:url(#SVGID_15_);enable-background:new    ;}
	.st8{fill:#1A1A1A;}
	.st9{fill:#FFFFFF;}
	.st10{clip-path:url(#SVGID_17_);}
	.st11{fill:#9712C8;}
	.st12{fill:#80FFED;}
	.st13{fill:#CA9BDD;}
	.st14{fill:#BF8DFF;}
	.st15{clip-path:url(#SVGID_19_);}
	.st16{fill:none;stroke:#9712C8;stroke-width:0.892;stroke-linecap:round;stroke-linejoin:round;stroke-miterlimit:10;}
	.st17{fill:none;stroke:#FD9728;stroke-width:0.892;stroke-linecap:round;stroke-linejoin:round;stroke-miterlimit:10;}
	.st18{fill:none;stroke:#E62B61;stroke-width:0.892;stroke-linecap:round;stroke-linejoin:round;stroke-miterlimit:10;}
	.st19{opacity:0.54;clip-path:url(#SVGID_21_);fill:#FFFFFF;}
	
		.st20{opacity:0.92;clip-path:url(#SVGID_23_);fill:none;stroke:#D1B4E3;stroke-width:0.5;stroke-miterlimit:10;stroke-dasharray:1.784;enable-background:new    ;}
	
		.st21{opacity:0.92;clip-path:url(#SVGID_25_);fill:none;stroke:#D1B4E3;stroke-width:0.5;stroke-miterlimit:10;stroke-dasharray:1.784;enable-background:new    ;}
	.st22{opacity:0.54;clip-path:url(#SVGID_27_);fill:#FFFFFF;enable-background:new    ;}
	.st23{opacity:0.54;clip-path:url(#SVGID_29_);fill:#FFFFFF;enable-background:new    ;}
	
		.st24{opacity:0.92;clip-path:url(#SVGID_31_);fill:none;stroke:#D1B4E3;stroke-width:0.5;stroke-miterlimit:10;stroke-dasharray:1.784;enable-background:new    ;}
	.st25{clip-path:url(#SVGID_33_);fill:#F4F4F4;}
	.st26{clip-path:url(#SVGID_35_);}
	.st27{fill:#F4F4F4;}
	.st28{clip-path:url(#SVGID_37_);fill:#F4F4F4;}
	
		.st29{clip-path:url(#SVGID_39_);fill:none;stroke:#FFFFFF;stroke-width:0.892;stroke-linecap:round;stroke-linejoin:round;stroke-miterlimit:10;}
	.st30{clip-path:url(#SVGID_41_);}
	.st31{opacity:0.54;fill:#FFFFFF;enable-background:new    ;}
	.st32{clip-path:url(#SVGID_43_);}
	
		.st33{clip-path:url(#SVGID_45_);fill:none;stroke:#FFFFFF;stroke-width:0.892;stroke-linecap:round;stroke-linejoin:round;stroke-miterlimit:10;}
	.st34{clip-path:url(#SVGID_47_);fill:#FFFFFF;}
	.st35{clip-path:url(#SVGID_49_);fill:#FFFFFF;}
	.st36{clip-path:url(#SVGID_51_);fill:#FFFFFF;}
	
		.st37{clip-path:url(#SVGID_53_);fill:none;stroke:#FFFFFF;stroke-width:0.892;stroke-linecap:round;stroke-linejoin:round;stroke-miterlimit:10;}
	
		.st38{clip-path:url(#SVGID_55_);fill:none;stroke:#FFFFFF;stroke-width:0.892;stroke-linecap:round;stroke-linejoin:round;stroke-miterlimit:10;}
	.st39{clip-path:url(#SVGID_57_);fill:#FFFFFF;}
	.st40{clip-path:url(#SVGID_59_);fill:#FFFFFF;}
	.st41{opacity:0.54;clip-path:url(#SVGID_61_);fill:#FFFFFF;enable-background:new    ;}
	.st42{clip-path:url(#SVGID_63_);fill:#FFFFFF;}
	.st43{clip-path:url(#SVGID_65_);fill:#FFFFFF;}
	.st44{clip-path:url(#SVGID_67_);fill:none;stroke:#FFFFFF;stroke-width:0.892;stroke-miterlimit:10;}
	.st45{clip-path:url(#SVGID_69_);}
</style>
<g id="OBJECTS">
	<g>
		<g>
			
				<image style="overflow:visible;enable-background:new    ;" width="303" height="202" xlink:href="563FFCE99BE73445.png"  transform="matrix(1 0 0 1.0559 -0.7842 0)">
			</image>
		</g>
		<g>
			<g>
				<g>
					<defs>
						<rect id="SVGID_1_" y="6.1" width="301.8" height="201.2"/>
					</defs>
					<clipPath id="SVGID_2_">
						<use xlink:href="#SVGID_1_"  style="overflow:visible;"/>
					</clipPath>
					<path class="st0" d="M90.2,53.7H222c2.4,0,4.3,1.9,4.3,4.3v74.9c0,2.7-2.2,4.8-4.8,4.8H86.1V57.8C86.1,55.6,88,53.7,90.2,53.7z
						"/>
				</g>
			</g>
			<g>
				<g>
					<defs>
						<rect id="SVGID_3_" y="6.1" width="301.8" height="201.2"/>
					</defs>
					<clipPath id="SVGID_4_">
						<use xlink:href="#SVGID_3_"  style="overflow:visible;"/>
					</clipPath>
					<path class="st1" d="M83.9,65h134c1.7,0,3.1,1.4,3.1,3.1v77.8c0,1.7-1.4,3.1-3.1,3.1h-134c-1.7,0-3.1-1.4-3.1-3.1V68.1
						C80.8,66.3,82.2,65,83.9,65z"/>
				</g>
			</g>
			<g>
				<g>
					<defs>
						<rect id="SVGID_5_" y="6.1" width="301.8" height="201.2"/>
					</defs>
					<clipPath id="SVGID_6_">
						<use xlink:href="#SVGID_5_"  style="overflow:visible;"/>
					</clipPath>
					<path class="st2" d="M78,148.4v-4.6h-2.6c-0.2-0.8-0.5-1.5-0.9-2.2l1.8-1.8l-3.2-3.2l-1.8,1.8c-0.7-0.4-1.4-0.7-2.2-0.9v-2.6
						h-4.6v2.6c-0.8,0.2-1.5,0.5-2.2,0.9l-1.8-1.8l-3.2,3.2l1.8,1.8c-0.4,0.7-0.7,1.4-0.9,2.2h-2.6v4.6h2.6c0.2,0.8,0.5,1.5,0.9,2.2
						l-1.8,1.8l3.2,3.2l1.8-1.8c0.7,0.4,1.4,0.7,2.2,0.9v2.6h4.6v-2.6c0.8-0.2,1.5-0.5,2.2-0.9l1.8,1.8l3.2-3.2l-1.8-1.8
						c0.4-0.7,0.7-1.4,0.9-2.2H78z M66.9,150.2c-2.2,0-4-1.8-4-4s1.8-4,4-4s4,1.8,4,4C70.8,148.4,69.1,150.2,66.9,150.2z"/>
				</g>
			</g>
			<g>
				<g>
					<defs>
						
							<rect id="SVGID_7_" x="16.9" y="23.4" transform="matrix(0.9732 -0.2298 0.2298 0.9732 -24.0152 41.8802)" width="301.8" height="201.2"/>
					</defs>
					<clipPath id="SVGID_8_">
						<use xlink:href="#SVGID_7_"  style="overflow:visible;"/>
					</clipPath>
					<ellipse class="st3" cx="234.1" cy="42.9" rx="5.6" ry="5.6"/>
				</g>
			</g>
			<g>
				<g>
					<defs>
						<rect id="SVGID_9_" y="6.1" width="301.8" height="201.2"/>
					</defs>
					<clipPath id="SVGID_10_">
						<use xlink:href="#SVGID_9_"  style="overflow:visible;"/>
					</clipPath>
					<rect x="80.8" y="65" class="st4" width="140.2" height="83.3"/>
				</g>
			</g>
			<g>
				<g>
					<defs>
						<rect id="SVGID_11_" y="6.1" width="301.8" height="201.2"/>
					</defs>
					<clipPath id="SVGID_12_">
						<use xlink:href="#SVGID_11_"  style="overflow:visible;"/>
					</clipPath>
					<path class="st5" d="M84.1,65h133.6c1.8,0,3.3,1.5,3.3,3.3v0.3c0,1.8-1.5,3.3-3.3,3.3H84.1c-1.8,0-3.3-1.5-3.3-3.3v-0.3
						C80.8,66.5,82.3,65,84.1,65z"/>
				</g>
			</g>
			<g>
				<g>
					<defs>
						<rect id="SVGID_13_" y="6.1" width="301.8" height="201.2"/>
					</defs>
					<clipPath id="SVGID_14_">
						<use xlink:href="#SVGID_13_"  style="overflow:visible;"/>
					</clipPath>
					<g class="st6">
						
							<linearGradient id="SVGID_15_" gradientUnits="userSpaceOnUse" x1="183" y1="984.95" x2="213.0689" y2="984.95" gradientTransform="matrix(1 0 0 1 0 -876)">
							<stop  offset="0" style="stop-color:#9712C8"/>
							<stop  offset="0.1552" style="stop-color:#9B12C1"/>
							<stop  offset="0.3829" style="stop-color:#A612AD"/>
							<stop  offset="0.6552" style="stop-color:#B8138D"/>
							<stop  offset="0.9598" style="stop-color:#D01460"/>
							<stop  offset="1" style="stop-color:#D4145A"/>
						</linearGradient>
						<path class="st7" d="M213.1,134.1c0,2.6-2.1,4.7-4.7,4.7h-20.7c-2.6,0-4.7-2.1-4.7-4.7V83.9c0-2.6,2.1-4.7,4.7-4.7h20.7
							c2.6,0,4.7,2.1,4.7,4.7V134.1z"/>
						<path class="st8" d="M208.1,77.8H188c-3.4,0-6.2,2.8-6.2,6.2v50.1c0,3.4,2.8,6.2,6.2,6.2h20.1c3.4,0,6.2-2.8,6.2-6.2V84
							C214.3,80.5,211.5,77.8,208.1,77.8z M213.1,134.1c0,2.6-2.1,4.7-4.7,4.7h-20.7c-2.6,0-4.7-2.1-4.7-4.7V83.9
							c0-2.6,2.1-4.7,4.7-4.7h20.7c2.6,0,4.7,2.1,4.7,4.7V134.1z"/>
						<g>
							<path class="st8" d="M201.5,81.2h-6.8c-1.4,0-2.6-1.1-2.6-2.6l0,0h12l0,0C204,80.2,202.9,81.2,201.5,81.2z"/>
							<g>
								<rect x="194.6" y="79.5" class="st9" width="4.9" height="0.4"/>
								<path class="st9" d="M201.5,79.7c0,0.2-0.1,0.3-0.3,0.3s-0.3-0.1-0.3-0.3c0-0.2,0.1-0.3,0.3-0.3S201.5,79.5,201.5,79.7z"/>
							</g>
						</g>
					</g>
				</g>
			</g>
			<g>
				<g>
					<defs>
						<rect id="SVGID_16_" y="6.1" width="301.8" height="201.2"/>
					</defs>
					<clipPath id="SVGID_17_">
						<use xlink:href="#SVGID_16_"  style="overflow:visible;"/>
					</clipPath>
					<g class="st10">
						<g>
							<rect x="87.3" y="115.5" class="st9" width="23.6" height="1.5"/>
							<rect x="113.9" y="115.5" class="st11" width="16.6" height="1.5"/>
							<rect x="109.3" y="127.9" class="st12" width="16.6" height="1.5"/>
							<rect x="87.5" y="129.6" class="st9" width="20" height="1.5"/>
							<rect x="93.5" y="120" class="st12" width="17.4" height="1.5"/>
							<rect x="87.5" y="124.4" class="st9" width="10.9" height="1.5"/>
							<rect x="101.6" y="124.4" class="st11" width="9.3" height="1.5"/>
							<rect x="87.3" y="139.2" class="st11" width="13.7" height="1.5"/>
							<rect x="115.5" y="124" class="st9" width="12.9" height="1.5"/>
							<rect x="103.9" y="139.2" class="st12" width="17.1" height="1.5"/>
							<rect x="87.3" y="134.8" class="st12" width="28.2" height="1.5"/>
							<rect x="113.6" y="120" class="st9" width="2.1" height="1.5"/>
							<rect x="118.4" y="120" class="st9" width="2.1" height="1.5"/>
							<rect x="115.2" y="142.4" class="st9" width="2.1" height="1.5"/>
							<rect x="87.3" y="142.4" class="st9" width="24.2" height="1.5"/>
							<rect x="117.9" y="132.9" class="st11" width="11" height="1.5"/>
							<rect x="120" y="142.4" class="st11" width="8.7" height="1.5"/>
						</g>
						<g>
							<rect x="87.3" y="78.5" class="st9" width="23.4" height="1.5"/>
							<rect x="98.2" y="83" class="st11" width="12.6" height="1.5"/>
							<rect x="87.3" y="82.9" class="st9" width="3.6" height="1.5"/>
							<rect x="92.6" y="82.9" class="st9" width="3.6" height="1.5"/>
							<rect x="113.7" y="83" class="st9" width="16.6" height="1.5"/>
							<rect x="113.7" y="78.5" class="st12" width="16.6" height="1.5"/>
							<rect x="109.2" y="95.2" class="st11" width="16.6" height="1.5"/>
							<rect x="87.3" y="97.1" class="st9" width="20" height="1.5"/>
							<rect x="87.3" y="87.4" class="st12" width="23.4" height="1.5"/>
							<rect x="87.3" y="91.8" class="st12" width="10.9" height="1.5"/>
							<rect x="101.5" y="91.8" class="st9" width="9.3" height="1.5"/>
							<rect x="87.9" y="106.6" class="st11" width="12.9" height="1.5"/>
							<rect x="115.4" y="91.4" class="st9" width="12.9" height="1.5"/>
							<rect x="103.7" y="106.6" class="st9" width="17.1" height="1.5"/>
							<rect x="88.1" y="102.2" class="st9" width="27.2" height="1.5"/>
							<rect x="113.5" y="87.4" class="st9" width="2.1" height="1.5"/>
							<rect x="118.3" y="87.4" class="st9" width="2.1" height="1.5"/>
							<rect x="115.1" y="109.9" class="st11" width="2.1" height="1.5"/>
							<rect x="87.9" y="109.9" class="st9" width="23.4" height="1.5"/>
							<rect x="117.8" y="100.2" class="st12" width="11" height="1.5"/>
							<rect x="119.8" y="109.9" class="st12" width="8.7" height="1.5"/>
						</g>
						<g>
							<rect x="152.3" y="105.5" class="st9" width="23.6" height="1.5"/>
							<rect x="132.7" y="105.5" class="st12" width="16.6" height="1.5"/>
							<rect x="137.3" y="93.2" class="st9" width="16.6" height="1.5"/>
							<rect x="155.7" y="91.4" class="st11" width="20" height="1.5"/>
							<rect x="152.4" y="101" class="st11" width="17.4" height="1.5"/>
							<rect x="164.8" y="96.7" class="st12" width="10.9" height="1.5"/>
							<rect x="152.3" y="96.7" class="st11" width="9.3" height="1.5"/>
							<rect x="162.2" y="81.9" class="st11" width="13.7" height="1.5"/>
							<rect x="134.8" y="97.1" class="st9" width="12.9" height="1.5"/>
							<rect x="142.3" y="81.9" class="st9" width="17.1" height="1.5"/>
							<rect x="147.7" y="86.2" class="st9" width="28.2" height="1.5"/>
							<rect x="147.5" y="101" class="st12" width="2.1" height="1.5"/>
							<rect x="142.7" y="101" class="st11" width="2.1" height="1.5"/>
							<rect x="145.8" y="78.6" class="st9" width="2.1" height="1.5"/>
							<rect x="151.7" y="78.6" class="st13" width="24.2" height="1.5"/>
							<rect x="134.3" y="88.2" class="st12" width="11" height="1.5"/>
							<rect x="134.6" y="78.6" class="st11" width="8.7" height="1.5"/>
						</g>
						<g>
							<rect x="152.5" y="142.4" class="st9" width="23.4" height="1.5"/>
							<rect x="152.4" y="138.1" class="st11" width="12.6" height="1.5"/>
							<rect x="172.3" y="138.2" class="st9" width="3.6" height="1.5"/>
							<rect x="167" y="138.2" class="st12" width="3.6" height="1.5"/>
							<rect x="132.9" y="138.1" class="st9" width="16.6" height="1.5"/>
							<rect x="132.9" y="142.4" class="st11" width="16.6" height="1.5"/>
							<rect x="137.4" y="125.8" class="st12" width="16.6" height="1.5"/>
							<rect x="155.9" y="124" class="st11" width="20" height="1.5"/>
							<rect x="152.5" y="133.6" class="st9" width="23.4" height="1.5"/>
							<rect x="165" y="129.2" class="st12" width="10.9" height="1.5"/>
							<rect x="152.4" y="129.2" class="st9" width="9.3" height="1.5"/>
							<rect x="162.3" y="114.5" class="st9" width="12.9" height="1.5"/>
							<rect x="134.9" y="129.6" class="st14" width="12.9" height="1.5"/>
							<rect x="142.4" y="114.5" class="st12" width="17.1" height="1.5"/>
							<rect x="147.8" y="118.9" class="st9" width="27.2" height="1.5"/>
							<rect x="147.6" y="133.6" class="st12" width="2.1" height="1.5"/>
							<rect x="142.9" y="133.6" class="st14" width="2.1" height="1.5"/>
							<rect x="146" y="111.2" class="st9" width="2.1" height="1.5"/>
							<rect x="151.8" y="111.2" class="st11" width="23.4" height="1.5"/>
							<rect x="134.5" y="120.7" class="st11" width="11" height="1.5"/>
							<rect x="134.7" y="111.2" class="st9" width="8.7" height="1.5"/>
						</g>
					</g>
				</g>
			</g>
			<g>
				<g>
					<defs>
						<rect id="SVGID_18_" y="6.1" width="301.8" height="201.2"/>
					</defs>
					<clipPath id="SVGID_19_">
						<use xlink:href="#SVGID_18_"  style="overflow:visible;"/>
					</clipPath>
					<g class="st15">
						<path class="st16" d="M90.7,68.5c0,1-0.8,1.7-1.7,1.7c-1,0-1.7-0.8-1.7-1.7c0-1,0.8-1.7,1.7-1.7
							C89.9,66.8,90.7,67.6,90.7,68.5z"/>
						<path class="st17" d="M98.9,68.5c0,1-0.8,1.7-1.7,1.7c-1,0-1.7-0.8-1.7-1.7c0-1,0.8-1.7,1.7-1.7S98.9,67.6,98.9,68.5z"/>
						<path class="st18" d="M107.1,68.5c0,1-0.8,1.7-1.7,1.7c-1,0-1.7-0.8-1.7-1.7c0-1,0.8-1.7,1.7-1.7
							C106.3,66.8,107.1,67.6,107.1,68.5z"/>
					</g>
				</g>
			</g>
			<g>
				<g>
					<defs>
						<rect id="SVGID_20_" y="6.1" width="301.8" height="201.2"/>
					</defs>
					<clipPath id="SVGID_21_">
						<use xlink:href="#SVGID_20_"  style="overflow:visible;"/>
					</clipPath>
					<path class="st19" d="M195.5,88.2h-8.9c-0.7,0-1.2,0.5-1.2,1.2v8.9c0,0.7,0.5,1.2,1.2,1.2h8.9c0.7,0,1.2-0.5,1.2-1.2v-8.9
						C196.7,88.9,196.2,88.2,195.5,88.2z"/>
				</g>
			</g>
			<g>
				<g>
					<defs>
						<rect id="SVGID_22_" y="6.1" width="301.8" height="201.2"/>
					</defs>
					<clipPath id="SVGID_23_">
						<use xlink:href="#SVGID_22_"  style="overflow:visible;"/>
					</clipPath>
					<path class="st20" d="M209.4,88.2h-8.9c-0.7,0-1.2,0.5-1.2,1.2v8.9c0,0.7,0.5,1.2,1.2,1.2h8.9c0.7,0,1.2-0.5,1.2-1.2v-8.9
						C210.7,88.9,210.1,88.2,209.4,88.2z"/>
				</g>
			</g>
			<g>
				<g>
					<defs>
						<rect id="SVGID_24_" y="6.1" width="301.8" height="201.2"/>
					</defs>
					<clipPath id="SVGID_25_">
						<use xlink:href="#SVGID_24_"  style="overflow:visible;"/>
					</clipPath>
					<path class="st21" d="M195.5,104.1h-8.9c-0.7,0-1.2,0.5-1.2,1.2v8.9c0,0.7,0.5,1.2,1.2,1.2h8.9c0.7,0,1.2-0.5,1.2-1.2v-8.9
						C196.7,104.7,196.2,104.1,195.5,104.1z"/>
				</g>
			</g>
			<g>
				<g>
					<defs>
						<rect id="SVGID_26_" y="6.1" width="301.8" height="201.2"/>
					</defs>
					<clipPath id="SVGID_27_">
						<use xlink:href="#SVGID_26_"  style="overflow:visible;"/>
					</clipPath>
					<path class="st22" d="M209.4,104.1h-8.9c-0.7,0-1.2,0.5-1.2,1.2v8.9c0,0.7,0.5,1.2,1.2,1.2h8.9c0.7,0,1.2-0.5,1.2-1.2v-8.9
						C210.7,104.7,210.1,104.1,209.4,104.1z"/>
				</g>
			</g>
			<g>
				<g>
					<defs>
						<rect id="SVGID_28_" y="6.1" width="301.8" height="201.2"/>
					</defs>
					<clipPath id="SVGID_29_">
						<use xlink:href="#SVGID_28_"  style="overflow:visible;"/>
					</clipPath>
					<path class="st23" d="M195.5,119.9h-8.9c-0.7,0-1.2,0.5-1.2,1.2v8.9c0,0.7,0.5,1.2,1.2,1.2h8.9c0.7,0,1.2-0.5,1.2-1.2v-8.9
						C196.7,120.5,196.2,119.9,195.5,119.9z"/>
				</g>
			</g>
			<g>
				<g>
					<defs>
						<rect id="SVGID_30_" y="6.1" width="301.8" height="201.2"/>
					</defs>
					<clipPath id="SVGID_31_">
						<use xlink:href="#SVGID_30_"  style="overflow:visible;"/>
					</clipPath>
					<path class="st24" d="M209.4,119.9h-8.9c-0.7,0-1.2,0.5-1.2,1.2v8.9c0,0.7,0.5,1.2,1.2,1.2h8.9c0.7,0,1.2-0.5,1.2-1.2v-8.9
						C210.7,120.5,210.1,119.9,209.4,119.9z"/>
				</g>
			</g>
			<g>
				<g>
					<defs>
						<rect id="SVGID_32_" y="6.1" width="301.8" height="201.2"/>
					</defs>
					<clipPath id="SVGID_33_">
						<use xlink:href="#SVGID_32_"  style="overflow:visible;"/>
					</clipPath>
					<polygon class="st25" points="195.6,92.6 191.3,90.7 187,92.6 188.2,92.6 188.2,97.2 190.5,97.2 190.5,94.7 192.1,94.7 
						192.1,97.2 194.4,97.2 194.4,92.6 					"/>
				</g>
			</g>
			<g>
				<g>
					<defs>
						<rect id="SVGID_34_" y="6.1" width="301.8" height="201.2"/>
					</defs>
					<clipPath id="SVGID_35_">
						<use xlink:href="#SVGID_34_"  style="overflow:visible;"/>
					</clipPath>
					<g class="st26">
						<rect x="201.5" y="110.2" class="st27" width="1.5" height="3.3"/>
						<rect x="204.2" y="108.1" class="st27" width="1.5" height="5.4"/>
						<rect x="207" y="106.1" class="st27" width="1.5" height="7.4"/>
					</g>
				</g>
			</g>
			<g>
				<g>
					<defs>
						<rect id="SVGID_36_" y="6.1" width="301.8" height="201.2"/>
					</defs>
					<clipPath id="SVGID_37_">
						<use xlink:href="#SVGID_36_"  style="overflow:visible;"/>
					</clipPath>
					<path class="st28" d="M193.7,122.9h-5.2c-0.6,0-1.1,0.5-1.1,1.1v2.6c0,0.5,0.3,0.9,0.7,1.1l0,0l0.7,1.3l0.7-1.3h4.3
						c0.6,0,1.1-0.5,1.1-1.1V124C194.8,123.4,194.3,122.9,193.7,122.9z M189,126.1c-0.4,0-0.7-0.3-0.7-0.7c0-0.4,0.3-0.7,0.7-0.7
						s0.7,0.3,0.7,0.7C189.8,125.7,189.4,126.1,189,126.1z M191.1,126.1c-0.4,0-0.7-0.3-0.7-0.7c0-0.4,0.3-0.7,0.7-0.7
						s0.7,0.3,0.7,0.7C191.8,125.7,191.5,126.1,191.1,126.1z M193.1,126.1c-0.4,0-0.7-0.3-0.7-0.7c0-0.4,0.3-0.7,0.7-0.7
						s0.7,0.3,0.7,0.7C193.8,125.7,193.5,126.1,193.1,126.1z"/>
				</g>
			</g>
			<g>
				<g>
					<defs>
						<rect id="SVGID_38_" y="6.1" width="301.8" height="201.2"/>
					</defs>
					<clipPath id="SVGID_39_">
						<use xlink:href="#SVGID_38_"  style="overflow:visible;"/>
					</clipPath>
					<path class="st29" d="M243.3,64v-6.7h-3.7c-0.3-1.1-0.7-2.2-1.3-3.2l2.7-2.7l-4.7-4.7l-2.7,2.7c-1-0.6-2-1-3.2-1.3v-3.7h-6.7
						v3.7c-1.1,0.3-2.2,0.7-3.2,1.3l-2.7-2.7l-4.7,4.7l2.7,2.7c-0.6,1-1,2-1.3,3.2h-3.7V64h3.7c0,0.2,0.1,0.4,0.2,0.5h6.9v7.9
						c0.7,0.3,1.4,0.6,2.2,0.8v3.7h6.7v-3.7c1.1-0.3,2.2-0.7,3.2-1.3l2.7,2.7l4.7-4.7l-2.7-2.7c0.6-1,1-2,1.3-3.2
						C239.7,64,243.3,64,243.3,64z M227,66.3c-3.2,0-5.8-2.6-5.8-5.8s2.6-5.8,5.8-5.8s5.8,2.6,5.8,5.8S230.2,66.3,227,66.3z"/>
				</g>
			</g>
			<g>
				<g>
					<defs>
						<rect id="SVGID_40_" y="6.1" width="301.8" height="201.2"/>
					</defs>
					<clipPath id="SVGID_41_">
						<use xlink:href="#SVGID_40_"  style="overflow:visible;"/>
					</clipPath>
					<g class="st30">
						<path class="st31" d="M115.5,37.3h-14.1c-1.1,0-2,0.9-2,2v14.1c0,1.1,0.9,2,2,2h14.1c1.1,0,2-0.9,2-2V39.3
							C117.5,38.2,116.6,37.3,115.5,37.3z"/>
						<g>
							<circle class="st27" cx="108.7" cy="43.2" r="3"/>
							<path class="st27" d="M110.3,46.1h-1.6h-1.6c-1.9,0-3.5,1.6-3.5,3.5v2.8h10.2v-2.8C113.8,47.7,112.2,46.1,110.3,46.1z"/>
						</g>
					</g>
				</g>
			</g>
			<g>
				<g>
					<defs>
						<rect id="SVGID_42_" y="6.1" width="301.8" height="201.2"/>
					</defs>
					<clipPath id="SVGID_43_">
						<use xlink:href="#SVGID_42_"  style="overflow:visible;"/>
					</clipPath>
					<g class="st32">
						<path class="st27" d="M266.3,135.8c1.4-1.6,1.3-4-0.2-5.4c-1.6-1.4-4-1.3-5.4,0.2c-1.3,1.4-1.3,3.5-0.3,4.9l-2.9,3.1l1,1
							l2.9-3.1C263,137.4,265,137.2,266.3,135.8z M261.5,135.4c-1.2-1.1-1.3-3-0.2-4.3c1.1-1.2,3-1.3,4.3-0.2c1.2,1.1,1.3,3,0.2,4.3
							C264.6,136.4,262.7,136.6,261.5,135.4z"/>
						<g>
							<path class="st31" d="M269.8,125.2h-14.1c-1.1,0-2,0.9-2,2v14.1c0,1.1,0.9,2,2,2h14.1c1.1,0,2-0.9,2-2v-14.2
								C271.8,126.1,270.9,125.2,269.8,125.2z"/>
						</g>
					</g>
				</g>
			</g>
			<g>
				<g>
					<defs>
						<rect id="SVGID_44_" y="6.1" width="301.8" height="201.2"/>
					</defs>
					<clipPath id="SVGID_45_">
						<use xlink:href="#SVGID_44_"  style="overflow:visible;"/>
					</clipPath>
					<polyline class="st33" points="272.9,135.9 279.2,135.9 279.2,107.9 233.3,107.9 233.3,94 205.3,94 					"/>
				</g>
			</g>
			<g>
				<g>
					<defs>
						<rect id="SVGID_46_" y="6.1" width="301.8" height="201.2"/>
					</defs>
					<clipPath id="SVGID_47_">
						<use xlink:href="#SVGID_46_"  style="overflow:visible;"/>
					</clipPath>
					<path class="st34" d="M206.3,94c0,0.6-0.5,1-1,1c-0.6,0-1-0.5-1-1c0-0.6,0.5-1,1-1C205.8,92.9,206.3,93.4,206.3,94z"/>
				</g>
			</g>
			<g>
				<g>
					<defs>
						<rect id="SVGID_48_" y="6.1" width="301.8" height="201.2"/>
					</defs>
					<clipPath id="SVGID_49_">
						<use xlink:href="#SVGID_48_"  style="overflow:visible;"/>
					</clipPath>
					<circle class="st35" cx="98.1" cy="45.5" r="1"/>
				</g>
			</g>
			<g>
				<g>
					<defs>
						<rect id="SVGID_50_" y="6.1" width="301.8" height="201.2"/>
					</defs>
					<clipPath id="SVGID_51_">
						<use xlink:href="#SVGID_50_"  style="overflow:visible;"/>
					</clipPath>
					<path class="st36" d="M274.4,135.9c0,0.6-0.5,1-1,1c-0.6,0-1-0.5-1-1c0-0.6,0.5-1,1-1S274.4,135.2,274.4,135.9z"/>
				</g>
			</g>
			<g>
				<g>
					<defs>
						<rect id="SVGID_52_" y="6.1" width="301.8" height="201.2"/>
					</defs>
					<clipPath id="SVGID_53_">
						<use xlink:href="#SVGID_52_"  style="overflow:visible;"/>
					</clipPath>
					<polyline class="st37" points="37.8,150.9 37.8,177.6 205,177.6 205,126 					"/>
				</g>
			</g>
			<g>
				<g>
					<defs>
						<rect id="SVGID_54_" y="6.1" width="301.8" height="201.2"/>
					</defs>
					<clipPath id="SVGID_55_">
						<use xlink:href="#SVGID_54_"  style="overflow:visible;"/>
					</clipPath>
					<polyline class="st38" points="97.8,45.5 74.5,45.5 74.5,107.1 37.8,107.1 37.8,123.7 					"/>
				</g>
			</g>
			<g>
				<g>
					<defs>
						<rect id="SVGID_56_" y="6.1" width="301.8" height="201.2"/>
					</defs>
					<clipPath id="SVGID_57_">
						<use xlink:href="#SVGID_56_"  style="overflow:visible;"/>
					</clipPath>
					<path class="st39" d="M206,125.6c0,0.6-0.5,1-1,1c-0.6,0-1-0.5-1-1c0-0.6,0.5-1,1-1C205.5,124.5,206,125,206,125.6z"/>
				</g>
			</g>
			<g>
				<g>
					<defs>
						<rect id="SVGID_58_" y="6.1" width="301.8" height="201.2"/>
					</defs>
					<clipPath id="SVGID_59_">
						<use xlink:href="#SVGID_58_"  style="overflow:visible;"/>
					</clipPath>
					<path class="st40" d="M192.1,109.9c0,0.6-0.5,1-1,1c-0.6,0-1-0.5-1-1c0-0.6,0.5-1,1-1C191.6,108.8,192.1,109.2,192.1,109.9z"/>
				</g>
			</g>
			<g>
				<g>
					<defs>
						<rect id="SVGID_60_" y="6.1" width="301.8" height="201.2"/>
					</defs>
					<clipPath id="SVGID_61_">
						<use xlink:href="#SVGID_60_"  style="overflow:visible;"/>
					</clipPath>
					<path class="st41" d="M47.5,125.7H28.9c-1.4,0-2.6,1.1-2.6,2.6v18.5c0,1.4,1.1,2.6,2.6,2.6h18.5c1.4,0,2.6-1.1,2.6-2.6v-18.5
						C50,126.9,48.9,125.7,47.5,125.7z"/>
				</g>
			</g>
			<g>
				<g>
					<defs>
						<rect id="SVGID_62_" y="6.1" width="301.8" height="201.2"/>
					</defs>
					<clipPath id="SVGID_63_">
						<use xlink:href="#SVGID_62_"  style="overflow:visible;"/>
					</clipPath>
					<path class="st42" d="M38.9,123.7c0,0.6-0.5,1-1,1c-0.6,0-1-0.5-1-1s0.5-1,1-1C38.4,122.6,38.9,123.1,38.9,123.7z"/>
				</g>
			</g>
			<g>
				<g>
					<defs>
						<rect id="SVGID_64_" y="6.1" width="301.8" height="201.2"/>
					</defs>
					<clipPath id="SVGID_65_">
						<use xlink:href="#SVGID_64_"  style="overflow:visible;"/>
					</clipPath>
					<path class="st43" d="M38.9,151.4c0,0.6-0.5,1-1,1c-0.6,0-1-0.5-1-1c0-0.6,0.5-1,1-1C38.4,150.2,38.9,150.8,38.9,151.4z"/>
				</g>
			</g>
			<g>
				<g>
					<defs>
						<rect id="SVGID_66_" y="6.1" width="301.8" height="201.2"/>
					</defs>
					<clipPath id="SVGID_67_">
						<use xlink:href="#SVGID_66_"  style="overflow:visible;"/>
					</clipPath>
					<polyline class="st44" points="170.3,177.6 169.7,109.8 191.1,109.8 					"/>
				</g>
			</g>
			<g>
				<g>
					<defs>
						<rect id="SVGID_68_" y="6.1" width="301.8" height="201.2"/>
					</defs>
					<clipPath id="SVGID_69_">
						<use xlink:href="#SVGID_68_"  style="overflow:visible;"/>
					</clipPath>
					<g class="st45">
						<g>
							<path class="st9" d="M45.7,142.1H31.5v-9.9h14.3L45.7,142.1L45.7,142.1z M32.4,141.2h12.5v-8.1H32.4V141.2z"/>
						</g>
						<g>
							<polygon class="st9" points="38.5,138.8 31.6,133.1 32.2,132.4 38.5,137.6 45,132.4 45.6,133.1 							"/>
						</g>
					</g>
				</g>
			</g>
		</g>
	</g>
</g>
<g id="BACKGROUND">
</g>
</svg>
