<svg id="dribbble" xmlns="http://www.w3.org/2000/svg" width="43.33" height="43.33" viewBox="0 0 43.33 43.33">
  <path id="Path_30" data-name="Path 30" d="M184.268,9.283a8.8,8.8,0,0,0,2.26-4.4,20.263,20.263,0,0,0-20.54-3.505,52.771,52.771,0,0,1,9.532,13.276A21.61,21.61,0,0,0,184.268,9.283Zm0,0" transform="translate(-151.301)" fill="#f7f7f7"/>
  <path id="Path_31" data-name="Path 31" d="M306.922,88.644a23.744,23.744,0,0,1-9.469,5.953c.49,1.075.941,2.173,1.365,3.285a29.806,29.806,0,0,1,6.267-.684,29.447,29.447,0,0,1,9.667,1.623c0-.138.021-.273.021-.412a20.481,20.481,0,0,0-5.39-13.839A12.008,12.008,0,0,1,306.922,88.644Zm0,0" transform="translate(-271.443 -77.24)" fill="#f7f7f7"/>
  <path id="Path_32" data-name="Path 32" d="M5.848,44.171a47.964,47.964,0,0,0,8.166.717A43.993,43.993,0,0,0,25.976,43.25,50.114,50.114,0,0,0,16.405,30.3,21.018,21.018,0,0,0,5.848,44.171Zm0,0" transform="translate(-5.376 -27.855)" fill="#f7f7f7"/>
  <path id="Path_33" data-name="Path 33" d="M339.357,272.695A26.9,26.9,0,0,0,329.9,271a27.551,27.551,0,0,0-5.453.551,59.889,59.889,0,0,1,3,17.07A20.742,20.742,0,0,0,339.357,272.695Zm0,0" transform="translate(-296.256 -247.125)" fill="#f7f7f7"/>
  <path id="Path_34" data-name="Path 34" d="M0,221.265a20.861,20.861,0,0,0,7.627,15.929,17.506,17.506,0,0,1,4.289-9.016,24.328,24.328,0,0,1,11.107-6.845c-.41-1.058-.858-2.1-1.331-3.119a46.164,46.164,0,0,1-13.053,1.839A50.411,50.411,0,0,1,.1,219.307c-.061.646-.1,1.3-.1,1.959Zm0,0" transform="translate(0 -198.601)" fill="#f7f7f7"/>
  <path id="Path_35" data-name="Path 35" d="M126.292,291.252a14.629,14.629,0,0,0-3.839,9.01,20.452,20.452,0,0,0,16.891,2.226,57.506,57.506,0,0,0-2.945-17.414A21.913,21.913,0,0,0,126.292,291.252Zm0,0" transform="translate(-111.76 -260.063)" fill="#f7f7f7"/>
</svg>
