<?xml version="1.0" encoding="utf-8"?>
<!-- Generator: Adobe Illustrator 25.0.0, SVG Export Plug-In . SVG Version: 6.00 Build 0)  -->
<svg version="1.1" id="dribbble" xmlns="http://www.w3.org/2000/svg" xmlns:xlink="http://www.w3.org/1999/xlink" x="0px" y="0px"
	 viewBox="0 0 43.3 43.3" style="enable-background:new 0 0 43.3 43.3;" xml:space="preserve">
<style type="text/css">
	.st0{fill:#1a1a1a;}
</style>
<path id="Path_30" class="st0" d="M33,9.3c1.2-1.2,1.9-2.7,2.3-4.4C29.6,0,21.7-1.3,14.7,1.4c3.8,3.9,7.1,8.4,9.5,13.3
	C27.5,13.6,30.5,11.7,33,9.3z"/>
<path id="Path_31" class="st0" d="M35.5,11.4c-2.6,2.7-5.9,4.8-9.5,6c0.5,1.1,0.9,2.2,1.4,3.3c2.1-0.4,4.2-0.7,6.3-0.7
	c3.3,0,6.6,0.5,9.7,1.6c0-0.1,0-0.3,0-0.4c0-5.1-1.9-10.1-5.4-13.8C37.4,8.8,36.6,10.2,35.5,11.4z"/>
<path id="Path_32" class="st0" d="M0.5,16.3C3.2,16.8,5.9,17,8.6,17c4,0,8.1-0.5,12-1.6c-2.5-4.8-5.7-9.2-9.6-13
	C5.7,5.3,1.8,10.4,0.5,16.3z"/>
<path id="Path_33" class="st0" d="M43.1,25.6c-3-1.1-6.2-1.7-9.5-1.7c-1.8,0-3.7,0.2-5.5,0.6c1.8,5.5,2.8,11.3,3,17.1
	C37.6,38.6,42.1,32.6,43.1,25.6z"/>
<path id="Path_34" class="st0" d="M0,22.7c0.1,6.2,2.9,12,7.6,15.9c0.5-3.4,2-6.5,4.3-9c3-3.3,6.9-5.6,11.1-6.8
	c-0.4-1.1-0.9-2.1-1.3-3.1c-4.2,1.2-8.6,1.9-13.1,1.8c-2.9,0-5.7-0.3-8.5-0.7C0,21.4,0,22,0,22.7L0,22.7z"/>
<path id="Path_35" class="st0" d="M14.5,31.2c-2.3,2.5-3.6,5.7-3.8,9c5,3.2,11.2,4,16.9,2.2c-0.1-5.9-1.1-11.8-2.9-17.4
	C20.8,26.1,17.3,28.2,14.5,31.2z"/>
</svg>
