<svg id="github-footer" xmlns="http://www.w3.org/2000/svg" width="43.33" height="43.33" viewBox="0 0 43.33 43.33">
<style type="text/css">
.st88{fill:#ffffff;}
	#github-footer:hover .st88{
    cursor:pointer !important;
    fill:#9712C8 !important;
    transition-timing-function: ease-in;
    transition: 1s;

</style>
  <path  class="st88" id="Path_36" data-name="Path 36" d="M40.424,16.426a21.849,21.849,0,0,0-7.884-8.082A20.794,20.794,0,0,0,21.665,5.365,20.8,20.8,0,0,0,10.79,8.343a21.847,21.847,0,0,0-7.885,8.082A22.143,22.143,0,0,0,0,27.572,21.948,21.948,0,0,0,4.133,40.628,21.26,21.26,0,0,0,14.81,48.652a1.238,1.238,0,0,0,1.128-.2,1.144,1.144,0,0,0,.367-.867q0-.087-.014-1.561t-.014-2.573l-.649.115a8.077,8.077,0,0,1-1.566.1,11.647,11.647,0,0,1-1.96-.2,4.33,4.33,0,0,1-1.89-.867A3.667,3.667,0,0,1,8.97,40.817l-.282-.665A7.26,7.26,0,0,0,7.8,38.677a3.429,3.429,0,0,0-1.227-1.1l-.2-.145a2.091,2.091,0,0,1-.367-.347,1.592,1.592,0,0,1-.254-.4q-.085-.2.141-.333a1.79,1.79,0,0,1,.818-.129l.564.086a4.075,4.075,0,0,1,1.4.694,4.623,4.623,0,0,1,1.368,1.5,5.057,5.057,0,0,0,1.566,1.808,3.266,3.266,0,0,0,1.848.621,7.832,7.832,0,0,0,1.608-.144,5.516,5.516,0,0,0,1.269-.434,4.732,4.732,0,0,1,1.382-2.979,18.888,18.888,0,0,1-2.891-.521,11.358,11.358,0,0,1-2.651-1.128A7.642,7.642,0,0,1,9.9,33.789,9.4,9.4,0,0,1,8.42,30.753a14.776,14.776,0,0,1-.578-4.337,8.553,8.553,0,0,1,2.229-5.957,7.954,7.954,0,0,1,.2-5.9,3.866,3.866,0,0,1,2.426.39,16.773,16.773,0,0,1,2.355,1.113q.748.462,1.2.781a19.893,19.893,0,0,1,10.833,0l1.072-.694a15.023,15.023,0,0,1,2.595-1.273,3.615,3.615,0,0,1,2.286-.318,7.876,7.876,0,0,1,.225,5.9,8.555,8.555,0,0,1,2.229,5.957,14.942,14.942,0,0,1-.578,4.352A9.034,9.034,0,0,1,33.415,33.8a7.932,7.932,0,0,1-2.285,1.923,11.379,11.379,0,0,1-2.652,1.128,18.869,18.869,0,0,1-2.891.521,5.222,5.222,0,0,1,1.466,4.106v6.1a1.166,1.166,0,0,0,.353.867,1.2,1.2,0,0,0,1.114.2A21.257,21.257,0,0,0,39.2,40.627,21.953,21.953,0,0,0,43.33,27.572,22.161,22.161,0,0,0,40.424,16.426Z" transform="translate(0 -5.365)" fill="#f7f7f7"/>
</svg>
