<?xml version="1.0" encoding="utf-8"?>
<!-- Generator: Adobe Illustrator 25.0.0, SVG Export Plug-In . SVG Version: 6.00 Build 0)  -->
<svg version="1.1" id="github" xmlns="http://www.w3.org/2000/svg" xmlns:xlink="http://www.w3.org/1999/xlink" x="0px" y="0px"
	 viewBox="0 0 43.3 43.3" style="enable-background:new 0 0 43.3 43.3;" xml:space="preserve">
<style type="text/css">
	.st0{fill:#1a1a1a;}
</style>
<path id="Path_36" class="st0" d="M40.4,11.1c-1.9-3.3-4.6-6.1-7.9-8.1c-3.3-2-7-3-10.9-3c-3.8,0-7.6,1-10.9,3c-3.3,2-6,4.7-7.9,8.1
	C1,14.5,0,18.3,0,22.2c-0.1,4.7,1.4,9.3,4.1,13.1c2.6,3.8,6.3,6.6,10.7,8c0.4,0.1,0.8,0,1.1-0.2c0.2-0.2,0.4-0.5,0.4-0.9
	c0-0.1,0-0.6,0-1.6s0-1.8,0-2.6l-0.6,0.1c-0.5,0.1-1,0.1-1.6,0.1c-0.7,0-1.3-0.1-2-0.2c-0.7-0.1-1.3-0.4-1.9-0.9
	c-0.6-0.5-1-1.1-1.2-1.8l-0.3-0.7c-0.2-0.5-0.5-1-0.9-1.5c-0.3-0.5-0.7-0.8-1.2-1.1l-0.2-0.1C6.2,32,6.1,31.9,6,31.7
	c-0.1-0.1-0.2-0.3-0.3-0.4c-0.1-0.1,0-0.2,0.1-0.3c0.3-0.1,0.5-0.2,0.8-0.1l0.6,0.1c0.5,0.1,1,0.4,1.4,0.7c0.6,0.4,1,0.9,1.4,1.5
	c0.4,0.7,0.9,1.3,1.6,1.8c0.5,0.4,1.2,0.6,1.8,0.6c0.5,0,1.1,0,1.6-0.1c0.4-0.1,0.9-0.2,1.3-0.4c0.1-1.1,0.6-2.2,1.4-3
	c-1-0.1-1.9-0.3-2.9-0.5c-0.9-0.3-1.8-0.6-2.7-1.1c-0.9-0.5-1.7-1.1-2.3-1.9c-0.7-0.9-1.2-1.9-1.5-3C8,24,7.8,22.5,7.8,21.1
	c-0.1-2.2,0.7-4.3,2.2-6c-0.7-1.9-0.6-4,0.2-5.9c0.8-0.1,1.7,0,2.4,0.4c0.8,0.3,1.6,0.7,2.4,1.1c0.5,0.3,0.9,0.6,1.2,0.8
	c3.5-1,7.3-1,10.8,0l1.1-0.7c0.8-0.5,1.7-0.9,2.6-1.3C31.5,9.2,32.3,9,33,9.2c0.8,1.9,0.9,4,0.2,5.9c1.5,1.6,2.3,3.8,2.2,6
	c0,1.5-0.2,2.9-0.6,4.4c-0.3,1.1-0.8,2.1-1.5,3c-0.6,0.8-1.4,1.4-2.3,1.9c-0.8,0.5-1.7,0.9-2.7,1.1c-0.9,0.2-1.9,0.4-2.9,0.5
	c1.1,1.1,1.6,2.6,1.5,4.1v6.1c0,0.3,0.1,0.6,0.4,0.9c0.3,0.2,0.7,0.3,1.1,0.2c4.3-1.5,8.1-4.3,10.7-8c2.7-3.8,4.2-8.4,4.1-13.1
	C43.4,18.3,42.4,14.5,40.4,11.1z"/>
</svg>
