<svg xmlns="http://www.w3.org/2000/svg" width="1280.579" height="872" viewBox="0 0 1280.579 872">
  <g id="Group_44" data-name="Group 44" opacity="0.029">
    <path id="Path_21" data-name="Path 21" d="M246.793.8H0l378.415,641.66h115.17L644.4,392.926s-41.132,54.843-117.912,27.421c0,0-41.132-19.2-87.749-98.717S246.793.8,246.793.8Z" transform="translate(0 21.137)" fill="#1a1a1a"/>
    <path id="Path_22" data-name="Path 22" d="M201.814,364.709H445.779L242.86,19.2,31.6,80.906Z" transform="translate(834.8 507.291)" fill="#1a1a1a"/>
    <g id="Group_4" data-name="Group 4" transform="translate(488.101)">
      <path id="Path_23" data-name="Path 23" d="M27.7,19.874Z" transform="translate(243.772 492.906)" fill="#1a1a1a"/>
      <path id="Path_24" data-name="Path 24" d="M272.819,252.277c35.648-65.811,104.2-112.428,183.723-112.428a208.4,208.4,0,0,1,0,416.805q-53.472,0-98.717-24.679l52.1,76.78c2.742,0,24.679-2.742,13.711,0C590.907,597.786,675.914,488.1,675.914,318.088,675.914,142.591,533.322,0,357.825,0,185.071,0,108.291,145.333,36.995,320.83L17.8,370.189s24.679,82.264,145.333,60.327L272.819,252.277" transform="translate(-17.8)" fill="#1a1a1a"/>
      <path id="Path_25" data-name="Path 25" d="M30.2,7.7" transform="translate(309.825 203.445)" fill="#1a1a1a"/>
      <path id="Path_26" data-name="Path 26" d="M26.2,11.9" transform="translate(204.14 314.415)" fill="#1a1a1a"/>
      <path id="Path_27" data-name="Path 27" d="M21.1,285.956,185.628,9" transform="translate(69.391 237.792)" fill="#1a1a1a"/>
      <path id="Path_28" data-name="Path 28" d="M27.7,18.7Z" transform="translate(243.772 494.08)" fill="#1a1a1a"/>
    </g>
    <circle id="Ellipse_3" data-name="Ellipse 3" cx="52.101" cy="52.101" r="52.101" transform="translate(814.415 446.969)" fill="#1a1a1a"/>
  </g>
</svg>
