<svg xmlns="http://www.w3.org/2000/svg" xmlns:xlink="http://www.w3.org/1999/xlink" width="136.147" height="94.475" viewBox="0 0 136.147 94.475">
  <defs>
    <linearGradient id="linear-gradient" x1="0.621" y1="0.926" x2="0.654" y2="0.916" gradientUnits="objectBoundingBox">
      <stop offset="0" stop-color="#ae033c"/>
      <stop offset="1" stop-color="#9712c8"/>
    </linearGradient>
  </defs>
  <g id="Group_59" data-name="Group 59" transform="translate(-72.36 -27.377)">
    <g id="Logo_header" transform="translate(72.36 27.377)">
      <g id="svg_logo" data-name="svg logo" transform="translate(0)">
        <g id="Group_1" data-name="Group 1" transform="translate(84.286 39.911)">
          <path id="Path_2" data-name="Path 2" d="M26.412,97.847A1.38,1.38,0,0,1,27,97.7a1.408,1.408,0,0,1,.879.293,1.017,1.017,0,0,1,.366.733,1.041,1.041,0,0,1-.147.44l-3.517,7.18a1.154,1.154,0,0,1-.513.513,1.331,1.331,0,0,1-1.465,0,1.712,1.712,0,0,1-.513-.513l-3.517-7.18a.929.929,0,0,1-.073-.44.9.9,0,0,1,.366-.733,1.408,1.408,0,0,1,.879-.293,1.38,1.38,0,0,1,.586.147c.147.073.293.293.44.44l2.564,5.641L25.9,98.286A3.186,3.186,0,0,0,26.412,97.847Z" transform="translate(-18.5 -97.627)" fill="#9712c8"/>
          <path id="Path_3" data-name="Path 3" d="M35.993,106.784a1.168,1.168,0,0,1-.293-.879V98.872a1.248,1.248,0,0,1,2.051-.879,1.213,1.213,0,0,1,.366.879v7.033a1.213,1.213,0,0,1-.366.879,1.168,1.168,0,0,1-.879.293A.942.942,0,0,1,35.993,106.784Z" transform="translate(-23.099 -97.627)" fill="#9712c8"/>
          <path id="Path_4" data-name="Path 4" d="M51.985,106.252a1.017,1.017,0,0,1-.366.733,1.1,1.1,0,0,1-.806.293,1.38,1.38,0,0,1-.586-.147.855.855,0,0,1-.44-.44L48.1,104.2c-.147-.147-.22-.293-.366-.366a1.059,1.059,0,0,0-.513-.147h-.879v2.344a1.176,1.176,0,1,1-2.344,0V99a.913.913,0,0,1,.293-.806A1.333,1.333,0,0,1,45.1,97.9h3.3a3.823,3.823,0,0,1,2.564.733,2.608,2.608,0,0,1,.879,2.125,2.673,2.673,0,0,1-.586,1.758,2.6,2.6,0,0,1-1.612.952,2.193,2.193,0,0,1,.733.293,2.8,2.8,0,0,1,.659.659l.806,1.172A2.139,2.139,0,0,1,51.985,106.252Zm-2.857-4.689a1.07,1.07,0,0,0,0-1.612,2.07,2.07,0,0,0-1.172-.293H46.271v2.2h1.685A2.942,2.942,0,0,0,49.128,101.563Z" transform="translate(-25.318 -97.68)" fill="#9712c8"/>
          <path id="Path_5" data-name="Path 5" d="M67.87,106.025a1.017,1.017,0,0,1-.366.733,1.1,1.1,0,0,1-.806.293,1.724,1.724,0,0,1-.586-.147,1.077,1.077,0,0,1-.366-.44l-.586-1.319H60.911l-.586,1.319a.75.75,0,0,1-.366.44,1.38,1.38,0,0,1-.586.147,1.1,1.1,0,0,1-.806-.293,1.017,1.017,0,0,1-.366-.733,1.864,1.864,0,0,1,.147-.513l3.517-7.18a1.154,1.154,0,0,1,.513-.513,1.331,1.331,0,0,1,1.465,0,1.712,1.712,0,0,1,.513.513l3.517,7.18Zm-3.443-2.711-1.319-2.93-1.319,2.93Z" transform="translate(-29.115 -97.6)" fill="#9712c8"/>
        </g>
        <g id="Group_2" data-name="Group 2" transform="translate(87.136 52.363)">
          <path id="Path_6" data-name="Path 6" d="M17.048,121.914a.443.443,0,0,1-.22.44,1.551,1.551,0,0,1-.513.22.549.549,0,0,1-.366-.073c-.073-.073-.22-.147-.293-.293l-1.172-1.685a.572.572,0,0,0-.293-.293.554.554,0,0,0-.293-.073h-.586v1.538a.807.807,0,1,1-1.612,0v-4.689a.832.832,0,0,1,.22-.586.721.721,0,0,1,.586-.22h2.2a2.325,2.325,0,0,1,1.685.513,1.763,1.763,0,0,1,.586,1.392,2.027,2.027,0,0,1-.366,1.172,2.328,2.328,0,0,1-1.1.659.665.665,0,0,1,.513.22,1.244,1.244,0,0,1,.44.44l.513.806A1.43,1.43,0,0,1,17.048,121.914Zm-1.9-3.15a.665.665,0,0,0,.22-.513.721.721,0,0,0-.22-.586,1.1,1.1,0,0,0-.733-.147h-1.1v1.465h1.1A.972.972,0,0,0,15.143,118.764Z" transform="translate(-11.7 -116.2)" fill="#ae033c"/>
          <path id="Path_7" data-name="Path 7" d="M22.065,122.234a3.924,3.924,0,0,1-1.1-1.1,4.059,4.059,0,0,1,0-3.37,2.02,2.02,0,0,1,1.1-1.1,2.918,2.918,0,0,1,1.612-.366,3.73,3.73,0,0,1,1.612.366,3.924,3.924,0,0,1,1.1,1.1,4.059,4.059,0,0,1,0,3.37,2.02,2.02,0,0,1-1.1,1.1,2.918,2.918,0,0,1-1.612.366A3.992,3.992,0,0,1,22.065,122.234Zm2.784-1.392a2.184,2.184,0,0,0,.366-1.465,2.694,2.694,0,0,0-.366-1.465,1.558,1.558,0,0,0-1.1-.513,1.318,1.318,0,0,0-1.1.513,2.184,2.184,0,0,0-.366,1.465,2.694,2.694,0,0,0,.366,1.465,1.233,1.233,0,0,0,1.1.513A1.318,1.318,0,0,0,24.849,120.842Z" transform="translate(-14.08 -116.227)" fill="#ae033c"/>
          <path id="Path_8" data-name="Path 8" d="M37.181,116.536a.832.832,0,0,1,.22.586v4.762a.733.733,0,0,1-1.465,0V119.32l-1.026,1.832a.793.793,0,0,1-.293.366.531.531,0,0,1-.733,0,.732.732,0,0,1-.293-.366l-1.026-1.758v2.564a.733.733,0,0,1-1.465,0V117.2a.832.832,0,0,1,.22-.586.721.721,0,0,1,.586-.22,1.041,1.041,0,0,1,.44.147.731.731,0,0,1,.293.366l1.612,3.077,1.612-3.077a.763.763,0,0,1,.733-.513A.57.57,0,0,1,37.181,116.536Z" transform="translate(-16.887 -116.243)" fill="#ae033c"/>
          <path id="Path_9" data-name="Path 9" d="M47.847,121.868a.665.665,0,0,1-.22.513.791.791,0,0,1-.513.22.549.549,0,0,1-.366-.073.572.572,0,0,1-.293-.293l-.366-.879H43.232l-.44.879a.572.572,0,0,1-.293.293.761.761,0,0,1-1.1-.659.44.44,0,0,1,.073-.293l2.344-4.762a.883.883,0,0,1,.366-.366,1.059,1.059,0,0,1,.513-.147,1.358,1.358,0,0,1,.513.147.883.883,0,0,1,.366.366l2.344,4.762C47.774,121.648,47.847,121.721,47.847,121.868ZM45.5,120.036l-.879-1.978-.879,1.978Z" transform="translate(-19.642 -116.227)" fill="#ae033c"/>
          <path id="Path_10" data-name="Path 10" d="M57.2,116.52a.832.832,0,0,1,.22.586v4.689a.832.832,0,0,1-.22.586.665.665,0,0,1-.513.22.6.6,0,0,1-.586-.293l-2.637-3.3v2.784a.832.832,0,0,1-.22.586.665.665,0,0,1-.513.22.57.57,0,0,1-.513-.22.832.832,0,0,1-.22-.586v-4.689a.832.832,0,0,1,.22-.586.721.721,0,0,1,1.1.073l2.637,3.3v-2.784a.832.832,0,0,1,.22-.586.665.665,0,0,1,.513-.22A.791.791,0,0,1,57.2,116.52Z" transform="translate(-22.476 -116.227)" fill="#ae033c"/>
          <path id="Path_11" data-name="Path 11" d="M67.121,121.768a.733.733,0,0,1-1.319.44l-2.491-2.564v2.051a.807.807,0,1,1-1.612,0v-4.689a.807.807,0,1,1,1.612,0v1.9L65.8,116.42a.725.725,0,1,1,1.026,1.026L65,119.2l1.978,1.978A2.264,2.264,0,0,1,67.121,121.768Z" transform="translate(-25.07 -116.2)" fill="#ae033c"/>
          <path id="Path_12" data-name="Path 12" d="M71.665,122.234a3.924,3.924,0,0,1-1.1-1.1,4.059,4.059,0,0,1,0-3.37,2.02,2.02,0,0,1,1.1-1.1,2.918,2.918,0,0,1,1.612-.366,3.73,3.73,0,0,1,1.612.366,3.924,3.924,0,0,1,1.1,1.1,4.059,4.059,0,0,1,0,3.37,2.02,2.02,0,0,1-1.1,1.1,2.918,2.918,0,0,1-1.612.366A3.729,3.729,0,0,1,71.665,122.234Zm2.711-1.392a2.184,2.184,0,0,0,.366-1.465,2.694,2.694,0,0,0-.366-1.465,1.558,1.558,0,0,0-1.1-.513,1.318,1.318,0,0,0-1.1.513,2.184,2.184,0,0,0-.366,1.465,2.694,2.694,0,0,0,.366,1.465,1.233,1.233,0,0,0,1.1.513A1.156,1.156,0,0,0,74.376,120.842Z" transform="translate(-27.342 -116.227)" fill="#ae033c"/>
        </g>
        <circle id="Ellipse_1" data-name="Ellipse 1" cx="33.407" cy="33.407" r="33.407" transform="matrix(-0.695, -0.719, 0.719, -0.695, 46.413, 94.475)" fill="url(#linear-gradient)"/>
        <g id="Group_3" data-name="Group 3" transform="translate(45.531 40.058)">
          <path id="Path_15" data-name="Path 15" d="M49.7,46.7Z" transform="translate(-44.865 -38.715)" fill="#fff"/>
          <path id="Path_17" data-name="Path 17" d="M52.2,35.8" transform="translate(-45.533 -35.8)" fill="#fff"/>
          <path id="Path_18" data-name="Path 18" d="M48.2,40" transform="translate(-44.464 -36.923)" fill="#fff"/>
          <path id="Path_19" data-name="Path 19" d="M43.1,44.4,47.5,37" transform="translate(-43.1 -36.121)" fill="#fff"/>
          <path id="Path_20" data-name="Path 20" d="M49.78,46.7Z" transform="translate(-44.871 -38.715)" fill="#fff"/>
        </g>
      </g>
      <g id="Group_5" data-name="Group 5" transform="translate(30.805 35.076)">
        <path id="Path_21" data-name="Path 21" d="M6.593.8H0L10.11,17.943h3.077l4.029-6.667a2.734,2.734,0,0,1-3.15.733,6.513,6.513,0,0,1-2.344-2.637C10.476,7.247,6.593.8,6.593.8Z" transform="translate(0 -0.214)" fill="#fff"/>
        <path id="Path_22" data-name="Path 22" d="M35.994,28.358l6.667.073L37.24,19.2,31.6,20.849Z" transform="translate(-8.448 -5.134)" fill="#fff"/>
        <g id="Group_4" data-name="Group 4" transform="translate(13.04)">
          <path id="Path_23" data-name="Path 23" d="M27.7,18.688Z" transform="translate(-20.447 -4.988)" fill="#fff"/>
          <path id="Path_24" data-name="Path 24" d="M24.613,6.74a5.623,5.623,0,0,1,4.908-3,5.568,5.568,0,0,1,0,11.136,5.419,5.419,0,0,1-2.637-.659l1.392,2.051c.073,0,.659-.073.366,0,4.469-.293,6.74-3.223,6.74-7.766a8.5,8.5,0,0,0-8.5-8.5c-4.615,0-6.667,3.883-8.572,8.572L17.8,9.89s.659,2.2,3.883,1.612l2.93-4.762" transform="translate(-17.8)" fill="#fff"/>
          <path id="Path_25" data-name="Path 25" d="M30.2,7.7" transform="translate(-21.116 -2.059)" fill="#fff"/>
          <path id="Path_26" data-name="Path 26" d="M26.2,11.9" transform="translate(-20.046 -3.182)" fill="#fff"/>
          <path id="Path_27" data-name="Path 27" d="M21.1,16.4,25.5,9" transform="translate(-18.682 -2.407)" fill="#fff"/>
          <path id="Path_28" data-name="Path 28" d="M27.7,18.7Z" transform="translate(-20.447 -5)" fill="#fff"/>
        </g>
        <circle id="Ellipse_3" data-name="Ellipse 3" cx="1.392" cy="1.392" r="1.392" transform="translate(21.758 11.942)" fill="#fff"/>
      </g>
    </g>
  </g>
</svg>
