<svg width="18" height="23" viewBox="0 0 18 23" fill="none" xmlns="http://www.w3.org/2000/svg">
<path d="M13.414 0.104248H2C0.897 0.104248 0 1.00025 0 2.10425V20.1042C0 21.2072 0.897 22.1042 2 22.1042H16C17.103 22.1042 18 21.2072 18 20.1042V4.69031L13.414 0.104248ZM12 1.10425L17 6.10425H12V1.10425ZM4.625 19.1042H3.375V17.2292H2.125V19.1042H0.875V14.1042H2.125V15.9792H3.375V14.1042H4.625V19.1042ZM9 15.3542H7.75V19.1042H6.5V15.3542H5.25V14.1042H9V15.3542ZM13.375 19.1042H12.125V16.7933L12.019 16.9503C11.788 17.2983 11.211 17.2983 10.979 16.9503L10.875 16.7933V19.1042H9.625V14.7292C9.625 14.4542 9.80499 14.2102 10.068 14.1302C10.331 14.0502 10.617 14.1523 10.769 14.3823L11.5 15.4773L12.229 14.3823C12.382 14.1533 12.667 14.0502 12.93 14.1302C13.194 14.2102 13.374 14.4532 13.374 14.7292V19.1042H13.375ZM17.124 19.1042H14V14.1042H15.25V17.8542H17.124V19.1042Z" fill="#757575"/>
</svg>
