<svg width="18" height="23" viewBox="0 0 18 23" fill="none" xmlns="http://www.w3.org/2000/svg">
<path d="M7.00098 13.0972H5.00098V15.0972H7.00098V13.0972Z" fill="#757575"/>
<path d="M13.415 0.097229H2.00098C0.897977 0.097229 0.000976562 0.994229 0.000976562 2.09723V20.0972C0.000976562 21.2002 0.897977 22.0972 2.00098 22.0972H16.001C17.104 22.0972 18.001 21.2002 18.001 20.0972V4.68223L13.415 0.097229ZM9.00098 19.0972H7.00098V17.0972H5.00098V19.0972H3.00098V12.0972C3.00098 11.5462 3.44798 11.0972 4.00098 11.0972H8.00098C8.55398 11.0972 9.00098 11.5462 9.00098 12.0972V19.0972ZM15.001 13.0972H14.001V17.0972H15.001V19.0972H11.001V17.0972H12.001V13.0972H11.001V11.0972H15.001V13.0972ZM12.001 6.09723V1.09723L17.001 6.09723H12.001Z" fill="#757575"/>
</svg>
