<svg width="18" height="23" viewBox="0 0 18 23" fill="none" xmlns="http://www.w3.org/2000/svg">
<path d="M13.414 0.104248H2C0.897 0.104248 0 1.00025 0 2.10425V20.1042C0 21.2072 0.897 22.1042 2 22.1042H16C17.103 22.1042 18 21.2072 18 20.1042V4.69031L13.414 0.104248ZM6 14.6042H3.75C3.336 14.6042 3 14.9402 3 15.3542V16.8542C3 17.2672 3.336 17.6042 3.75 17.6042H6V19.1042H3.75C2.51 19.1042 1.5 18.0952 1.5 16.8542V15.3542C1.5 14.1132 2.51 13.1042 3.75 13.1042H6V14.6042ZM11.25 14.6042H8.625C8.418 14.6042 8.25 14.7722 8.25 14.9792C8.25 15.1862 8.418 15.3542 8.625 15.3542H9.375C10.409 15.3542 11.25 16.1952 11.25 17.2292C11.25 18.2632 10.409 19.1042 9.375 19.1042H6.75V17.6042H9.375C9.582 17.6042 9.75 17.4362 9.75 17.2292C9.75 17.0222 9.582 16.8542 9.375 16.8542H8.625C7.591 16.8542 6.75 16.0132 6.75 14.9792C6.75 13.9452 7.591 13.1042 8.625 13.1042H11.25V14.6042ZM16.5 14.6042H13.875C13.668 14.6042 13.5 14.7722 13.5 14.9792C13.5 15.1862 13.668 15.3542 13.875 15.3542H14.625C15.659 15.3542 16.5 16.1952 16.5 17.2292C16.5 18.2632 15.659 19.1042 14.625 19.1042H12V17.6042H14.625C14.832 17.6042 15 17.4362 15 17.2292C15 17.0222 14.832 16.8542 14.625 16.8542H13.875C12.841 16.8542 12 16.0132 12 14.9792C12 13.9452 12.841 13.1042 13.875 13.1042H16.5V14.6042ZM12 6.10425V1.10425L17 6.10425H12Z" fill="#757575"/>
</svg>
