<svg width="18" height="23" viewBox="0 0 18 23" fill="none" xmlns="http://www.w3.org/2000/svg">
<path fill-rule="evenodd" clip-rule="evenodd" d="M2 0.104248H13.414L18 4.69031V20.1042C18 21.2072 17.103 22.1042 16 22.1042H2C0.897003 22.1042 0 21.2072 0 20.1042V2.10425C0 1.00024 0.897003 0.104248 2 0.104248ZM12 1.10425V6.10425H17L12 1.10425ZM1.80399 19.64C2.12799 19.92 2.578 20.06 3.15399 20.06C3.534 20.06 3.866 19.996 4.14999 19.868C4.43799 19.736 4.66 19.548 4.81601 19.304C4.97198 19.056 5.04999 18.762 5.04999 18.422V17.738C5.04999 17.694 5.03601 17.658 5.008 17.63C4.98001 17.598 4.944 17.582 4.89999 17.582H3.388C3.36322 17.582 3.34097 17.5871 3.32129 17.5972C3.306 17.6051 3.29224 17.616 3.28 17.63C3.26349 17.6465 3.25186 17.6658 3.24509 17.6879C3.24036 17.7032 3.23801 17.7199 3.23801 17.738V18.182C3.23801 18.226 3.25201 18.264 3.28 18.296C3.30801 18.324 3.34399 18.338 3.388 18.338H3.952V18.452C3.952 18.704 3.88 18.892 3.73599 19.016C3.59601 19.136 3.40799 19.196 3.172 19.196C2.68399 19.196 2.42801 18.932 2.40399 18.404C2.39999 18.288 2.39801 18.114 2.39801 17.882C2.39801 17.78 2.39838 17.6896 2.39914 17.6108C2.40012 17.5072 2.40173 17.4236 2.40399 17.36C2.42801 16.856 2.67801 16.604 3.15399 16.604C3.354 16.604 3.51001 16.648 3.62201 16.736C3.73401 16.82 3.81601 16.92 3.86801 17.036C3.87787 17.0557 3.88925 17.0717 3.90216 17.0838C3.91019 17.0913 3.91879 17.0974 3.92801 17.102C3.952 17.114 3.98401 17.12 4.02399 17.12H4.89999C4.936 17.12 4.966 17.108 4.98999 17.084C5.01801 17.06 5.03201 17.03 5.03201 16.994C5.02399 16.79 4.944 16.592 4.79199 16.4C4.64401 16.208 4.42801 16.05 4.14401 15.926C3.86401 15.802 3.534 15.74 3.15399 15.74C2.59 15.74 2.142 15.878 1.81 16.154C1.48199 16.43 1.30801 16.822 1.28799 17.33C1.284 17.446 1.28201 17.63 1.28201 17.882C1.28201 18.134 1.284 18.318 1.28799 18.434C1.30801 18.954 1.48001 19.356 1.80399 19.64ZM6.32635 19.892C6.59836 20.004 6.92435 20.06 7.30435 20.06C7.65637 20.06 7.96835 20.008 8.24036 19.904C8.51636 19.796 8.73035 19.644 8.88235 19.448C9.03836 19.248 9.11636 19.014 9.11636 18.746C9.11636 18.502 9.06436 18.3 8.96036 18.14C8.85635 17.976 8.69235 17.844 8.46835 17.744C8.24835 17.64 7.95236 17.554 7.58035 17.486C7.35236 17.438 7.17636 17.392 7.05237 17.348C6.93237 17.3 6.84436 17.248 6.78836 17.192C6.73636 17.136 6.71036 17.066 6.71036 16.982C6.71036 16.858 6.75836 16.764 6.85437 16.7C6.95035 16.636 7.08835 16.604 7.26837 16.604C7.42435 16.604 7.55435 16.636 7.65836 16.7C7.76636 16.764 7.83237 16.842 7.85635 16.934C7.88037 16.97 7.90637 16.996 7.93436 17.012C7.96637 17.028 8.00635 17.036 8.05435 17.036H8.84637C8.88235 17.036 8.91235 17.024 8.93637 17C8.96036 16.976 8.97235 16.946 8.97235 16.91C8.96436 16.734 8.89236 16.556 8.75635 16.376C8.62436 16.192 8.43036 16.04 8.17435 15.92C7.91837 15.8 7.61636 15.74 7.26837 15.74C6.93237 15.74 6.63837 15.794 6.38635 15.902C6.13437 16.01 5.94037 16.16 5.80435 16.352C5.66837 16.544 5.60037 16.762 5.60037 17.006C5.60037 17.366 5.71835 17.644 5.95435 17.84C6.19437 18.032 6.55435 18.178 7.03436 18.278C7.29437 18.334 7.49036 18.384 7.62234 18.428C7.75436 18.472 7.85037 18.522 7.91037 18.578C7.97437 18.634 8.00635 18.706 8.00635 18.794C8.00635 18.918 7.94635 19.016 7.82635 19.088C7.70636 19.16 7.53235 19.196 7.30435 19.196C7.11237 19.196 6.95837 19.162 6.84235 19.094C6.72635 19.026 6.64236 18.94 6.59036 18.836C6.55835 18.8 6.52637 18.774 6.49435 18.758C6.46637 18.738 6.42834 18.728 6.38037 18.728H5.62436C5.58835 18.728 5.55637 18.742 5.52835 18.77C5.50436 18.794 5.49237 18.822 5.49237 18.854C5.50037 19.07 5.57236 19.27 5.70837 19.454C5.84836 19.634 6.05435 19.78 6.32635 19.892ZM9.32242 19.964C9.35043 19.988 9.38043 20 9.41241 20H10.1504C10.2504 20 10.3164 19.958 10.3484 19.874L10.5764 19.262H12.1784L12.4124 19.874C12.4444 19.958 12.5084 20 12.6044 20H13.3424C13.3784 20 13.4084 19.988 13.4324 19.964C13.4604 19.936 13.4744 19.906 13.4744 19.874L13.4624 19.82L12.0584 15.968C12.0464 15.92 12.0204 15.88 11.9804 15.848C11.9618 15.8331 11.9406 15.8217 11.9169 15.8138C11.8895 15.8046 11.8587 15.8 11.8244 15.8H10.9364C10.8724 15.8 10.8204 15.816 10.7804 15.848C10.7404 15.88 10.7144 15.92 10.7024 15.968L9.29242 19.82C9.29001 19.8273 9.2883 19.8368 9.28732 19.8484C9.28671 19.856 9.28641 19.8645 9.28641 19.874C9.28641 19.906 9.29843 19.936 9.32242 19.964ZM11.3804 16.814L11.9384 18.398H10.8224L11.3804 16.814ZM13.9893 19.958C14.0213 19.986 14.0573 20 14.0974 20H14.9073C14.9514 20 14.9873 19.986 15.0154 19.958C15.0473 19.93 15.0634 19.894 15.0634 19.85V18.536H15.7773C16.2933 18.536 16.6974 18.424 16.9893 18.2C17.2813 17.972 17.4273 17.634 17.4273 17.186C17.4273 16.734 17.2794 16.39 16.9833 16.154C16.6913 15.918 16.2893 15.8 15.7773 15.8H14.0974C14.0573 15.8 14.0213 15.814 13.9893 15.842C13.9613 15.87 13.9474 15.906 13.9474 15.95V19.85C13.9474 19.89 13.9613 19.926 13.9893 19.958ZM16.1613 17.576C16.0613 17.664 15.9233 17.708 15.7473 17.708H15.0453V16.634H15.7473C15.9353 16.634 16.0753 16.684 16.1674 16.784C16.2633 16.88 16.3113 17.01 16.3113 17.174C16.3113 17.35 16.2614 17.484 16.1613 17.576Z" fill="#757575"/>
</svg>
