<svg width="18" height="23" viewBox="0 0 18 23" fill="none" xmlns="http://www.w3.org/2000/svg">
<path d="M13.414 0.104248H2C0.897 0.104248 0 1.00025 0 2.10425V20.1042C0 21.2072 0.897 22.1042 2 22.1042H16C17.103 22.1042 18 21.2072 18 20.1042V4.69031L13.414 0.104248ZM8 16.1042C8 17.7582 6.654 19.1042 5 19.1042C3.346 19.1042 2 17.7582 2 16.1042H4C4 16.6552 4.448 17.1042 5 17.1042C5.552 17.1042 6 16.6552 6 16.1042V11.1042H8V16.1042ZM15 13.1042H11.5C11.225 13.1042 11 13.3282 11 13.6042C11 13.8802 11.225 14.1042 11.5 14.1042H12.5C13.879 14.1042 15 15.2252 15 16.6042C15 17.9822 13.879 19.1042 12.5 19.1042H9V17.1042H12.5C12.775 17.1042 13 16.8802 13 16.6042C13 16.3282 12.775 16.1042 12.5 16.1042H11.5C10.121 16.1042 9 14.9822 9 13.6042C9 12.2252 10.121 11.1042 11.5 11.1042H15V13.1042ZM12 6.10425V1.10425L17 6.10425H12Z" fill="#757575"/>
</svg>
