<svg width="18" height="23" viewBox="0 0 18 23" fill="none" xmlns="http://www.w3.org/2000/svg">
<path fill-rule="evenodd" clip-rule="evenodd" d="M2 0.104248H13.414L18 4.69031V20.1042C18 21.2072 17.103 22.1042 16 22.1042H2C0.897 22.1042 0 21.2072 0 20.1042V2.10425C0 1.00025 0.897 0.104248 2 0.104248ZM12 1.10425V6.10425H17L12 1.10425ZM1.462 19.958C1.494 19.986 1.53 20 1.57 20H2.29C2.334 20 2.37 19.986 2.398 19.958C2.426 19.926 2.44 19.89 2.44 19.85V17.666L3.904 19.886C3.948 19.962 4.014 20 4.102 20H4.744C4.788 20 4.824 19.986 4.852 19.958C4.88 19.926 4.894 19.888 4.894 19.844V15.95C4.894 15.906 4.88 15.87 4.852 15.842C4.824 15.814 4.788 15.8 4.744 15.8H4.024C3.984 15.8 3.948 15.814 3.916 15.842C3.888 15.87 3.874 15.906 3.874 15.95V18.218L2.41 15.914C2.374 15.838 2.306 15.8 2.206 15.8H1.57C1.53 15.8 1.494 15.814 1.462 15.842C1.434 15.87 1.42 15.906 1.42 15.95V19.85C1.42 19.89 1.434 19.926 1.462 19.958ZM6.1165 19.646C6.4405 19.922 6.8845 20.06 7.4485 20.06C8.0125 20.06 8.4565 19.922 8.7805 19.646C9.1045 19.37 9.2765 18.964 9.2965 18.428C9.3045 18.196 9.3085 18.024 9.3085 17.912C9.3085 17.796 9.3045 17.622 9.2965 17.39C9.2805 16.862 9.1065 16.456 8.7745 16.172C8.4425 15.884 8.0005 15.74 7.4485 15.74C6.8965 15.74 6.4545 15.884 6.1225 16.172C5.7945 16.456 5.6205 16.862 5.6005 17.39C5.5965 17.506 5.5945 17.68 5.5945 17.912C5.5945 18.14 5.5965 18.312 5.6005 18.428C5.6205 18.964 5.7925 19.37 6.1165 19.646ZM7.9705 18.998C7.8425 19.13 7.6685 19.196 7.4485 19.196C7.2285 19.196 7.0545 19.13 6.9265 18.998C6.7985 18.866 6.7285 18.664 6.7165 18.392C6.7125 18.276 6.7105 18.112 6.7105 17.9C6.7105 17.684 6.7125 17.52 6.7165 17.408C6.7285 17.136 6.7985 16.934 6.9265 16.802C7.0585 16.67 7.2325 16.604 7.4485 16.604C7.6645 16.604 7.8385 16.67 7.9705 16.802C8.1025 16.934 8.1725 17.136 8.1805 17.408C8.1885 17.632 8.1925 17.796 8.1925 17.9C8.1925 17.996 8.1885 18.16 8.1805 18.392C8.1725 18.664 8.1025 18.866 7.9705 18.998ZM10.046 19.958C10.078 19.986 10.114 20 10.154 20H11.744C12.336 20 12.786 19.866 13.094 19.598C13.406 19.326 13.572 18.912 13.592 18.356C13.596 18.244 13.598 18.092 13.598 17.9C13.598 17.708 13.596 17.554 13.592 17.438C13.576 16.906 13.406 16.5 13.082 16.22C12.758 15.94 12.302 15.8 11.714 15.8H10.154C10.114 15.8 10.078 15.814 10.046 15.842C10.018 15.87 10.004 15.906 10.004 15.95V19.85C10.004 19.89 10.018 19.926 10.046 19.958ZM12.296 18.95C12.172 19.074 11.978 19.136 11.714 19.136H11.084V16.664H11.684C11.948 16.664 12.146 16.728 12.278 16.856C12.414 16.984 12.486 17.182 12.494 17.45C12.502 17.562 12.506 17.71 12.506 17.894C12.506 18.078 12.502 18.228 12.494 18.344C12.486 18.62 12.42 18.822 12.296 18.95ZM14.3409 19.958C14.3729 19.986 14.4089 20 14.4489 20H17.2989C17.3429 20 17.3789 19.986 17.4069 19.958C17.4349 19.926 17.4489 19.89 17.4489 19.85V19.286C17.4489 19.242 17.4349 19.206 17.4069 19.178C17.3789 19.15 17.3429 19.136 17.2989 19.136H15.3369V18.302H17.1189C17.1629 18.302 17.1989 18.288 17.2269 18.26C17.2549 18.228 17.2689 18.192 17.2689 18.152V17.63C17.2689 17.586 17.2549 17.55 17.2269 17.522C17.1989 17.49 17.1629 17.474 17.1189 17.474H15.3369V16.664H17.2509C17.2949 16.664 17.3309 16.65 17.3589 16.622C17.3869 16.59 17.4009 16.554 17.4009 16.514V15.95C17.4009 15.906 17.3869 15.87 17.3589 15.842C17.3309 15.814 17.2949 15.8 17.2509 15.8H14.4489C14.4089 15.8 14.3729 15.814 14.3409 15.842C14.3129 15.87 14.2989 15.906 14.2989 15.95V19.85C14.2989 19.89 14.3129 19.926 14.3409 19.958Z" fill="#757575"/>
</svg>
