<svg width="18" height="23" viewBox="0 0 18 23" fill="none" xmlns="http://www.w3.org/2000/svg">
<path d="M3.75 14.6042H3V16.1042H3.75C4.164 16.1042 4.5 15.7672 4.5 15.3542C4.5 14.9402 4.164 14.6042 3.75 14.6042Z" fill="#757575"/>
<path d="M14.25 14.6042H13.5V16.1042H14.25C14.664 16.1042 15 15.7672 15 15.3542C15 14.9402 14.664 14.6042 14.25 14.6042Z" fill="#757575"/>
<path d="M13.414 0.104248H2C0.897 0.104248 0 1.00025 0 2.10425V20.1042C0 21.2072 0.897 22.1042 2 22.1042H16C17.103 22.1042 18 21.2072 18 20.1042V4.69031L13.414 0.104248ZM3.75 17.6042H3V19.1042H1.5V13.1042H3.75C4.99 13.1042 6 14.1132 6 15.3542C6 16.5952 4.99 17.6042 3.75 17.6042ZM11.25 19.1042H9.75V16.8542H8.25V19.1042H6.75V13.1042H8.25V15.3542H9.75V13.1042H11.25V19.1042ZM14.25 17.6042H13.5V19.1042H12V13.1042H14.25C15.49 13.1042 16.5 14.1132 16.5 15.3542C16.5 16.5952 15.49 17.6042 14.25 17.6042ZM12 6.10425V1.10425L17 6.10425H12Z" fill="#757575"/>
</svg>
