<svg width="18" height="23" viewBox="0 0 18 23" fill="none" xmlns="http://www.w3.org/2000/svg">
<path d="M3.75098 14.5972H3.00098V16.0972H3.75098C4.16498 16.0972 4.50098 15.7622 4.50098 15.3472C4.50098 14.9342 4.16498 14.5972 3.75098 14.5972Z" fill="#757575"/>
<path d="M13.501 14.5972V17.5972C14.328 17.5972 15.001 16.9262 15.001 16.0972C15.001 15.2712 14.328 14.5972 13.501 14.5972Z" fill="#757575"/>
<path d="M13.415 0.097229H2.00098C0.897977 0.097229 0.000976562 0.994229 0.000976562 2.09723V20.0972C0.000976562 21.2002 0.897977 22.0972 2.00098 22.0972H16.001C17.104 22.0972 18.001 21.2002 18.001 20.0972V4.68223L13.415 0.097229ZM3.75098 17.5972H3.00098V19.0972H1.50098V13.0972H3.75098C4.99098 13.0972 6.00098 14.1072 6.00098 15.3472C6.00098 16.5892 4.99098 17.5972 3.75098 17.5972ZM11.251 14.5972H8.62598C8.41898 14.5972 8.25098 14.7652 8.25098 14.9722C8.25098 15.1802 8.41898 15.3472 8.62598 15.3472H9.37598C10.41 15.3472 11.251 16.1892 11.251 17.2222C11.251 18.2572 10.41 19.0972 9.37598 19.0972H6.75098V17.5972H9.37598C9.58298 17.5972 9.75098 17.4302 9.75098 17.2222C9.75098 17.0162 9.58298 16.8472 9.37598 16.8472H8.62598C7.59198 16.8472 6.75098 16.0072 6.75098 14.9722C6.75098 13.9392 7.59198 13.0972 8.62598 13.0972H11.251V14.5972ZM13.501 19.0972H12.001V13.0972H13.501C15.155 13.0972 16.501 14.4432 16.501 16.0972C16.501 17.7522 15.155 19.0972 13.501 19.0972ZM12.001 6.09723V1.09723L17.001 6.09723H12.001Z" fill="#757575"/>
</svg>
