<svg width="18" height="23" viewBox="0 0 18 23" fill="none" xmlns="http://www.w3.org/2000/svg">
<path d="M9.08105 14.6453C8.65605 14.6453 8.31006 14.9913 8.31006 15.4163V16.9563C8.31006 17.3813 8.65605 17.7273 9.08105 17.7273C9.50605 17.7273 9.85205 17.3813 9.85205 16.9563V15.4163C9.85205 14.9913 9.50605 14.6453 9.08105 14.6453Z" fill="#757575"/>
<path d="M13.414 0.104248H2C0.897 0.104248 0 1.00025 0 2.10425V20.1042C0 21.2072 0.897 22.1042 2 22.1042H16C17.103 22.1042 18 21.2072 18 20.1042V4.69031L13.414 0.104248ZM6 14.6042H3.375C3.168 14.6042 3 14.7723 3 14.9803C3 15.1863 3.168 15.3542 3.375 15.3542H4.125C5.159 15.3542 6 16.1963 6 17.2303C6 18.2633 5.159 19.1042 4.125 19.1042H1.5V17.6042H4.125C4.332 17.6042 4.5 17.4363 4.5 17.2303C4.5 17.0223 4.332 16.8542 4.125 16.8542H3.375C2.341 16.8542 1.5 16.0133 1.5 14.9803C1.5 13.9463 2.341 13.1042 3.375 13.1042H6V14.6042ZM10.848 19.8123L10.072 19.0363C9.77102 19.1803 9.43797 19.2662 9.08197 19.2662C7.80797 19.2662 6.77197 18.2303 6.77197 16.9553V15.4153C6.77197 14.1413 7.80797 13.1033 9.08197 13.1033C10.356 13.1033 11.394 14.1403 11.394 15.4153V16.9553C11.394 17.3113 11.306 17.6443 11.162 17.9463L11.938 18.7213L10.848 19.8123ZM16.5 19.1042H12.75V13.1042H14.25V17.6042H16.5V19.1042ZM12 6.10425V1.10425L17 6.10425H12Z" fill="#757575"/>
</svg>
