<?xml version="1.0" encoding="utf-8"?>
<!-- Generator: Adobe Illustrator 25.0.0, SVG Export Plug-In . SVG Version: 6.00 Build 0)  -->
<svg version="1.1" id="Layer_1" xmlns="http://www.w3.org/2000/svg" xmlns:xlink="http://www.w3.org/1999/xlink" x="0px" y="0px"
	 viewBox="0 0 43.3 43.3" style="enable-background:new 0 0 43.3 43.3;" xml:space="preserve">
<style type="text/css">
	.st0{fill:#1a1a1a;}
  #Layer_1:hover .st0{
    cursor:pointer !important;
    fill:#9712C8 !important;
    transition-timing-function: ease-in;
    transition: 1s;

    }
</style>
<g>
<path id="linkedin" class="st0" d="M21.7,0C9.7,0,0,9.7,0,21.7s9.7,21.7,21.7,21.7c12,0,21.7-9.7,21.7-21.7C43.3,9.7,33.6,0,21.7,0z
	 M15.4,32.8h-5.3V16.9h5.3L15.4,32.8z M12.7,14.7L12.7,14.7c-1.5,0.1-2.9-1.1-2.9-2.6s1.1-2.8,2.6-2.9c0.1,0,0.3,0,0.4,0
	c1.5-0.1,2.8,1,2.9,2.5s-1,2.8-2.5,2.9C13,14.7,12.9,14.7,12.7,14.7L12.7,14.7z M34.4,32.8h-5.3v-8.5c0-2.1-0.8-3.6-2.7-3.6
	c-1.2,0-2.3,0.8-2.7,1.9c-0.1,0.4-0.2,0.9-0.2,1.3v8.9h-5.3c0,0,0.1-14.4,0-15.9h5.3v2.2c1-1.7,2.8-2.7,4.8-2.6
	c3.5,0,6.1,2.3,6.1,7.1L34.4,32.8z"/>
  </g>
</svg>
